<?xml version="1.0" encoding="UTF-8"?>
<svg id="Capa_1" data-name="Capa 1" xmlns="http://www.w3.org/2000/svg" version="1.1" viewBox="0 0 28 28">
  <defs>
    <style>
      .cls-1 {
        fill: #636363;
        stroke-width: 0px;
      }
    </style>
  </defs>
  <g id="NewGroupe14">
    <g id="NewGroup0-35">
      <g>
        <polygon class="cls-1" points="13.2 13.2 14.8 13.2 14.8 14.8 13.2 14.8 13.2 13.2 13.2 13.2"/>
        <path class="cls-1" d="M25.5,14.8h-2.3c-.4,0-.8-.3-.8-.8s.3-.8.8-.8h2.3v1.5h0ZM21,8.1c-.3.3-.8.3-1.1,0s-.3-.8,0-1.1l1.6-1.6,1.1,1.1-1.6,1.6h0ZM22.6,21.5l-1.1,1.1-1.6-1.6c-.3-.3-.3-.8,0-1.1s.8-.3,1.1,0l1.6,1.6h0ZM17.2,16.1c.3-.4.5-.9.6-1.3h3.1c-.1,1.3-.7,2.5-1.5,3.5l-2.2-2.2h0ZM14.8,20.8v-3.1c.5,0,.9-.3,1.3-.6l2.2,2.2c-1,.8-2.2,1.3-3.5,1.5h0ZM14.8,25.5h-1.5v-2.3c0-.4.3-.8.8-.8s.8.3.8.8v2.3h0ZM9.7,19.4l2.2-2.2c.4.3.9.5,1.3.6v3.1c-1.3-.1-2.5-.7-3.5-1.5h0ZM8.6,18.3c-.8-1-1.3-2.2-1.5-3.5h3.1c0,.5.3.9.6,1.3l-2.2,2.2h0ZM8.1,21l-1.6,1.6-1.1-1.1,1.6-1.6c.3-.3.8-.3,1.1,0s.3.8,0,1.1h0ZM5.4,6.5l1.1-1.1,1.6,1.6c.3.3.3.8,0,1.1s-.8.3-1.1,0l-1.6-1.6h0ZM10.8,11.9c-.3.4-.5.9-.6,1.3h-3.1c.1-1.3.7-2.5,1.5-3.5l2.2,2.2h0ZM13.2,7.2v3.1c-.5,0-.9.3-1.3.6l-2.2-2.2c1-.8,2.2-1.3,3.5-1.5h0ZM13.2,2.5h1.5v2.3c0,.4-.3.8-.8.8s-.8-.3-.8-.8v-2.3h0ZM16.3,14c0,1.3-1,2.3-2.3,2.3s-2.3-1-2.3-2.3,1-2.3,2.3-2.3,2.3,1,2.3,2.3h0ZM18.3,8.6l-2.2,2.2c-.4-.3-.9-.5-1.3-.6v-3.1c1.3.1,2.5.7,3.5,1.5h0ZM19.4,9.7c.8,1,1.3,2.2,1.5,3.5h-3.1c0-.5-.3-.9-.6-1.3l2.2-2.2h0ZM4.9,14.8h-2.3v-1.5h2.3c.4,0,.8.3.8.8s-.3.8-.8.8h0ZM22.1,12c-.2-.8-.5-1.6-.9-2.3.3-.1.6-.3.9-.5l2.7-2.7-3.2-3.2-2.7,2.7c-.3.3-.4.6-.6.9-.7-.4-1.4-.7-2.2-.9.2-.3.2-.7.2-1V1h-4.6v3.9c0,.4,0,.7.2,1-.8.2-1.6.5-2.2.9-.1-.3-.3-.6-.6-.9l-2.7-2.7-3.2,3.2,2.7,2.7c.3.3.6.4.9.6-.4.7-.7,1.4-.9,2.2-.3-.2-.7-.2-1-.2H1v4.6h3.9c.4,0,.7,0,1-.2.2.8.5,1.6.9,2.3-.3.1-.6.3-.9.5l-2.7,2.7,3.2,3.2,2.7-2.7c.3-.3.4-.6.5-.9.7.4,1.4.7,2.3.9-.2.3-.2.7-.2,1v3.9h4.6v-3.9c0-.4,0-.7-.2-1,.8-.2,1.6-.5,2.3-.9.1.3.3.6.5.9l2.7,2.7,3.2-3.2-2.7-2.7c-.3-.3-.6-.4-.9-.5.4-.7.7-1.4.9-2.3.3.2.7.2,1,.2h3.9v-4.6h-3.9c-.4,0-.7,0-1,.2h0Z"/>
      </g>
    </g>
  </g>
</svg>