<svg width="20" height="20" viewBox="0 0 20 20" fill="none" xmlns="http://www.w3.org/2000/svg">
<path d="M2.9819 0.490874L9.99988 7.50855L16.9815 0.527235C17.1357 0.363097 17.3215 0.231792 17.5277 0.141194C17.7339 0.0505961 17.9562 0.00257135 18.1815 0C18.6637 0 19.1261 0.191544 19.4671 0.532495C19.808 0.873445 19.9996 1.33587 19.9996 1.81805C20.0038 2.04095 19.9625 2.26236 19.8781 2.4687C19.7936 2.67504 19.6679 2.86195 19.5087 3.01796L12.4362 9.99928L19.5087 17.0715C19.8083 17.3646 19.9841 17.7616 19.9996 18.1805C19.9996 18.6627 19.808 19.1251 19.4671 19.4661C19.1261 19.807 18.6637 19.9986 18.1815 19.9986C17.9497 20.0082 17.7186 19.9695 17.5026 19.885C17.2866 19.8005 17.0906 19.672 16.9269 19.5077L9.99988 12.49L3.00009 19.4895C2.84646 19.6482 2.66294 19.7748 2.4601 19.8622C2.25727 19.9496 2.03914 19.9959 1.8183 19.9986C1.3361 19.9986 0.873656 19.807 0.532691 19.4661C0.191726 19.1251 0.000173751 18.6627 0.000173751 18.1805C-0.00406521 17.9576 0.0372916 17.7362 0.121706 17.5299C0.206121 17.3235 0.331813 17.1366 0.491068 16.9806L7.56359 9.99928L0.491068 2.92706C0.191413 2.63392 0.0156999 2.23695 0.000173751 1.81805C0.000173751 1.33587 0.191726 0.873445 0.532691 0.532495C0.873656 0.191544 1.3361 0 1.8183 0C2.25465 0.00545415 2.67282 0.181805 2.9819 0.490874Z" fill="white"/>
</svg>
