<svg width="13" height="13" viewBox="0 0 13 13" fill="none" xmlns="http://www.w3.org/2000/svg">
<path d="M12.8626 12.2036L9.81874 9.16438C11.0681 7.68771 11.4612 5.66873 10.8581 3.8307C10.2549 1.99327 8.74107 0.600682 6.85953 0.151829C4.97799 -0.296505 2.99845 0.263188 1.6308 1.63082C0.263165 2.99845 -0.296471 4.97799 0.151805 6.85952C0.60072 8.74105 1.99326 10.2548 3.8307 10.8581C5.66873 11.4613 7.68777 11.068 9.1644 9.81871L12.2036 12.8625C12.2906 12.9501 12.4095 13 12.5331 13C12.6566 13 12.7755 12.9501 12.8625 12.8625C12.9501 12.7755 13 12.6566 13 12.5331C13 12.4095 12.9502 12.2906 12.8626 12.2036ZM0.933093 5.57311C0.933093 4.34235 1.42204 3.1621 2.29203 2.29201C3.16202 1.42192 4.34239 0.933083 5.57314 0.933083C6.8039 0.933083 7.98416 1.42203 8.85426 2.29201C9.72435 3.162 10.2132 4.34236 10.2132 5.57311C10.2132 6.80385 9.72425 7.98412 8.85426 8.85421C7.98427 9.7243 6.8039 10.2131 5.57314 10.2131C4.34239 10.2131 3.16212 9.72419 2.29203 8.85421C1.42193 7.98422 0.933093 6.80385 0.933093 5.57311Z" fill="#575757"/>
</svg>
