<svg width="72" height="73" viewBox="0 0 72 73" fill="none" xmlns="http://www.w3.org/2000/svg">
<rect y="0.433594" width="72" height="72" rx="12" fill="#06498B" fill-opacity="0.1"/>
<path d="M24.8875 21.4336C23.2923 21.4336 22 22.7259 22 24.3211V44.5333C22 45.2164 22.5543 45.7707 23.2375 45.7707H24.0625V25.5585C24.0625 24.4193 24.9858 23.4961 26.1249 23.4961H26.9499C26.9499 22.3569 26.0266 21.4336 24.8875 21.4336Z" fill="#06498B"/>
<path d="M26.9082 21.4336C27.4432 21.9573 27.7751 22.6888 27.7751 23.4961C27.7751 24.3033 27.4432 25.0349 26.9082 25.5585H47.1625C48.3017 25.5585 49.2249 24.6352 49.2249 23.4961C49.2249 22.3569 48.3017 21.4336 47.1625 21.4336H26.9082Z" fill="#06498B"/>
<path d="M26.7784 24.3203C26.4593 25.0486 25.7326 25.5578 24.8867 25.5578C24.8867 24.8746 25.441 24.3203 26.1242 24.3203H26.7784Z" fill="#06498B"/>
<path d="M35.2411 29.7403C34.3356 29.3149 33.3172 29.1731 32.3247 29.3391C31.1951 29.526 30.1655 30.0996 29.4114 30.9617C28.6574 31.8237 28.2255 32.921 28.1901 34.065C28.153 35.2106 28.5156 36.3321 29.2133 37.2393C29.911 38.1464 30.9036 38.7845 32.0186 39.044C33.1336 39.3018 34.305 39.1664 35.3314 38.6589C36.3578 38.1497 37.1763 37.3021 37.6484 36.258C38.0625 35.3412 38.1866 34.3212 38.0078 33.3367L36.7525 33.6751H36.7509L33.2447 34.6193C33.0836 34.6629 32.9112 34.6048 32.8097 34.4727C32.7082 34.3406 32.6953 34.1601 32.7791 34.0151L35.2411 29.7403Z" fill="#06498B"/>
<path d="M35.502 30.9386L35.9547 30.1523C36.8007 30.7373 37.4436 31.5719 37.7916 32.5403L36.9151 32.7772C36.6331 32.0392 36.1416 31.4011 35.502 30.9386Z" fill="#06498B"/>
<path d="M36.1143 32.9924C35.8968 32.4639 35.5439 32.0047 35.0895 31.6582L33.9922 33.5628L36.1143 32.9924Z" fill="#06498B"/>
<path fill-rule="evenodd" clip-rule="evenodd" d="M24.8867 26.3845H47.1614C47.3016 26.3845 47.4385 26.3748 47.5739 26.3555V38.6078C45.2375 36.5308 41.6571 36.613 39.4176 38.8527C37.0925 41.1762 37.0925 44.9436 39.4176 47.2667C41.3786 49.2293 44.3692 49.5355 46.6524 48.1836L47.574 49.16V51.5464C47.574 52.2296 47.0197 52.7839 46.3366 52.7839H26.1244C25.4412 52.7839 24.8869 52.2296 24.8869 51.5464L24.8867 26.3845ZM36.0175 29.2172C34.8605 28.5501 33.5071 28.3068 32.189 28.5259C30.871 28.745 29.6705 29.4137 28.7908 30.4192C27.911 31.4246 27.4066 32.704 27.3648 34.0397C27.3229 35.3755 27.745 36.6839 28.5587 37.7425C29.3741 38.8012 30.531 39.5456 31.8313 39.8469C33.1332 40.1498 34.4996 39.9903 35.6968 39.3974C36.894 38.806 37.8495 37.8167 38.399 36.5985C38.95 35.382 39.0596 34.0108 38.7132 32.7201C38.3152 31.241 37.3452 29.9809 36.0175 29.2172ZM27.7742 41.2343C27.547 41.2343 27.3617 41.4196 27.3617 41.6468C27.3617 41.874 27.547 42.0593 27.7742 42.0593H30.2491C30.4763 42.0593 30.6616 41.874 30.6616 41.6468C30.6616 41.4196 30.4763 41.2343 30.2491 41.2343H27.7742ZM27.7742 42.8843C27.547 42.8843 27.3617 43.0696 27.3617 43.2968C27.3617 43.524 27.547 43.7093 27.7742 43.7093H35.1991C35.4263 43.7093 35.6116 43.524 35.6116 43.2968C35.6116 43.0696 35.4263 42.8843 35.1991 42.8843H27.7742ZM27.7742 44.5343C27.547 44.5343 27.3617 44.7196 27.3617 44.9468C27.3617 45.174 27.547 45.3593 27.7742 45.3593H35.1991C35.4263 45.3593 35.6116 45.174 35.6116 44.9468C35.6116 44.7196 35.4263 44.5343 35.1991 44.5343H27.7742ZM27.7742 46.1843C27.547 46.1843 27.3617 46.3696 27.3617 46.5968C27.3617 46.8239 27.547 47.0092 27.7742 47.0092H35.1991C35.4263 47.0092 35.6116 46.8239 35.6116 46.5968C35.6116 46.3696 35.4263 46.1843 35.1991 46.1843H27.7742Z" fill="#06498B"/>
<path d="M45.9457 40.74C44.6647 39.459 42.5893 39.459 41.3084 40.74C40.0274 42.021 40.0274 44.098 41.3084 45.379C42.5894 46.6583 44.6647 46.6583 45.9457 45.379C47.2267 44.098 47.2267 42.021 45.9457 40.74Z" fill="#06498B"/>
<path fill-rule="evenodd" clip-rule="evenodd" d="M47.2497 39.4355C47.3657 39.5499 47.4736 39.6692 47.5751 39.7916C49.143 41.6833 49.143 44.4371 47.5751 46.3272C47.4736 46.4496 47.3657 46.5689 47.2497 46.6833C45.2484 48.6861 42.0032 48.6861 40.0021 46.6833C37.9993 44.682 37.9993 41.4367 40.0021 39.4357C42.0034 37.4329 45.2487 37.4326 47.2497 39.4355ZM47.5751 44.1808C47.3898 44.8334 47.0418 45.4489 46.5278 45.9629C44.9245 47.5646 42.3269 47.5646 40.724 45.9629C39.1208 44.3597 39.1208 41.7605 40.724 40.1575C42.3272 38.5545 44.9248 38.5543 46.5278 40.1575C47.0418 40.6715 47.3898 41.287 47.5751 41.938C47.783 42.6711 47.783 43.4493 47.5751 44.1808Z" fill="#06498B"/>
<path d="M47.3543 47.6956C47.4301 47.6359 47.5026 47.5747 47.5751 47.5103C47.6637 47.4313 47.7491 47.3507 47.8329 47.2653C47.9876 47.1123 48.1326 46.9511 48.2663 46.7852L49.4378 47.9421C49.2911 48.0307 49.1525 48.137 49.0253 48.2643L48.8319 48.4577C48.6917 48.5979 48.5757 48.7526 48.4822 48.9169L47.3398 47.7084C47.3447 47.7036 47.3495 47.7004 47.3543 47.6956Z" fill="#06498B"/>
<path d="M51.4417 48.8482C50.9357 48.3423 50.1156 48.3423 49.6096 48.8482L49.4146 49.0416C48.9087 49.5492 48.9087 50.3693 49.4146 50.8752L52.5921 54.0527C53.0981 54.5603 53.9198 54.5603 54.4258 54.0527L54.6191 53.8594C55.1267 53.3534 55.1267 52.5316 54.6191 52.0257L51.4417 48.8482Z" fill="#06498B"/>
</svg>
