<svg width="92" height="92" viewBox="0 0 92 92" fill="none" xmlns="http://www.w3.org/2000/svg">
<path d="M49.6729 61.3629C50.6111 60.4247 51.195 59.1323 51.195 57.6963C51.195 54.8434 48.8687 52.5171 46.0158 52.5171C43.163 52.5171 40.8366 54.8434 40.8366 57.6963C40.8366 60.5492 43.163 62.8755 46.0158 62.8755C47.4327 62.8755 48.7347 62.3011 49.6729 61.3629ZM43.5363 57.6963C43.5363 56.3369 44.6468 55.2263 46.0063 55.2263C47.3657 55.2263 48.4762 56.3369 48.4762 57.6963C48.4762 59.0557 47.3657 60.1662 46.0063 60.1662C44.6373 60.1758 43.5267 59.0653 43.5363 57.6963Z" fill="#012555"/>
<path d="M59.7346 53.1017C59.39 53.7718 59.6485 54.5855 60.3186 54.9302C60.8547 55.2174 61.4961 55.0929 61.8982 54.6908C61.9939 54.5951 62.0801 54.4898 62.1375 54.3558C65.7946 47.3097 64.4734 38.7894 58.8539 33.1698C51.7791 26.0951 40.2527 26.0951 33.178 33.1698C27.2329 39.1149 26.1319 48.2767 30.4974 55.4567C30.8899 56.0981 31.7228 56.2992 32.3547 55.9162C32.9961 55.5237 33.1971 54.6908 32.8046 54.0494C29.0901 47.9416 30.0283 40.1488 35.0927 35.0845C41.1143 29.0628 50.9175 29.0628 56.9392 35.0845C61.7163 39.8616 62.8364 47.1087 59.7346 53.1017Z" fill="#012555"/>
<path d="M63.8799 19.6043L57.3125 24.7548C55.9339 24.0272 54.4979 23.4337 53.0332 22.9837L52.0471 14.7027C51.961 14.023 51.3866 13.506 50.6973 13.506L41.3345 13.506C40.6452 13.506 40.0708 14.023 39.9942 14.6931L38.989 22.9741C37.5147 23.4337 36.0787 24.0272 34.7097 24.7644L28.1519 19.6043C27.5966 19.1831 26.8308 19.2214 26.3425 19.7096L19.7177 26.3344C19.2295 26.8226 19.1912 27.5885 19.6124 28.1246L24.7629 34.692C24.0258 36.061 23.4322 37.497 22.9823 38.9617L14.7013 39.9669C14.0215 40.0531 13.5046 40.6275 13.5142 41.3072L13.5142 50.67C13.5142 51.3593 14.0311 51.9337 14.7013 52.0103L22.9823 53.0155C23.4322 54.4802 24.0258 55.9162 24.7629 57.2852L19.6124 63.8526C19.1529 64.4461 19.2582 65.2982 19.8422 65.7481C20.4357 66.2077 21.2878 66.1023 21.7377 65.5184L27.4435 58.2426C27.7881 57.8022 27.8264 57.2086 27.5488 56.7204C26.5723 55.0546 25.8351 53.2644 25.3469 51.4167C25.2129 50.8806 24.7438 50.4881 24.1981 50.4211L16.2234 49.4542L16.2234 42.4847L24.1981 41.5178C24.7438 41.4508 25.2033 41.0487 25.3469 40.5222C25.8351 38.6745 26.5819 36.8939 27.5488 35.2185C27.836 34.7399 27.7881 34.1367 27.4435 33.6964L22.4844 27.397L27.4147 22.4667L33.7332 27.4449C34.1736 27.7896 34.7767 27.8374 35.2554 27.5502C36.9307 26.5642 38.7209 25.827 40.5686 25.3388C41.1047 25.2047 41.4972 24.7356 41.5642 24.19L42.5312 16.2153L49.5006 16.2153L50.4579 24.1995C50.525 24.7452 50.927 25.2047 51.4632 25.3579C53.3012 25.8366 55.0819 26.5642 56.7668 27.5598C57.2455 27.847 57.8486 27.7991 58.289 27.4545L64.617 22.4859L69.5473 27.4162L64.5692 33.7346C64.2245 34.175 64.1862 34.7686 64.4638 35.2568C65.4499 36.9513 66.1966 38.732 66.6657 40.5605C66.7998 41.0966 67.2593 41.4987 67.8241 41.5657L75.8083 42.523V49.4925L67.8241 50.4498C67.2784 50.5168 66.8093 50.9093 66.6657 51.455C66.1871 53.2931 65.4499 55.0833 64.4638 56.7587C64.1766 57.2374 64.2245 57.8405 64.5692 58.2809L70.2845 65.5471C70.744 66.1406 71.6056 66.2364 72.18 65.7768C72.2183 65.7386 72.2662 65.7098 72.3045 65.6715C72.7831 65.1929 72.8406 64.427 72.4098 63.8813L67.2401 57.314C67.9773 55.9258 68.5708 54.4898 69.0208 53.0251L77.3018 52.039C77.9815 51.9528 78.4985 51.3784 78.4985 50.6892L78.4985 41.3264C78.4985 40.6371 77.9815 40.0627 77.3018 39.9765L69.0208 38.9904C68.5804 37.5161 67.9869 36.0801 67.2401 34.7016L72.4002 28.1438C72.8214 27.6077 72.7736 26.8322 72.2949 26.3535L65.6701 19.7287C65.1819 19.2214 64.416 19.1831 63.8799 19.6043Z" fill="#012555"/>
<path d="M34.3456 62.215C33.3596 62.7798 32.4309 63.4595 31.6172 64.2733C31.5693 64.3212 31.5311 64.3786 31.4832 64.4265C29.176 66.8294 27.9027 69.9599 27.8932 73.2819C27.8932 73.6457 28.0368 73.9807 28.2952 74.2392C28.5537 74.4977 28.8984 74.6317 29.2526 74.6413L39.3621 74.6413C39.6206 75.0338 39.8695 75.4359 40.1567 75.8188C40.3577 76.0965 40.6545 76.2783 40.9896 76.3454C40.3386 77.3027 39.9652 78.4611 39.9652 79.7056C39.9652 82.5968 44.0914 88.2547 44.9243 89.3556C45.1827 89.6907 45.5848 89.9013 46.006 89.9013C46.3698 89.9013 46.7049 89.7577 46.9634 89.4992C47.0113 89.4514 47.0495 89.4131 47.0878 89.3556C47.9207 88.2547 52.0469 82.5968 52.0469 79.7056C52.0469 78.4802 51.6831 77.3123 51.0034 76.3262C51.2714 76.2688 51.5203 76.173 51.7214 75.972C51.7692 75.9241 51.8171 75.8763 51.8554 75.8188C52.1426 75.4359 52.3915 75.0338 52.65 74.6413L62.7595 74.6413C63.1425 74.6413 63.4679 74.4881 63.7169 74.2392C63.9658 73.9903 64.1094 73.6552 64.1189 73.2819C64.1189 71.2715 63.6403 69.3376 62.7691 67.5857C62.7499 67.5474 62.7212 67.4995 62.7116 67.4517C62.5585 67.1453 62.3766 66.8485 62.2043 66.5613C62.1564 66.4752 62.1085 66.389 62.0415 66.3028C61.8788 66.0635 61.6969 65.8242 61.515 65.5848C61.4288 65.4795 61.3522 65.3455 61.2661 65.2402C61.1608 65.1157 61.0363 64.9913 60.931 64.8668C60.7491 64.6658 60.5864 64.4648 60.3949 64.2733C59.5046 63.383 58.4802 62.6267 57.3314 62.0331C57.2261 61.9852 57.1112 61.9278 57.0059 61.8799C57.0346 61.3725 57.0729 60.8556 57.0729 60.3386C57.0729 60.0706 57.0633 59.7929 57.0538 59.5344C57.0155 58.2325 56.8623 56.9113 56.623 55.6381C55.9145 51.847 54.3445 48.2665 51.9799 44.9829C50.5438 42.9916 48.8206 41.1535 46.8868 39.526C46.389 39.1048 45.6423 39.1048 45.1444 39.526C43.2106 41.1535 41.4874 42.9916 40.0514 44.9829C37.6772 48.257 36.1263 51.8374 35.3987 55.6285C35.1498 56.8922 35.0062 58.1655 34.9583 59.5344C34.9296 60.329 34.9488 61.1141 34.9966 61.8895C34.7764 61.9757 34.5562 62.1001 34.3456 62.215ZM30.6886 71.9224C30.813 70.9747 31.1002 70.0748 31.4928 69.2036C31.5598 69.0408 31.6268 68.8781 31.7129 68.7154C31.9044 68.3324 32.1246 67.9782 32.3639 67.624C32.4501 67.4995 32.5458 67.3655 32.6416 67.2315C32.9192 66.8581 33.216 66.5039 33.5415 66.1592C34.0776 65.6231 34.7094 65.1445 35.37 64.7328C35.8104 67.2028 36.605 69.6057 37.7729 71.9033L30.6886 71.9224ZM49.3376 79.6961C49.3376 80.8832 47.6335 83.8318 46.006 86.206C44.3786 83.8318 42.6745 80.8832 42.6745 79.6961C42.6745 77.858 44.1584 76.3741 45.9869 76.3645L46.0252 76.3645C46.9059 76.3645 47.7388 76.7187 48.3611 77.341C48.9834 77.9633 49.3376 78.7962 49.3376 79.6961ZM59.4184 67.2985C59.4854 67.3846 59.5524 67.49 59.6194 67.5761C59.8779 67.9495 60.1173 68.342 60.3279 68.7441C60.3949 68.8685 60.4427 69.0121 60.5002 69.1462C60.9023 70.0269 61.199 70.9555 61.3235 71.9224L54.2392 71.9224C55.3976 69.6344 56.2113 67.2315 56.6517 64.7615C57.3122 65.1732 57.9249 65.6327 58.4611 66.1688C58.8153 66.523 59.1216 66.906 59.4184 67.2985ZM43.6989 44.7244C43.8712 44.5329 44.0339 44.3319 44.2062 44.1404C44.7711 43.5181 45.3646 42.9054 45.9965 42.331C46.6283 42.9054 47.2219 43.5181 47.7963 44.15C47.959 44.3319 48.1218 44.5138 48.2845 44.7148C48.476 44.9446 48.6483 45.1743 48.8398 45.4041C47.9495 45.8158 46.9921 46.0264 45.9965 46.0264C45.0008 46.0264 44.0435 45.8158 43.1532 45.4041C43.3351 45.1648 43.5074 44.935 43.6989 44.7244ZM37.6676 59.6015C37.7155 58.3856 37.8399 57.2464 38.0601 56.1072C38.6249 53.1107 39.8216 50.2674 41.5448 47.606C42.9138 48.3431 44.4264 48.7261 45.9965 48.7261C47.5665 48.7261 49.0887 48.3336 50.4577 47.6156C52.1905 50.2674 53.3776 53.1203 53.952 56.1263C54.1722 57.2655 54.3062 58.4335 54.3445 59.6015C54.3541 59.8408 54.3636 60.0801 54.3541 60.3195C54.3541 65.0104 52.8702 69.6153 50.0652 73.6648L46.006 73.6648C46.006 73.6648 45.9965 73.6552 45.9869 73.6648C45.9869 73.6648 45.9773 73.6744 45.9678 73.6648L41.9086 73.6648C38.9887 69.4046 37.5049 64.5509 37.6676 59.6015Z" fill="#012555"/>
</svg>
