<svg width="214" height="211" viewBox="0 0 214 211" fill="none" xmlns="http://www.w3.org/2000/svg">
<path d="M189.03 0H24.9698C11.0977 0 0 11.144 0 25.0745V127.974C0 141.719 11.0977 153.049 24.9698 153.049L124.849 153.235L182.371 211V153.049H189.03C202.718 153.049 214 141.905 214 127.974V25.0745C214 11.144 202.718 0 189.03 0ZM124.479 23.9606C131.692 23.9606 137.611 34.3621 137.611 46.9924C137.611 59.6222 131.692 70.0238 124.479 70.0238C117.265 70.0238 111.347 59.6222 111.347 46.9924C111.347 34.3621 117.265 23.9606 124.479 23.9606ZM71.3951 23.9606C78.6086 23.9606 84.5268 34.3621 84.5268 46.9924C84.5268 59.6222 78.6086 70.0238 71.3951 70.0238C63.9967 70.0238 58.2629 59.6222 58.2629 46.9924C58.2629 34.3621 64.1815 23.9606 71.3951 23.9606ZM159.621 91.5695C157.032 90.4552 154.627 88.7836 152.592 86.74C149.633 96.3991 144.269 105.314 137.056 112.372C128.548 120.545 117.635 126.117 106.168 128.346C94.5147 130.203 82.4922 128.903 71.7647 124.074C61.0368 119.43 51.7886 111.258 45.6848 101.414L46.6101 100.671C56.4131 107.729 65.8461 112.558 75.4639 115.159C85.0817 117.573 94.6995 117.758 103.948 116.272C113.196 114.601 122.074 111.072 130.212 105.314C137.611 99.9275 144.269 93.2407 150.373 84.5112C148.708 82.654 147.229 80.4244 146.304 78.0101C145.009 75.0381 144.269 71.8805 144.454 68.7234C146.489 71.1377 148.338 73.3669 150.188 75.5957C152.037 77.6385 153.887 79.6816 155.737 81.7248C157.771 83.7676 159.806 85.6252 161.84 87.4828C163.875 89.3404 166.095 91.1975 168.499 93.4263C165.17 93.6127 162.026 92.8699 159.621 91.5695Z" fill="white"/>
</svg>
