<svg width="23" height="23" viewBox="0 0 23 23" fill="none" xmlns="http://www.w3.org/2000/svg">
<path d="M13.4325 2.56214H11.6782V0.724986L13.4325 2.56214ZM14.2474 3.94346V17.7982C14.2483 18.1487 14.1102 18.4845 13.8624 18.7323C13.6146 18.9801 13.2788 19.1182 12.9283 19.1174H1.38045C1.02995 19.1182 0.694104 18.9801 0.446329 18.7323C0.198553 18.4845 0.0604214 18.1487 0.0612833 17.7982V1.31917C0.0604201 0.968673 0.198551 0.632825 0.446329 0.385049C0.694104 0.137274 1.02993 -0.000857933 1.38045 4.00976e-06H10.2969V3.25306C10.2978 3.6338 10.6068 3.94286 10.9876 3.94372L14.2474 3.94346ZM2.00896 5.02778C2.00983 5.40852 2.31889 5.71758 2.69962 5.71844H7.15432C7.53592 5.71844 7.84498 5.40938 7.84498 5.02778C7.84498 4.64619 7.53592 4.33712 7.15432 4.33712H2.69962C2.31889 4.33799 2.00983 4.64705 2.00896 5.02778ZM12.2997 16.2441C12.2988 15.8634 11.9898 15.5543 11.609 15.5534H2.69962C2.31803 15.5534 2.00896 15.8625 2.00896 16.2441C2.00896 16.6257 2.31803 16.9347 2.69962 16.9347H11.609C11.9898 16.9339 12.2988 16.6248 12.2997 16.2441ZM12.2997 13.4399C12.2988 13.0592 11.9898 12.7501 11.609 12.7492H2.69962C2.31803 12.7492 2.00896 13.0583 2.00896 13.4399C2.00896 13.8215 2.31803 14.1306 2.69962 14.1306H11.609C11.9898 14.1297 12.2988 13.8206 12.2997 13.4399ZM12.2997 10.6357C12.2988 10.255 11.9898 9.94592 11.609 9.94506H2.69962C2.31803 9.94506 2.00896 10.2541 2.00896 10.6357C2.00896 11.0173 2.31803 11.3264 2.69962 11.3264H11.609C11.9898 11.3255 12.2988 11.0165 12.2997 10.6357ZM12.2997 7.83153C12.2988 7.45079 11.9898 7.14173 11.609 7.14087H2.69962C2.31803 7.14087 2.00896 7.44993 2.00896 7.83153C2.00896 8.21313 2.31803 8.52219 2.69962 8.52219H11.609C11.9898 8.52132 12.2988 8.21226 12.2997 7.83153Z" fill="#012555"/>
<path d="M15.8237 22.5002C19.0327 22.5002 21.6341 19.8988 21.6341 16.6898C21.6341 13.4808 19.0327 10.8794 15.8237 10.8794C12.6147 10.8794 10.0133 13.4808 10.0133 16.6898C10.0133 19.8988 12.6147 22.5002 15.8237 22.5002Z" fill="#012555" stroke="white"/>
<path d="M13.8441 16.3176L14.8476 18.0145C15.8876 16.3906 17.0553 14.9675 18.1135 14.1464C18.3507 13.9275 18.7156 14.0552 18.4602 14.2924C17.2742 15.5148 16.362 16.9015 15.4314 19.0727C15.0665 19.3281 14.6469 19.4558 14.4462 19.2186L13.1325 16.865C12.9501 16.5731 13.5887 15.898 13.8441 16.3176Z" fill="white"/>
</svg>
