<svg width="32" height="35" viewBox="0 0 32 35" fill="none" xmlns="http://www.w3.org/2000/svg">
<path fill-rule="evenodd" clip-rule="evenodd" d="M22.9077 2.68772C23.2477 2.80845 23.581 2.94697 23.9065 3.10271C24.3004 3.29758 24.7347 3.39605 25.174 3.39003C25.6132 3.38402 26.0448 3.2737 26.4332 3.06813L26.5106 3.02867C26.7252 2.9165 26.9701 2.87641 27.2091 2.91433C27.4481 2.95225 27.6687 3.06617 27.8382 3.23927L28.3028 3.7048L28.7674 4.17033C28.9402 4.34014 29.0539 4.5611 29.0917 4.8006C29.1296 5.0401 29.0896 5.28544 28.9776 5.50042L28.9382 5.57756C28.733 5.96674 28.6229 6.39918 28.6171 6.8393C28.6112 7.27943 28.7098 7.71466 28.9046 8.10916C29.0598 8.43565 29.198 8.76995 29.3188 9.11072C29.4596 9.52727 29.6971 9.90438 30.0118 10.2111C30.3264 10.5178 30.7092 10.7452 31.1286 10.8749L31.2105 10.9015C31.4414 10.9741 31.6428 11.1192 31.7849 11.3154C31.9271 11.5116 32.0025 11.7484 31.9999 11.9908V13.3071C32.0024 13.5497 31.9269 13.7866 31.7846 13.9828C31.6423 14.179 31.4406 14.324 31.2096 14.3965L31.1278 14.4235C30.7083 14.5533 30.3255 14.7808 30.0109 15.0876C29.6963 15.3944 29.4588 15.7715 29.3179 16.1881C29.197 16.5287 29.0587 16.8628 28.9037 17.1892C28.7091 17.5838 28.6106 18.019 28.6166 18.4591C28.6225 18.8993 28.7326 19.3317 28.9378 19.7208L28.9767 19.798C29.0887 20.0129 29.1288 20.2582 29.0911 20.4977C29.0533 20.7372 28.9397 20.9582 28.767 21.1281L28.3015 21.5923L27.8368 22.0578C27.6673 22.2309 27.4468 22.3448 27.2078 22.3827C26.9687 22.4207 26.7239 22.3806 26.5093 22.2684L26.4319 22.2285C26.0434 22.0229 25.6118 21.9127 25.1725 21.9069C24.7332 21.9011 24.2989 22 23.9051 22.1952C23.5796 22.3508 23.246 22.4892 22.906 22.6098C22.4902 22.7511 22.1139 22.9892 21.8078 23.3045C21.5017 23.6198 21.2747 24.0033 21.1452 24.4236L21.1182 24.5056C21.0459 24.7369 20.9011 24.9388 20.7054 25.0813C20.5097 25.2238 20.2734 25.2994 20.0314 25.297H18.7194C18.4773 25.2994 18.2409 25.2238 18.0451 25.0812C17.8493 24.9386 17.7045 24.7366 17.6322 24.5052L17.6052 24.4223C17.4756 24.002 17.2485 23.6186 16.9423 23.3035C16.6361 22.9883 16.2597 22.7504 15.844 22.6093C15.5043 22.488 15.171 22.3497 14.8452 22.1948C14.4516 21.9995 14.0173 21.9007 13.5781 21.9065C13.1389 21.9123 12.7073 22.0225 12.319 22.2281L12.2411 22.268C12.0265 22.3801 11.7817 22.4202 11.5426 22.3823C11.3036 22.3444 11.083 22.2305 10.9136 22.0574L10.4489 21.5918L9.98474 21.1267C9.81192 20.957 9.69817 20.736 9.66033 20.4965C9.62247 20.257 9.66252 20.0116 9.77455 19.7966L9.81349 19.7195C10.0187 19.3307 10.1289 18.8986 10.1351 18.4589C10.1412 18.0191 10.0432 17.5841 9.84889 17.1897C9.69378 16.8632 9.55554 16.5289 9.43471 16.1881C9.29379 15.7716 9.05627 15.3945 8.74164 15.0879C8.42702 14.7812 8.04428 14.5537 7.62485 14.424L7.54343 14.3969C7.31188 14.3248 7.10974 14.1798 6.96704 13.9833C6.82434 13.7869 6.74869 13.5496 6.75134 13.3067V11.9904C6.74881 11.7479 6.82425 11.511 6.96651 11.3148C7.10876 11.1186 7.31027 10.9736 7.54121 10.901L7.62308 10.8744C8.04246 10.7446 8.42515 10.5171 8.73976 10.2104C9.05437 9.90377 9.29192 9.52674 9.43293 9.11028C9.55369 8.7695 9.69194 8.4352 9.84712 8.10872C10.0419 7.71418 10.1403 7.27897 10.1345 6.83886C10.1286 6.39876 10.0186 5.96633 9.81349 5.57712L9.77411 5.50042C9.66208 5.28546 9.62203 5.0401 9.65988 4.80058C9.69773 4.56107 9.81147 4.3401 9.9843 4.17033L10.4485 3.7048L10.9131 3.23927C11.0826 3.06617 11.3031 2.95225 11.5422 2.91433C11.7812 2.87641 12.0261 2.9165 12.2406 3.02867L12.3185 3.06902C12.707 3.27424 13.1385 3.38429 13.5776 3.39015C14.0168 3.396 14.451 3.2975 14.8448 3.10271C15.1704 2.94704 15.5039 2.80852 15.844 2.68772C16.2598 2.54643 16.6362 2.30836 16.9423 1.99306C17.2485 1.67777 17.4756 1.29423 17.6052 0.873928L17.6322 0.791463C17.7045 0.560106 17.8492 0.358222 18.0449 0.21569C18.2407 0.0731578 18.477 -0.00244855 18.719 6.04886e-05H20.0328C20.2747 -0.00223621 20.5109 0.0734522 20.7066 0.215954C20.9023 0.358455 21.0471 0.560219 21.1196 0.791463L21.1466 0.873928C21.2761 1.29425 21.5032 1.6778 21.8094 1.9931C22.1155 2.3084 22.4919 2.54646 22.9077 2.68772ZM24.0428 14.2431C23.668 14.2729 23.2913 14.2209 22.9385 14.0908C22.5857 13.9607 22.2653 13.7555 21.9993 13.4894L19.3761 10.8593L16.752 13.488C16.486 13.7542 16.1656 13.9594 15.8128 14.0895C15.46 14.2196 15.0833 14.2715 14.7085 14.2418V17.6242C14.7089 17.8079 14.7818 17.984 14.9114 18.1139C15.0411 18.2439 15.2168 18.3171 15.4002 18.3176H17.1441V14.5096C17.1449 14.2051 17.2659 13.9132 17.4807 13.6978C17.6956 13.4825 17.9867 13.361 18.2906 13.3599H20.4589C20.7629 13.3608 21.0541 13.4823 21.2691 13.6977C21.484 13.9131 21.6051 14.205 21.6059 14.5096V18.3189H23.3494C23.5328 18.3186 23.7085 18.2454 23.8382 18.1154C23.9678 17.9854 24.0408 17.8093 24.041 17.6255V14.2431H24.0428ZM20.5912 18.3189V14.5096C20.5909 14.4748 20.5771 14.4416 20.5527 14.4169C20.5281 14.3927 20.4951 14.379 20.4607 14.3788H18.2924C18.258 14.3788 18.2251 14.3925 18.2008 14.4169C18.1762 14.4415 18.1622 14.4747 18.1618 14.5096V18.3189H20.5912ZM19.3761 9.41974L22.7179 12.768C23.0206 13.0452 23.4184 13.1947 23.8283 13.1854C24.2383 13.1761 24.6289 13.0088 24.9189 12.7183C25.2089 12.4278 25.3758 12.0364 25.3851 11.6257C25.3943 11.2149 25.2451 10.8164 24.9685 10.5131L20.5014 6.03511C20.2022 5.73746 19.7977 5.57041 19.3761 5.57041C18.9545 5.57041 18.55 5.73746 18.2508 6.03511L13.7815 10.5131C13.5038 10.8163 13.3537 11.2152 13.3625 11.6266C13.3714 12.0379 13.5384 12.43 13.8289 12.7209C14.1193 13.0119 14.5107 13.1792 14.9212 13.188C15.3318 13.1967 15.73 13.0463 16.0325 12.768L19.3748 9.41974H19.3761ZM15.7785 26.8106C15.6482 26.8113 15.5222 26.764 15.4245 26.6776C14.2398 25.85 12.7954 25.482 11.3601 25.6419C9.81394 25.7242 8.33988 26.323 7.17305 27.3427L0 35L9.39311 34.9836L10.6016 33.8663C10.7736 33.706 10.976 33.582 11.1968 33.5014C11.4104 33.424 11.636 33.3851 11.8632 33.3866H23.883L31.438 25.5484C31.7158 25.2667 31.8851 24.8956 31.9159 24.5007C31.9286 24.3408 31.9069 24.18 31.8521 24.0293C31.7972 23.8786 31.7106 23.7415 31.5981 23.6273C31.3339 23.3564 30.9796 23.192 30.6025 23.1653C30.433 23.1537 30.2629 23.1763 30.1024 23.2319C29.9418 23.2875 29.7941 23.375 29.6679 23.489L24.8941 27.8246C24.9421 28.1674 24.9161 28.5165 24.8181 28.8483C24.72 29.1802 24.5521 29.4872 24.3257 29.7486C24.0993 30.01 23.8196 30.2197 23.5055 30.3637C23.1913 30.5077 22.8501 30.5825 22.5046 30.5832H14.6474C14.5128 30.5745 14.3866 30.5148 14.2943 30.4162C14.202 30.3176 14.1507 30.1875 14.1507 30.0523C14.1507 29.9171 14.202 29.787 14.2943 29.6884C14.3866 29.5898 14.5128 29.5301 14.6474 29.5214H22.5046C22.8635 29.5214 23.2077 29.3785 23.4615 29.1243C23.7152 28.87 23.8578 28.5251 23.8578 28.1656C23.8578 27.806 23.7152 27.4611 23.4615 27.2069C23.2077 26.9526 22.8635 26.8098 22.5046 26.8098L15.7785 26.8106ZM19.3761 4.16191C17.7005 4.16182 16.0626 4.65956 14.6694 5.59219C13.2762 6.52482 12.1904 7.85045 11.5492 9.40142C10.9079 10.9524 10.7402 12.6591 11.0671 14.3056C11.3939 15.9521 12.2008 17.4645 13.3856 18.6515C14.5704 19.8386 16.08 20.6469 17.7233 20.9744C19.3667 21.3018 21.07 21.1336 22.618 20.4911C24.166 19.8485 25.489 18.7605 26.4197 17.3646C27.3505 15.9686 27.8472 14.3275 27.847 12.6488C27.8471 11.5342 27.628 10.4304 27.2023 9.40067C26.7766 8.3709 26.1527 7.43521 25.3661 6.64705C24.5795 5.85888 23.6456 5.23367 22.6179 4.80712C21.5901 4.38056 20.4885 4.16102 19.3761 4.16102V4.16191Z" fill="#06498B"/>
</svg>
