<svg width="40" height="38" viewBox="0 0 40 38" fill="none" xmlns="http://www.w3.org/2000/svg">
<path d="M33.6802 4.9056L24.5293 9.75251L21.4529 23.5596C21.3408 24.0777 21.0543 24.5415 20.6412 24.8736C20.2281 25.2057 19.7135 25.3858 19.1835 25.3839H16.8603C16.5327 25.3833 16.2089 25.3135 15.9101 25.1792C15.6112 25.0448 15.3442 24.8489 15.1263 24.6042C14.9084 24.3595 14.7446 24.0716 14.6456 23.7593C14.5466 23.447 14.5146 23.1173 14.5518 22.7917L15.53 14.5505L6.67249 19.2458C6.02762 19.5693 5.28558 19.6417 4.59034 19.449C3.8951 19.2563 3.29623 18.8122 2.90992 18.2029C2.52362 17.5935 2.37742 16.8624 2.49969 16.1514C2.62196 15.4404 3.00398 14.8002 3.57164 14.3549L1.12617 13.2887C0.876975 13.1803 0.654339 13.019 0.473712 12.816C0.293085 12.6129 0.158793 12.3731 0.080153 12.1129C0.00151316 11.8528 -0.0195915 11.5787 0.0183036 11.3096C0.0561987 11.0405 0.152186 10.7829 0.299606 10.5546L1.17508 9.19495C1.3937 8.84892 1.71936 8.58377 2.10253 8.43987C2.4857 8.29596 2.9054 8.28116 3.29775 8.39773L8.47725 10.0753L26.6226 1.27163C27.6743 0.765896 28.8598 0.608289 30.0071 0.821667L33.1227 1.40369C33.5061 1.47276 33.8585 1.65935 34.1311 1.9376C34.4038 2.21586 34.5832 2.57202 34.6444 2.95674C34.7057 3.34146 34.6458 3.73571 34.473 4.08489C34.3003 4.43406 34.0232 4.72087 33.6802 4.9056ZM35.5486 9.61068C35.3709 9.42129 35.1252 9.31026 34.8656 9.302C34.606 9.29375 34.3538 9.38895 34.1644 9.56666C33.9751 9.74437 33.864 9.99003 33.8558 10.2496C33.8475 10.5092 33.9427 10.7614 34.1204 10.9508C35.8675 12.8169 37.091 15.1112 37.6672 17.6017C38.2435 20.0922 38.1521 22.6907 37.4022 25.1345C35.4948 23.8922 35.4997 22.4494 35.5094 21.0457C35.5094 19.8278 35.5339 18.1551 33.6362 17.5878C31.2935 16.8835 30.7017 18.566 30.4327 19.2605C30.1637 19.955 30.1343 20.0871 29.3175 19.9061C28.9716 19.7973 28.6065 19.7632 28.2465 19.8062C27.8864 19.8492 27.5396 19.9683 27.2291 20.1555C26.427 20.7131 26.29 21.7108 26.1482 22.7624C25.9574 24.1514 25.7227 25.873 24.1429 27.5408C22.8811 28.8663 22.8468 30.1184 23.0425 30.9303C23.4582 32.7106 25.3412 34.0898 26.9552 34.9653C23.221 35.8726 19.2793 35.2616 15.9949 33.2664C12.7106 31.2712 10.3517 28.0548 9.43587 24.3226C9.40536 24.1977 9.35055 24.08 9.27456 23.9763C9.19856 23.8725 9.10288 23.7848 8.99297 23.718C8.88306 23.6512 8.76108 23.6068 8.63399 23.5871C8.5069 23.5675 8.37719 23.5731 8.25227 23.6036C8.12734 23.6342 8.00965 23.689 7.90591 23.765C7.80217 23.841 7.71441 23.9366 7.64765 24.0465C7.58089 24.1565 7.53643 24.2784 7.51681 24.4055C7.49719 24.5326 7.50279 24.6623 7.5333 24.7872C8.13013 27.2346 9.28047 29.5125 10.8958 31.4455C12.5112 33.3785 14.5484 34.9151 16.8509 35.9372C19.1533 36.9592 21.6596 37.4394 24.1767 37.3408C26.6939 37.2422 29.1549 36.5675 31.3703 35.3685C33.5858 34.1695 35.4966 32.4782 36.9558 30.4248C38.415 28.3713 39.3837 26.0105 39.7873 23.524C40.1909 21.0374 40.0186 18.4914 39.2838 16.0819C38.5489 13.6723 37.2711 11.4635 35.5486 9.62535V9.61068ZM6.17362 5.16971L9.56304 7.37552L18.1613 3.21333L9.22556 0.127154C8.8364 -0.00702791 8.41861 -0.0356241 8.01479 0.0442805C7.61097 0.124185 7.23556 0.309733 6.92682 0.582011L5.89973 1.48194C5.63166 1.71919 5.42205 2.01518 5.28724 2.3468C5.15244 2.67843 5.0961 3.03672 5.12261 3.39371C5.14913 3.75071 5.25778 4.09674 5.44009 4.40481C5.62241 4.71289 5.87345 4.97466 6.17362 5.16971Z" fill="#06498B"/>
</svg>
