<svg width="500" height="500" viewBox="0 0 500 500" fill="none" xmlns="http://www.w3.org/2000/svg">
<g opacity="0.4">
<path d="M28.5658 212.919C39.4098 230.769 58.6398 241.402 76.3858 252.418C94.1308 263.433 112.292 277.068 118.292 297.073C126.919 325.835 107.455 357.836 117.299 386.205C125.86 410.879 155.184 423.757 181.086 420.417C206.988 417.077 229.529 401.006 248.224 382.769C266.92 364.533 283.029 343.632 303.049 326.861C331.911 302.683 367.429 288.25 401.389 271.993C426.375 260.032 451.885 245.942 466.897 222.661C478.409 204.808 482.593 182.111 477.002 161.617C471.411 141.123 455.768 123.362 435.716 116.347C404.64 105.475 370.9 120.597 342.334 136.965C313.768 153.333 283.307 172.012 250.579 168.43C217.799 164.843 191.775 139.787 161.027 127.872C127.399 114.841 86.3148 120.789 52.5558 131.673C20.8148 141.905 12.3868 186.288 28.5658 212.919Z" fill="#969696"/>
<path d="M403.721 96.105C415.025 97.703 426.328 99.302 437.632 100.9C441.358 101.427 445.312 101.926 448.758 100.413C455.151 97.607 456.904 88.712 454.035 82.348C451.166 75.983 445.074 71.73 439.003 68.282C431.078 63.781 422.564 60.05 413.537 58.792C404.51 57.534 394.886 58.936 387.31 64.002C381.647 67.789 372.388 78.77 376.046 86.213C379.666 93.575 396.87 95.136 403.721 96.105Z" fill="#969696"/>
</g>
<path d="M116.64 103.718C116.638 103.718 116.637 103.719 116.635 103.719L116.405 103.769L116.232 102.995L116.454 102.947C116.456 102.947 116.459 102.946 116.459 102.946C118.205 102.556 119.905 101.985 121.512 101.246L121.858 101.962C120.198 102.725 118.443 103.316 116.64 103.718ZM110.678 104.351C108.755 104.333 106.832 104.101 104.961 103.66L105.151 102.89C106.962 103.317 108.824 103.542 110.686 103.559L110.678 104.351ZM126.756 99.004L126.254 98.382C127.713 97.26 129.046 95.972 130.215 94.553L130.848 95.05C129.639 96.515 128.262 97.846 126.756 99.004ZM99.5486 101.733C97.8276 100.896 96.2016 99.868 94.7146 98.678L95.2286 98.066C96.6686 99.218 98.2426 100.214 99.9096 101.025L99.5486 101.733ZM133.932 90.304L133.202 89.957C134.019 88.32 134.646 86.594 135.065 84.825L135.856 85.003C135.423 86.83 134.775 88.614 133.932 90.304ZM90.7016 94.647C89.5246 93.161 88.5206 91.543 87.7176 89.838L88.4546 89.507C89.2316 91.158 90.2036 92.724 91.3426 94.162L90.7016 94.647ZM136.511 79.416H135.7C135.7 77.607 135.489 75.788 135.073 74.007L135.864 73.831C136.293 75.669 136.511 77.548 136.511 79.416ZM86.7106 84.337L85.9166 84.5C85.5206 82.656 85.3376 80.774 85.3736 78.904L86.1846 78.919C86.1506 80.729 86.3276 82.552 86.7106 84.337ZM133.611 69.678C132.865 68.013 131.923 66.43 130.811 64.971L131.462 64.498C132.61 66.005 133.583 67.641 134.354 69.36L133.611 69.678ZM86.9226 73.522L86.1356 73.329C86.6036 71.51 87.2846 69.739 88.1586 68.064L88.8816 68.424C88.0346 70.046 87.3756 71.761 86.9226 73.522ZM127 61C125.582 59.822 124.026 58.799 122.375 57.958L122.75 57.255C124.455 58.123 126.062 59.18 127.526 60.396L127 61ZM91.9546 63.882L91.3316 63.374C92.5656 61.932 93.9666 60.627 95.4966 59.494L95.9876 60.125C94.5066 61.222 93.1496 62.486 91.9546 63.882ZM117.172 55.998C115.369 55.539 113.511 55.28 111.651 55.229L111.674 54.437C113.595 54.49 115.514 54.757 117.377 55.231L117.172 55.998ZM100.783 57.348L100.45 56.625C101.98 55.955 103.591 55.429 105.24 55.061C105.477 55.008 105.704 54.961 105.936 54.915L106.095 55.692C105.87 55.735 105.629 55.772 105.421 55.833C103.824 56.19 102.264 56.7 100.783 57.348Z" fill="#2E363D"/>
<path d="M144.961 86.024C145.91 90.076 143.313 94.112 139.162 95.038C135.011 95.964 130.877 93.429 129.928 89.377C128.979 85.325 131.576 81.289 135.727 80.363C139.878 79.437 144.012 81.971 144.961 86.024Z" fill="#2E363D"/>
<path d="M399.928 132.301C399.928 135.364 397.384 137.847 394.247 137.847C391.11 137.847 388.566 135.364 388.566 132.301C388.566 129.238 391.109 126.755 394.247 126.755C397.385 126.755 399.928 129.238 399.928 132.301Z" fill="#2E363D"/>
<path d="M212.588 122.111C215.95 122.111 218.675 119.451 218.675 116.169C218.675 112.887 215.95 110.227 212.588 110.227C209.226 110.227 206.501 112.887 206.501 116.169C206.501 119.451 209.226 122.111 212.588 122.111Z" fill="#2E363D"/>
<path d="M223.545 134.391C223.063 134.391 222.579 134.36 222.106 134.3L222.211 133.515C224.015 133.746 225.882 133.499 227.557 132.795L227.878 133.522C226.507 134.099 225.049 134.391 223.545 134.391ZM216.74 132.079C215.188 130.877 213.998 129.29 213.298 127.49L214.056 127.209C214.704 128.875 215.807 130.345 217.245 131.458L216.74 132.079ZM232.423 129.964L231.766 129.499C232.84 128.051 233.492 126.345 233.651 124.565L234.459 124.634C234.288 126.556 233.584 128.399 232.423 129.964ZM213.4 123.696H212.588C212.588 121.761 213.123 119.864 214.136 118.212L214.833 118.619C213.895 120.148 213.4 121.903 213.4 123.696ZM232.68 119.384C231.883 117.777 230.653 116.407 229.123 115.422L229.57 114.761C231.221 115.825 232.549 117.304 233.411 119.039L232.68 119.384ZM218.731 114.976L218.345 114.279C220.072 113.368 222.075 112.926 224.025 113.01L223.989 113.801C222.188 113.726 220.33 114.133 218.731 114.976Z" fill="#2E363D"/>
<path d="M406.701 153.521C404.736 153.378 402.859 152.849 401.122 151.949L401.502 151.25C403.139 152.098 404.908 152.596 406.761 152.731L406.701 153.521ZM412.458 152.788L412.19 152.041C413.937 151.445 415.514 150.518 416.878 149.283L417.43 149.863C415.983 151.173 414.31 152.157 412.458 152.788ZM396.657 148.326C395.429 146.82 394.55 145.116 394.045 143.263L394.83 143.06C395.305 144.806 396.134 146.412 397.292 147.832L396.657 148.326ZM420.793 145.243L420.05 144.926C420.79 143.274 421.165 141.515 421.165 139.695H421.977C421.976 141.625 421.578 143.491 420.793 145.243ZM421.086 138.27C420.885 136.469 420.316 134.761 419.392 133.191L420.096 132.797C421.076 134.463 421.681 136.275 421.894 138.186L421.086 138.27ZM394.533 137.725L393.731 137.607C394.024 135.708 394.707 133.922 395.76 132.295L396.446 132.719C395.454 134.251 394.81 135.936 394.533 137.725ZM415.755 129.197C414.263 128.114 412.591 127.36 410.786 126.955L410.968 126.183C412.882 126.613 414.656 127.413 416.238 128.561L415.755 129.197ZM400.253 128.877L399.797 128.223C401.427 127.14 403.234 126.414 405.166 126.064L405.314 126.842C403.492 127.173 401.79 127.857 400.253 128.877Z" fill="#2E363D"/>
<path d="M261.769 375.767H184.684V402.147C210.107 396.353 235.91 391.549 261.769 387.089V375.767Z" fill="#969696" stroke="#121D30" stroke-width="0.75" stroke-miterlimit="10"/>
<path d="M184.683 402.147V429.458H261.768V387.088C235.909 391.549 210.106 396.353 184.683 402.147Z" stroke="#121D30" stroke-width="0.75" stroke-miterlimit="10"/>
<path d="M315.513 443.264H130.939C129.691 443.264 129.41 441.513 130.596 441.123L184.684 423.322H261.769L315.857 441.123C317.042 441.513 316.761 443.264 315.513 443.264Z" fill="#5C5C5C" stroke="#121D30" stroke-width="0.75" stroke-miterlimit="10"/>
<path d="M253.025 423.322H259.942" stroke="#121D30" stroke-width="0.75" stroke-miterlimit="10"/>
<path d="M184.683 423.322H245.913" stroke="#121D30" stroke-width="0.75" stroke-miterlimit="10"/>
<path d="M374.557 381.693H71.8006C64.5796 381.693 58.7256 375.839 58.7256 368.618V168.654C58.7256 161.433 64.5796 155.579 71.8006 155.579H374.557C381.778 155.579 387.632 161.433 387.632 168.654V368.618C387.632 375.839 381.778 381.693 374.557 381.693Z" fill="#DEDEDE" stroke="#121D30" stroke-width="0.75" stroke-miterlimit="10"/>
<path d="M58.7256 358.442V368.618C58.7256 375.839 64.5796 381.693 71.8006 381.693H374.557C381.778 381.693 387.632 375.839 387.632 368.618V358.442H58.7256Z" fill="#5C5C5C" stroke="#121D30" stroke-width="0.75" stroke-miterlimit="10"/>
<path d="M70.415 346.16V167.855C70.415 166.723 71.333 165.805 72.465 165.805H373.892C375.024 165.805 375.942 166.723 375.942 167.855V346.16C375.942 347.292 375.024 348.21 373.892 348.21H72.465C71.333 348.21 70.415 347.293 70.415 346.16Z" fill="white" stroke="#121D30" stroke-width="0.75" stroke-miterlimit="10"/>
<path d="M228.548 368.388C228.548 371.353 226.144 373.757 223.179 373.757C220.214 373.757 217.81 371.353 217.81 368.388C217.81 365.423 220.214 363.019 223.179 363.019C226.144 363.018 228.548 365.422 228.548 368.388Z" stroke="#121D30" stroke-width="0.75" stroke-miterlimit="10"/>
<path d="M251.596 196.24L256.533 205.719H307.341C308.801 205.719 309.984 206.902 309.984 208.362V275.088C309.984 276.548 308.801 277.731 307.341 277.731H209.895C208.435 277.731 207.252 276.548 207.252 275.088V210.674V205.719V197.461C207.252 196.002 208.435 194.818 209.895 194.818H249.252C250.237 194.818 251.141 195.366 251.596 196.24Z" fill="#F9633B"/>
<path d="M277.03 247.018C279.452 236.845 273.168 226.635 262.995 224.213C252.822 221.791 242.612 228.074 240.19 238.247C237.768 248.42 244.052 258.631 254.225 261.053C264.398 263.475 274.608 257.191 277.03 247.018Z" fill="#002347"/>
<path d="M266.69 249.68L259.648 242.638L266.69 235.596C266.973 235.313 266.973 234.849 266.69 234.566C266.407 234.283 265.943 234.283 265.66 234.566L258.618 241.608L251.576 234.566C251.293 234.283 250.829 234.283 250.546 234.566C250.263 234.849 250.263 235.313 250.546 235.596L257.588 242.638L250.546 249.68C250.263 249.963 250.263 250.427 250.546 250.71C250.829 250.993 251.293 250.993 251.576 250.71L258.618 243.668L265.66 250.71C265.943 250.993 266.407 250.993 266.69 250.71C266.973 250.427 266.973 249.964 266.69 249.68Z" fill="white"/>
<path d="M135.733 196.24L140.67 205.719H191.478C192.938 205.719 194.121 206.902 194.121 208.362V275.088C194.121 276.548 192.938 277.731 191.478 277.731H94.0317C92.5717 277.731 91.3887 276.548 91.3887 275.088V210.674V205.719V197.461C91.3887 196.002 92.5717 194.818 94.0317 194.818H133.389C134.375 194.818 135.278 195.366 135.733 196.24Z" fill="#969696"/>
<path d="M161.171 247.017C163.593 236.844 157.309 226.634 147.136 224.212C136.963 221.79 126.753 228.073 124.331 238.246C121.909 248.419 128.192 258.63 138.365 261.052C148.538 263.474 158.749 257.19 161.171 247.017Z" fill="#002347"/>
<path d="M150.827 249.68L143.785 242.638L150.827 235.596C151.11 235.313 151.11 234.849 150.827 234.566C150.544 234.283 150.08 234.283 149.797 234.566L142.755 241.608L135.713 234.566C135.43 234.283 134.966 234.283 134.683 234.566C134.4 234.849 134.4 235.313 134.683 235.596L141.725 242.638L134.683 249.68C134.4 249.963 134.4 250.427 134.683 250.71C134.966 250.993 135.43 250.993 135.713 250.71L142.755 243.668L149.797 250.71C150.08 250.993 150.544 250.993 150.827 250.71C151.11 250.427 151.111 249.964 150.827 249.68Z" fill="white"/>
<path d="M208.174 375.016H362.192L378.455 203.796H224.436L208.174 375.016Z" fill="#DEDEDE"/>
<path d="M205.389 374.462H359.408L373.17 198.757H219.151L205.389 374.462Z" fill="#5C5C5C"/>
<path d="M202.489 368.792H358.805L370.269 193.087H234.002L202.489 368.792Z" fill="#969696"/>
<path d="M232.628 189.239H206.183V207.792V213.615V374.852H360.202V189.239H232.628Z" fill="#EAEAEA"/>
<path d="M344.096 187.554C344.021 189.07 344.806 190.34 345.849 190.391C346.892 190.444 347.798 189.255 347.872 187.738C347.945 186.222 347.16 184.951 346.118 184.9C345.075 184.85 344.17 186.038 344.096 187.554Z" fill="#002347"/>
<path opacity="0.53" d="M340.484 188.056C341.036 189.713 342.406 190.75 343.545 190.371C344.686 189.992 345.164 188.341 344.613 186.685C344.062 185.027 342.693 183.991 341.553 184.369C340.412 184.748 339.934 186.399 340.484 188.056Z" fill="#002347"/>
<path d="M337.585 190.92C336.751 193.202 338.526 195.948 341.549 197.051C344.571 198.154 347.696 197.197 348.53 194.913C349.364 192.63 347.588 189.885 344.566 188.782C341.543 187.678 338.417 188.636 337.585 190.92Z" fill="#121D30"/>
<path d="M334.393 190.55C318.852 188.17 296.022 198.721 298.168 217.823C299.699 231.446 318.255 237.603 324.065 224.237C331.931 206.14 307.528 202.539 295.743 203.366C282.206 204.316 273.335 204.705 257.854 222.526C251.518 229.82 249.93 257.876 265.639 259.779" stroke="#121D30" stroke-width="0.75" stroke-miterlimit="10" stroke-dasharray="5.52 5.52"/>
<path d="M160.753 191.989C155.475 199.75 164.718 209.805 171.754 212.753C188.002 219.564 198.859 202.926 214.432 204.512C227.804 205.873 236.094 214.894 229.009 229.881C224.618 239.167 203.414 241.843 204.152 228.49" stroke="#121D30" stroke-width="0.75" stroke-miterlimit="10" stroke-dasharray="5.52 5.52"/>
<path d="M160.077 180.625C159.34 181.952 158.002 182.615 157.089 182.107C156.176 181.601 156.034 180.112 156.773 178.786C157.512 177.46 158.85 176.796 159.761 177.303C160.675 177.812 160.816 179.298 160.077 180.625Z" fill="#002347"/>
<path opacity="0.53" d="M162.879 182.96C161.535 184.075 159.824 184.231 159.057 183.308C158.289 182.384 158.755 180.729 160.098 179.614C161.441 178.498 163.152 178.342 163.92 179.265C164.689 180.189 164.222 181.843 162.879 182.96Z" fill="#002347"/>
<path d="M163.828 186.923C163.33 189.301 160.372 190.694 157.223 190.033C154.074 189.372 151.927 186.909 152.426 184.529C152.924 182.15 155.883 180.758 159.031 181.419C162.18 182.079 164.328 184.544 163.828 186.923Z" fill="#121D30"/>
<path d="M381.656 432.113H369.454L374.424 394.368H386.626L381.656 432.113Z" fill="#D28A7B"/>
<path d="M382.818 432.056H369.077L371.277 414.096L384.89 415.138L382.818 432.056Z" fill="white"/>
<path d="M383.891 443.264H352.717L353.532 440.481C353.801 439.573 354.201 438.73 354.712 437.968C355.796 436.347 357.383 435.099 359.27 434.434L360.114 434.137C360.942 433.845 361.719 433.461 362.439 432.997C363.059 432.597 363.633 432.143 364.152 431.63C365.284 430.528 366.177 429.177 366.75 427.653H384.267L383.976 437.968L383.891 443.264Z" fill="#002347"/>
<path d="M371.917 429.413H365.758" stroke="#121D30" stroke-width="0.75" stroke-miterlimit="10"/>
<path d="M370.328 431.558H364.17" stroke="#121D30" stroke-width="0.75" stroke-miterlimit="10"/>
<path d="M378.04 435.765C378.053 436.185 377.723 436.525 377.304 436.525C376.885 436.525 376.533 436.185 376.52 435.765C376.507 435.345 376.836 435.005 377.256 435.005C377.676 435.005 378.027 435.345 378.04 435.765Z" stroke="#121D30" stroke-width="0.75" stroke-miterlimit="10"/>
<path d="M374.321 435.765C374.334 436.185 374.005 436.525 373.585 436.525C373.165 436.525 372.814 436.185 372.801 435.765C372.788 435.345 373.117 435.005 373.537 435.005C373.956 435.005 374.307 435.345 374.321 435.765Z" stroke="#121D30" stroke-width="0.75" stroke-miterlimit="10"/>
<path d="M383.891 443.264H352.717L353.532 440.481C353.801 439.573 354.201 438.73 354.712 437.968H383.977L383.891 443.264Z" fill="#DEDEDE"/>
<path d="M384.059 440.617H364.454" stroke="#121D30" stroke-width="0.75" stroke-miterlimit="10"/>
<path d="M370.212 443.264H352.716L353.531 440.481C353.8 439.573 354.2 438.73 354.711 437.968C355.795 436.347 357.382 435.099 359.269 434.434L360.113 434.137C360.941 433.845 361.718 433.461 362.438 432.997C366.496 434.873 369.518 438.704 370.212 443.264Z" fill="#DEDEDE"/>
<path d="M366.75 427.654L366.35 426.103C366.068 425.011 366.866 423.972 367.986 423.972H369.547C370.78 423.972 371.948 424.598 372.649 425.635L374.013 427.654H366.75Z" fill="#002347"/>
<path d="M368.757 314.925L352.741 307.952C351.956 309.756 352.781 311.855 354.585 312.64L356.815 313.611L358.316 317.258C358.823 329.542 369.421 323.171 369.421 323.171L368.757 314.925Z" fill="#D28A7B"/>
<path d="M358.95 312.541L361.912 324.06C355.457 324.518 350.952 325.127 350.952 325.127C348.39 323.256 346.955 320.385 346.169 318.041L353.827 316.473C350.623 315.913 347.358 316.335 345.748 316.627C345.355 315.131 345.256 314.087 345.256 314.087C352.938 312.494 358.95 312.541 358.95 312.541Z" fill="#D28A7B"/>
<path d="M364.381 322.517C357.651 321.789 358.678 314.798 358.678 314.798L354.586 312.642" stroke="#121D30" stroke-width="0.75" stroke-miterlimit="10"/>
<path d="M346.991 320.121C352.844 319.472 355.624 319.111 355.624 319.111" stroke="#121D30" stroke-width="0.75" stroke-miterlimit="10"/>
<path d="M348.734 322.75L356.418 321.648" stroke="#121D30" stroke-width="0.75" stroke-miterlimit="10"/>
<path d="M388.318 410.134L397.195 318.834H401.669" stroke="white" stroke-width="0.75" stroke-miterlimit="10"/>
<path d="M384.89 418.05L370.932 416.913" stroke="#121D30" stroke-width="0.75" stroke-miterlimit="10"/>
<path d="M272.713 270.155L283.2 290.291H391.132C394.232 290.291 396.746 292.804 396.746 295.905V437.651C396.746 440.751 394.233 443.265 391.132 443.265H184.127C181.027 443.265 178.513 440.752 178.513 437.651V300.816V290.29V272.747C178.513 269.647 181.026 267.134 184.127 267.134H267.734C269.827 267.134 271.746 268.298 272.713 270.155Z" fill="#F9633B"/>
<path d="M188.342 295.291C201.267 295.291 211.744 284.814 211.744 271.889C211.744 258.964 201.267 248.487 188.342 248.487C175.418 248.487 164.94 258.964 164.94 271.889C164.94 284.814 175.418 295.291 188.342 295.291Z" fill="#002347"/>
<path d="M198.318 280.592L189.615 271.889L198.318 263.186C198.668 262.836 198.668 262.263 198.318 261.913C197.968 261.563 197.395 261.563 197.045 261.913L188.342 270.616L179.639 261.913C179.289 261.563 178.716 261.563 178.366 261.913C178.016 262.263 178.016 262.836 178.366 263.186L187.069 271.889L178.366 280.592C178.016 280.942 178.016 281.515 178.366 281.865C178.716 282.215 179.289 282.215 179.639 281.865L188.342 273.162L197.045 281.865C197.395 282.215 197.968 282.215 198.318 281.865C198.668 281.515 198.668 280.942 198.318 280.592Z" fill="white"/>
<path d="M253.39 409.891C279.579 374.472 312.592 389.007 320.964 409.891" stroke="#002347" stroke-width="3" stroke-miterlimit="10"/>
<path d="M238.674 352.494C243.775 352.494 247.911 345 247.911 335.755C247.911 326.51 243.775 319.016 238.674 319.016C233.572 319.016 229.437 326.51 229.437 335.755C229.437 345 233.572 352.494 238.674 352.494Z" fill="#002347"/>
<path d="M344.916 335.755C344.916 344.999 340.78 352.494 335.679 352.494C330.577 352.494 326.442 345 326.442 335.755C326.442 331.719 327.23 328.017 328.543 325.126C330.237 321.395 332.805 319.017 335.679 319.017C340.781 319.016 344.916 326.51 344.916 335.755Z" fill="#002347"/>
<path d="M332.198 313.28C339.358 305.389 345.129 305.209 346.99 317.534L332.198 313.28Z" fill="#002347"/>
<path d="M238.936 300.687C231.776 292.796 226.005 292.616 224.144 304.941L238.936 300.687Z" fill="#002347"/>
<path d="M58.0762 443.264H441.923" stroke="#121D30" stroke-miterlimit="10"/>
</svg>
