<svg width="11" height="14" viewBox="0 0 11 14" fill="none" xmlns="http://www.w3.org/2000/svg">
<path d="M1.67018 8.09149C1.85688 8.16604 2.02339 8.09646 2.0789 7.89269C2.11422 7.75352 2.20504 7.39567 2.24541 7.24657C2.30092 7.04279 2.28073 6.97321 2.12936 6.79925C1.80138 6.41654 1.58945 5.92449 1.58945 5.22369C1.58945 3.19088 3.13349 1.37178 5.60596 1.37178C7.79587 1.37178 9.00183 2.68889 9.00183 4.45331C9.00183 6.76943 7.96239 8.72769 6.4133 8.72769C5.56055 8.72769 4.91972 8.03185 5.1266 7.17698C5.37385 6.15808 5.84816 5.05967 5.84816 4.32408C5.84816 3.66802 5.48991 3.11633 4.74816 3.11633C3.87523 3.11633 3.17385 4.006 3.17385 5.19884C3.17385 5.95929 3.43624 6.47122 3.43624 6.47122C3.43624 6.47122 2.54312 10.1989 2.3867 10.8549C2.07385 12.1571 2.34128 13.7476 2.36147 13.9116C2.37661 14.006 2.49771 14.0309 2.55321 13.9563C2.63394 13.852 3.67339 12.5895 4.0266 11.3271C4.12752 10.9692 4.60183 9.11537 4.60183 9.11537C4.8844 9.64718 5.71193 10.1193 6.59495 10.1193C9.21881 10.1193 11 7.76347 11 4.60739C11 2.22169 8.95138 0 5.83303 0C1.95275 0 0 2.73859 0 5.02488C0 6.4066 0.529815 7.63423 1.67018 8.09149Z" fill="black"/>
</svg>
