<svg width="20" height="20" viewBox="0 0 20 20" fill="none" xmlns="http://www.w3.org/2000/svg">
<path d="M10.4688 0.253906C6.46062 0.253906 2.5 2.92578 2.5 7.25016C2.5 10.0002 4.04687 11.5627 4.98437 11.5627C5.37125 11.5627 5.59375 10.4845 5.59375 10.1802C5.59375 9.81703 4.66812 9.04328 4.66812 7.53141C4.66812 4.39078 7.05875 2.16391 10.1525 2.16391C12.8125 2.16391 14.7812 3.67578 14.7812 6.45328C14.7812 8.52766 13.9494 12.4183 11.2538 12.4183C10.2813 12.4183 9.44875 11.7152 9.44875 10.7077C9.44875 9.23078 10.48 7.80141 10.48 6.27766C10.48 3.69203 6.81188 4.16078 6.81188 7.28578C6.81188 7.94203 6.89375 8.66828 7.18687 9.26641C6.6475 11.587 5.54625 15.0439 5.54625 17.4345C5.54625 18.1727 5.65187 18.8995 5.72187 19.6377C5.85437 19.7864 5.78813 19.7708 5.99125 19.6964C7.96 17.0008 7.89 16.4739 8.78062 12.9464C9.26125 13.8608 10.5031 14.3527 11.4875 14.3527C15.6356 14.3527 17.4994 10.3095 17.4994 6.66516C17.4994 2.78641 14.1475 0.255156 10.4681 0.255156L10.4688 0.253906Z" fill="black"/>
</svg>
