<svg width="302" height="371" viewBox="0 0 302 371" fill="none" xmlns="http://www.w3.org/2000/svg">
<g clip-path="url(#clip0_47_7434)">
<path d="M0.0996094 371H298.9V0.700195H84.5996L0.0996094 84.9002V371Z" fill="white"/>
<path fill-rule="evenodd" clip-rule="evenodd" d="M61.8998 92.4004H0.799805V84.8004H0.899805C0.899805 84.7004 85.4998 0.400391 85.4998 0.400391H92.0998V0.600391L91.7998 62.6004C91.7998 79.1004 78.2998 92.4004 61.8998 92.4004ZM1.2998 91.9004H61.8998C77.9998 91.9004 91.0998 78.8004 91.1998 62.7004L91.4998 0.900391H85.5998L1.2998 85.0004V91.9004Z" fill="#DDDDDD"/>
<path d="M224.9 181.2H301.3V211.2H224.9C222.9 211.2 221.3 209.8 221.3 208.2V184.3C221.3 182.7 222.9 181.3 224.9 181.3V181.2Z" fill="#012555"/>
<path d="M230.8 201.6C230.2 201.6 229.7 201.4 229.3 201C228.9 200.6 228.7 200.1 228.7 199.5C228.7 198.9 228.9 198.3 229.3 198C229.7 197.7 230.2 197.4 230.8 197.4C231.4 197.4 231.9 197.6 232.3 198C232.7 198.4 232.9 198.9 232.9 199.5C232.9 200.1 232.7 200.6 232.3 201C231.9 201.4 231.4 201.6 230.8 201.6Z" fill="white"/>
<path d="M234.7 205.1V191.1H238.1V196.2L238.3 199.6V205H234.7V205.1ZM241.2 201.6C240.3 201.6 239.6 201.4 239 201C238.4 200.6 237.9 200 237.6 199.3C237.3 198.5 237.1 197.5 237.1 196.3C237.1 195.1 237.3 194.1 237.6 193.3C237.9 192.5 238.4 191.9 239 191.6C239.6 191.2 240.4 191 241.3 191C242.2 191 243.1 191.2 243.9 191.7C244.7 192.1 245.3 192.8 245.7 193.5C246.1 194.3 246.4 195.2 246.4 196.3C246.4 197.4 246.2 198.3 245.7 199.1C245.2 199.9 244.6 200.5 243.9 200.9C243.2 201.3 242.3 201.5 241.3 201.5L241.2 201.6ZM240.4 198.7C240.8 198.7 241.2 198.7 241.5 198.4C241.8 198.2 242.1 197.9 242.3 197.6C242.5 197.2 242.6 196.8 242.6 196.3C242.6 195.8 242.6 195.3 242.3 195C242.1 194.6 241.8 194.4 241.5 194.2C241.2 194 240.8 193.9 240.4 193.9C240 193.9 239.6 193.9 239.3 194.2C239 194.4 238.7 194.7 238.5 195C238.3 195.4 238.2 195.8 238.2 196.3C238.2 196.8 238.2 197.3 238.5 197.6C238.7 198 239 198.2 239.3 198.4C239.6 198.6 240 198.7 240.4 198.7Z" fill="white"/>
<path d="M250.901 201.6C250.101 201.6 249.401 201.5 248.801 201.2C248.201 200.9 247.801 200.5 247.501 200.1C247.201 199.7 247.101 199.1 247.101 198.5C247.101 197.9 247.301 197.3 247.601 196.9C247.901 196.4 248.401 196.1 249.101 195.8C249.801 195.6 250.601 195.4 251.701 195.4H254.101V197.3H252.201C251.601 197.3 251.201 197.3 251.001 197.6C250.801 197.8 250.601 198 250.601 198.4C250.601 198.8 250.701 199 251.001 199.2C251.201 199.4 251.601 199.5 252.001 199.5C252.401 199.5 252.801 199.5 253.101 199.2C253.401 198.9 253.701 198.7 253.801 198.3L254.301 199.6C254.101 200.3 253.701 200.8 253.201 201.2C252.601 201.6 251.901 201.7 251.001 201.7L250.901 201.6ZM253.901 201.4V199.5L253.701 199V195.5C253.701 194.9 253.501 194.5 253.201 194.2C252.901 193.9 252.301 193.7 251.501 193.7C250.701 193.7 250.501 193.7 250.001 193.9C249.501 194.1 249.101 194.3 248.701 194.6L247.501 192.1C248.101 191.7 248.801 191.4 249.601 191.2C250.401 191 251.201 190.9 252.001 190.9C253.701 190.9 255.001 191.3 255.901 192C256.801 192.8 257.301 194 257.301 195.6V201.3H253.901V201.4Z" fill="white"/>
<path d="M264.101 200.901C263.201 200.901 262.301 200.701 261.601 200.301C260.801 199.901 260.201 199.301 259.801 198.601C259.301 197.901 259.101 197.001 259.101 196.001C259.101 195.001 259.301 194.101 259.801 193.401C260.301 192.701 260.901 192.101 261.601 191.701C262.401 191.301 263.201 191.101 264.101 191.101C265.001 191.101 265.701 191.301 266.301 191.601C266.901 191.901 267.401 192.501 267.701 193.201C268.001 193.901 268.201 194.901 268.201 196.001C268.201 197.101 268.001 198.101 267.701 198.801C267.401 199.501 266.901 200.101 266.301 200.401C265.701 200.801 264.901 200.901 264.101 200.901ZM264.801 205.301C263.801 205.301 262.901 205.201 262.001 205.001C261.101 204.801 260.301 204.401 259.701 204.001L261.001 201.501C261.401 201.801 262.001 202.101 262.601 202.301C263.201 202.501 263.901 202.601 264.501 202.601C265.501 202.601 266.201 202.401 266.601 202.001C267.001 201.601 267.201 201.001 267.201 200.101V198.901L267.401 196.001V193.101V191.201H270.801V199.601C270.801 201.601 270.301 203.001 269.201 203.901C268.101 204.801 266.701 205.301 264.701 205.301H264.801ZM265.001 198.001C265.401 198.001 265.801 198.001 266.101 197.701C266.401 197.501 266.701 197.301 266.901 197.001C267.101 196.701 267.201 196.301 267.201 195.901C267.201 195.501 267.201 195.101 266.901 194.801C266.701 194.501 266.401 194.201 266.101 194.101C265.801 194.001 265.401 193.801 265.001 193.801C264.601 193.801 264.201 193.801 263.801 194.101C263.501 194.301 263.201 194.501 263.001 194.801C262.801 195.101 262.701 195.501 262.701 195.901C262.701 196.301 262.701 196.701 263.001 197.001C263.201 197.301 263.501 197.601 263.801 197.701C264.101 197.901 264.501 198.001 265.001 198.001Z" fill="white"/>
<path d="M278.5 201.6C277.3 201.6 276.2 201.4 275.3 200.9C274.4 200.4 273.7 199.8 273.2 199C272.7 198.2 272.4 197.3 272.4 196.3C272.4 195.3 272.6 194.4 273.1 193.6C273.6 192.8 274.3 192.2 275.1 191.7C276 191.3 276.9 191 278 191C279.1 191 279.9 191.2 280.8 191.6C281.6 192 282.3 192.6 282.8 193.4C283.3 194.2 283.5 195.2 283.5 196.3C283.5 197.4 283.5 196.6 283.5 196.7C283.5 196.9 283.5 197 283.5 197.2H275.3V195.3H281.5L280.1 195.8C280.1 195.3 280.1 194.9 279.8 194.6C279.6 194.3 279.4 194 279 193.8C278.7 193.6 278.3 193.5 277.9 193.5C277.5 193.5 277.1 193.5 276.8 193.8C276.5 194 276.2 194.3 276 194.6C275.8 194.9 275.7 195.4 275.7 195.8V196.4C275.7 196.9 275.8 197.3 276 197.7C276.2 198.1 276.5 198.3 276.9 198.5C277.3 198.7 277.8 198.8 278.3 198.8C278.8 198.8 279.2 198.8 279.6 198.6C280 198.5 280.3 198.2 280.7 197.9L282.6 199.9C282.1 200.4 281.5 200.9 280.8 201.1C280.1 201.4 279.2 201.5 278.2 201.5L278.5 201.6Z" fill="white"/>
<path d="M289.1 201.6C288.2 201.6 287.4 201.5 286.5 201.3C285.7 201.1 285 200.8 284.5 200.5L285.6 198C286.1 198.3 286.6 198.5 287.3 198.7C287.9 198.9 288.6 199 289.2 199C289.8 199 290.2 199 290.5 198.8C290.7 198.7 290.9 198.5 290.9 198.3C290.9 198.1 290.8 197.9 290.6 197.9C290.4 197.9 290.1 197.7 289.7 197.7C289.3 197.7 288.9 197.6 288.5 197.5C288.1 197.5 287.6 197.4 287.2 197.2C286.8 197.1 286.4 196.9 286 196.7C285.6 196.5 285.4 196.2 285.1 195.8C284.9 195.4 284.8 194.9 284.8 194.4C284.8 193.9 285 193.2 285.4 192.6C285.8 192.1 286.4 191.7 287.1 191.4C287.8 191.1 288.8 191 289.8 191C290.8 191 291.3 191 292 191.2C292.7 191.3 293.4 191.6 293.9 191.9L292.8 194.4C292.3 194.1 291.8 193.9 291.3 193.8C290.8 193.7 290.3 193.6 289.9 193.6C289.5 193.6 288.9 193.6 288.6 193.8C288.4 193.9 288.2 194.1 288.2 194.3C288.2 194.5 288.3 194.7 288.5 194.8C288.7 194.9 289 195 289.4 195C289.8 195 290.2 195.1 290.6 195.2C291 195.2 291.5 195.3 291.9 195.5C292.3 195.6 292.7 195.8 293.1 196C293.5 196.2 293.7 196.5 294 196.9C294.2 197.3 294.3 197.8 294.3 198.3C294.3 198.8 294.1 199.5 293.7 200C293.3 200.5 292.7 200.9 292 201.2C291.2 201.5 290.3 201.7 289.2 201.7L289.1 201.6Z" fill="white"/>
<path d="M224.9 143.2H301.3V173.2H224.9C222.9 173.2 221.3 171.8 221.3 170.2V146.3C221.3 144.7 222.9 143.3 224.9 143.3V143.2Z" fill="#012555"/>
<path d="M236.9 165.599C236.3 165.599 235.8 165.399 235.4 164.999C235 164.599 234.8 164.099 234.8 163.499C234.8 162.899 235 162.299 235.4 161.999C235.8 161.699 236.3 161.399 236.9 161.399C237.5 161.399 238 161.599 238.4 161.999C238.8 162.399 239 162.899 239 163.499C239 164.099 238.8 164.599 238.4 164.999C238 165.399 237.5 165.599 236.9 165.599Z" fill="white"/>
<path d="M245.2 165.6C244.3 165.6 243.4 165.4 242.6 164.9C241.8 164.5 241.2 163.8 240.8 163.1C240.3 162.3 240.1 161.4 240.1 160.3C240.1 159.2 240.3 158.3 240.8 157.5C241.3 156.7 241.9 156.1 242.6 155.7C243.4 155.3 244.2 155.1 245.2 155.1C246.2 155.1 246.8 155.3 247.5 155.7C248.1 156.1 248.6 156.7 248.9 157.4C249.2 158.2 249.4 159.2 249.4 160.4C249.4 161.6 249.2 162.6 248.9 163.4C248.6 164.2 248.1 164.8 247.5 165.1C246.9 165.5 246.1 165.7 245.2 165.7V165.6ZM246 162.7C246.4 162.7 246.8 162.7 247.1 162.4C247.4 162.2 247.7 161.9 247.9 161.6C248.1 161.2 248.2 160.8 248.2 160.3C248.2 159.8 248.2 159.3 247.9 159C247.7 158.6 247.5 158.4 247.1 158.2C246.8 158 246.4 157.9 246 157.9C245.6 157.9 245.2 157.9 244.9 158.2C244.6 158.4 244.3 158.7 244.1 159C243.9 159.4 243.8 159.8 243.8 160.3C243.8 160.8 243.8 161.3 244.1 161.6C244.3 162 244.5 162.3 244.9 162.4C245.2 162.6 245.6 162.7 246 162.7ZM248.2 165.4V160.2L248 156.8V151.3H251.6V165.4H248.2Z" fill="white"/>
<path d="M259.1 165.6C258 165.6 257 165.4 256.1 164.9C255.2 164.4 254.5 163.8 254 163C253.5 162.2 253.2 161.3 253.2 160.2C253.2 159.1 253.4 158.2 254 157.4C254.5 156.6 255.2 156 256.1 155.5C257 155.1 258 154.8 259.1 154.8C260.2 154.8 261.2 155 262.1 155.5C263 156 263.7 156.6 264.2 157.4C264.7 158.2 264.9 159.1 264.9 160.2C264.9 161.3 264.7 162.2 264.2 163C263.7 163.8 263 164.4 262.1 164.9C261.2 165.4 260.2 165.6 259.1 165.6ZM259.1 162.7C259.5 162.7 259.9 162.7 260.2 162.4C260.5 162.2 260.8 161.9 261 161.6C261.2 161.2 261.3 160.8 261.3 160.3C261.3 159.8 261.3 159.3 261 159C260.8 158.6 260.6 158.4 260.2 158.2C259.9 158 259.5 157.9 259.1 157.9C258.7 157.9 258.3 157.9 258 158.2C257.7 158.4 257.4 158.7 257.2 159C257 159.4 256.9 159.8 256.9 160.3C256.9 160.8 256.9 161.3 257.2 161.6C257.4 162 257.7 162.3 258 162.4C258.3 162.6 258.7 162.7 259.1 162.7Z" fill="white"/>
<path d="M271.9 165.6C270.8 165.6 269.7 165.4 268.9 164.9C268 164.4 267.3 163.8 266.8 163C266.3 162.2 266 161.3 266 160.2C266 159.1 266.3 158.2 266.8 157.4C267.3 156.6 268 156 268.9 155.5C269.8 155.1 270.8 154.8 271.9 154.8C273 154.8 274.1 155 274.9 155.5C275.7 156 276.4 156.7 276.7 157.6L273.9 159C273.7 158.5 273.4 158.2 273 157.9C272.6 157.6 272.3 157.6 271.8 157.6C271.3 157.6 271 157.6 270.7 157.9C270.4 158.1 270.1 158.4 269.9 158.7C269.7 159.1 269.6 159.5 269.6 160C269.6 160.5 269.6 161 269.9 161.3C270.1 161.7 270.4 161.9 270.7 162.1C271 162.3 271.4 162.4 271.8 162.4C272.2 162.4 272.6 162.3 273 162.1C273.4 161.9 273.7 161.5 273.9 161L276.7 162.4C276.3 163.3 275.7 164 274.9 164.5C274.1 165 273 165.2 271.9 165.2V165.6Z" fill="white"/>
<path d="M276.7 165.4L281.4 159.2V161.3L276.8 155.2H280.9L283.4 158.8H281.9L284.6 155.2H288.4L283.9 161.2V159.2L288.6 165.5H284.5L281.8 161.6L283.3 161.8L280.6 165.5H276.7V165.4Z" fill="white"/>
<path d="M224.9 106.2H301.3V136.2H224.9C222.9 136.2 221.3 134.8 221.3 133.2V109.3C221.3 107.7 222.9 106.3 224.9 106.3V106.2Z" fill="#012555"/>
<path d="M244.2 128.6C243.6 128.6 243.1 128.4 242.7 128C242.3 127.6 242.1 127.1 242.1 126.5C242.1 125.9 242.3 125.3 242.7 125C243.1 124.7 243.6 124.4 244.2 124.4C244.8 124.4 245.3 124.6 245.7 125C246.1 125.4 246.3 125.9 246.3 126.5C246.3 127.1 246.1 127.6 245.7 128C245.3 128.4 244.8 128.6 244.2 128.6Z" fill="white"/>
<path d="M248.1 132.101V118.101H251.5V123.201L251.7 126.601V132.001H248.1V132.101ZM254.6 128.601C253.7 128.601 253 128.401 252.4 128.001C251.8 127.601 251.3 127.001 251 126.301C250.7 125.501 250.5 124.501 250.5 123.301C250.5 122.101 250.7 121.101 251 120.301C251.3 119.501 251.8 118.901 252.4 118.601C253 118.201 253.8 118.001 254.7 118.001C255.6 118.001 256.5 118.201 257.3 118.701C258.1 119.101 258.7 119.801 259.1 120.501C259.5 121.301 259.8 122.201 259.8 123.301C259.8 124.401 259.6 125.301 259.1 126.101C258.6 126.901 258 127.501 257.3 127.901C256.6 128.301 255.7 128.501 254.7 128.501L254.6 128.601ZM253.8 125.701C254.2 125.701 254.6 125.701 254.9 125.401C255.2 125.201 255.5 124.901 255.7 124.601C255.9 124.201 256 123.801 256 123.301C256 122.801 256 122.301 255.7 122.001C255.5 121.601 255.2 121.401 254.9 121.201C254.6 121.001 254.2 120.901 253.8 120.901C253.4 120.901 253 120.901 252.7 121.201C252.4 121.401 252.1 121.701 251.9 122.001C251.7 122.401 251.6 122.801 251.6 123.301C251.6 123.801 251.6 124.301 251.9 124.601C252.1 125.001 252.4 125.201 252.7 125.401C253 125.601 253.4 125.701 253.8 125.701Z" fill="white"/>
<path d="M265.799 128.601C264.899 128.601 263.999 128.401 263.199 127.901C262.399 127.501 261.799 126.801 261.399 126.101C260.899 125.301 260.699 124.401 260.699 123.301C260.699 122.201 260.899 121.301 261.399 120.501C261.899 119.701 262.499 119.101 263.199 118.701C263.999 118.301 264.799 118.101 265.799 118.101C266.799 118.101 267.399 118.301 268.099 118.701C268.699 119.101 269.199 119.701 269.499 120.401C269.799 121.201 269.999 122.201 269.999 123.401C269.999 124.601 269.799 125.601 269.499 126.401C269.199 127.201 268.699 127.801 268.099 128.101C267.499 128.501 266.699 128.701 265.799 128.701V128.601ZM266.499 125.701C266.899 125.701 267.299 125.701 267.599 125.401C267.899 125.201 268.199 124.901 268.399 124.601C268.599 124.201 268.699 123.801 268.699 123.301C268.699 122.801 268.699 122.301 268.399 122.001C268.199 121.601 267.999 121.401 267.599 121.201C267.299 121.001 266.899 120.901 266.499 120.901C266.099 120.901 265.699 120.901 265.399 121.201C265.099 121.401 264.799 121.701 264.599 122.001C264.399 122.401 264.299 122.801 264.299 123.301C264.299 123.801 264.299 124.301 264.599 124.601C264.799 125.001 264.999 125.301 265.399 125.401C265.699 125.601 266.099 125.701 266.499 125.701ZM268.799 128.401V123.201L268.599 119.801V114.301H272.199V128.401H268.799Z" fill="white"/>
<path d="M273.5 121.201V118.501H281V121.201H273.5ZM275 128.401V118.201C275 117.001 275.4 116.001 276.1 115.201C276.8 114.401 277.9 114.101 279.3 114.101C280.7 114.101 280.2 114.101 280.6 114.201C281 114.301 281.4 114.401 281.7 114.601L280.8 117.101C280.6 117.101 280.5 116.901 280.3 116.901C280.1 116.901 279.9 116.901 279.7 116.901C279.3 116.901 279 117.001 278.8 117.201C278.6 117.401 278.5 117.801 278.5 118.201V120.401V128.301H274.9L275 128.401Z" fill="white"/>
<path d="M26.1998 320.1H241.7C243.8 320.1 245.6 321.8 245.6 324C245.6 326.2 243.9 327.9 241.7 327.9H26.1998C24.0998 327.9 22.2998 326.2 22.2998 324C22.2998 321.8 24.0998 320.1 26.1998 320.1Z" fill="#DDDDDD"/>
<path d="M26.1998 261.1H241.7C243.8 261.1 245.6 262.8 245.6 265C245.6 267.2 243.9 268.9 241.7 268.9H26.1998C24.0998 268.9 22.2998 267.2 22.2998 265C22.2998 262.8 24.0998 261.1 26.1998 261.1Z" fill="#012555"/>
<path d="M26.1998 231.6H241.7C243.8 231.6 245.6 233.3 245.6 235.5C245.6 237.7 243.9 239.4 241.7 239.4H26.1998C24.0998 239.4 22.2998 237.7 22.2998 235.5C22.2998 233.3 24.0998 231.6 26.1998 231.6Z" fill="#012555"/>
<path d="M26.1998 290.6H157.4C159.5 290.6 161.3 292.3 161.3 294.5C161.3 296.7 159.6 298.4 157.4 298.4H26.1998C24.0998 298.4 22.2998 296.7 22.2998 294.5C22.2998 292.3 24.0998 290.6 26.1998 290.6Z" fill="#DDDDDD"/>
</g>
<defs>
<clipPath id="clip0_47_7434">
<rect width="302" height="371" fill="white"/>
</clipPath>
</defs>
</svg>
