<svg width="20" height="19" viewBox="0 0 20 19" fill="none" xmlns="http://www.w3.org/2000/svg">
<path d="M9.74023 1.81836C9.88061 1.38633 10.463 1.35896 10.6582 1.7373L10.6914 1.81836L12.2246 6.53711C12.4128 7.1164 12.931 7.51999 13.5303 7.56836L13.6514 7.57324H18.6133C19.0675 7.57324 19.2728 8.11825 18.9736 8.4209L18.9072 8.47754L14.8926 11.3945C14.3999 11.7526 14.1761 12.3702 14.3154 12.9551L14.3486 13.0713L15.8818 17.791C16.0219 18.2229 15.5668 18.5866 15.1865 18.3955L15.1123 18.3496L11.0977 15.4336C10.6047 15.0754 9.94796 15.0526 9.43457 15.3662L9.33398 15.4336L5.32031 18.3496C4.95291 18.6165 4.46619 18.2966 4.53027 17.876L4.55078 17.791L6.08398 13.0713C6.27208 12.4919 6.09037 11.861 5.63379 11.4697L5.53906 11.3945L1.52441 8.47754C1.15749 8.21044 1.31157 7.64895 1.73145 7.58008L1.81836 7.57324H6.78027C7.38951 7.57324 7.93393 7.20563 8.16504 6.65039L8.20703 6.53711L9.74023 1.81836Z" stroke="#FF9D28"/>
</svg>
