<svg width="63" height="63" viewBox="0 0 63 63" fill="none" xmlns="http://www.w3.org/2000/svg">
<g clip-path="url(#clip0_2018_2184)">
<path d="M31.5 63C48.897 63 63 48.897 63 31.5C63 14.103 48.897 0 31.5 0C14.103 0 0 14.103 0 31.5C0 48.897 14.103 63 31.5 63Z" fill="#003F7D"/>
<path d="M21.8061 29.6823L26.7193 37.9901C31.8111 30.0397 37.5283 23.0719 42.7095 19.052C43.8708 17.98 45.6574 18.6054 44.4067 19.7666C38.6003 25.7518 34.1337 32.5409 29.5779 43.1713C27.7913 44.4219 25.7367 45.0472 24.754 43.8859L18.3222 32.3623C17.4289 30.933 20.5555 27.6277 21.8061 29.6823Z" fill="white"/>
</g>
<defs>
<clipPath id="clip0_2018_2184">
<rect width="63" height="63" fill="white"/>
</clipPath>
</defs>
</svg>
