<svg width="20" height="20" viewBox="0 0 20 20" fill="none" xmlns="http://www.w3.org/2000/svg">
<g clip-path="url(#clip0_6579_2862)">
<path d="M16.8231 3.87345C16.6793 3.46618 16.436 3.09382 16.1153 2.80291C15.861 2.57018 15.5956 2.43055 15.3855 2.33745C15.1754 2.24436 15.0648 2.19782 14.8989 2.13964C14.7441 2.09309 14.5229 2.04655 14.3681 2.02327C14.2022 2 14.0363 2 13.7267 2H10.4092C10.4092 2 10.3207 2 10.2765 2H6.2733C5.95261 2 5.79779 2 5.62085 2.02327C5.46603 2.04655 5.24487 2.09309 5.09005 2.13964C4.91311 2.19782 4.80253 2.24436 4.59242 2.33745C4.38231 2.43055 4.1169 2.57018 3.87362 2.80291C3.56398 3.09382 3.3207 3.46618 3.16588 3.87345C3 4.33891 3 4.76945 3 5.47927V9.19127C3 13.5433 7.14692 16.5571 8.92733 17.6509C9.12638 17.7789 9.32543 17.8953 9.61295 17.9535C9.7346 17.9767 9.8673 18 10 18C10.1327 18 10.2654 17.9884 10.387 17.9535C10.6746 17.8836 10.8626 17.7673 11.0727 17.6393C12.8531 16.5455 17 13.5316 17 9.17964V5.46764C17 4.75782 17 4.32727 16.8341 3.85018L16.8231 3.87345Z" fill="#103F60"/>
</g>
<path d="M2 8L3 7V8H17V7L18 8V11C18 11.5523 17.5523 12 17 12H3C2.44772 12 2 11.5523 2 11V8Z" fill="#FF9D28"/>
<defs>
<clipPath id="clip0_6579_2862">
<rect width="14" height="16" fill="white" transform="translate(3 2)"/>
</clipPath>
</defs>
</svg>
