<svg width="17" height="16" viewBox="0 0 17 16" fill="none" xmlns="http://www.w3.org/2000/svg">
<path d="M7.66726 1.55644C7.96661 0.635133 9.27002 0.635134 9.56937 1.55644L10.692 5.01164C10.8259 5.42367 11.2099 5.70263 11.6431 5.70263H15.2761C16.2448 5.70263 16.6476 6.94224 15.8639 7.51164L12.9247 9.64707C12.5742 9.90172 12.4276 10.3531 12.5614 10.7651L13.6841 14.2203C13.9835 15.1416 12.929 15.9077 12.1453 15.3383L9.2061 13.2029C8.85561 12.9483 8.38102 12.9483 8.03053 13.2029L5.09136 15.3383C4.30765 15.9077 3.25317 15.1416 3.55252 14.2203L4.67518 10.7651C4.80906 10.3531 4.6624 9.90172 4.31191 9.64707L1.37274 7.51164C0.589028 6.94224 0.991805 5.70263 1.96053 5.70263H5.59354C6.02677 5.70263 6.41072 5.42367 6.5446 5.01164L7.66726 1.55644Z" fill="#FF9D28"/>
</svg>
