<svg width="20" height="19" viewBox="0 0 20 19" fill="none" xmlns="http://www.w3.org/2000/svg">
<path d="M9.22887 1.66338C9.52822 0.742069 10.8316 0.742068 11.131 1.66338L12.6643 6.38251C12.7982 6.79454 13.1822 7.0735 13.6154 7.0735L18.5774 7.0735C19.5461 7.0735 19.9489 8.31311 19.1652 8.88251L15.1508 11.7991C14.8003 12.0537 14.6537 12.5051 14.7875 12.9171L16.3209 17.6363C16.6202 18.5576 15.5658 19.3237 14.782 18.7543L10.7677 15.8377C10.4172 15.5831 9.94263 15.5831 9.59214 15.8377L5.5778 18.7543C4.79409 19.3237 3.73961 18.5576 4.03896 17.6363L5.5723 12.9171C5.70617 12.5051 5.55952 12.0537 5.20903 11.7991L1.19469 8.88252C0.410979 8.31311 0.813753 7.0735 1.78248 7.0735L6.74447 7.0735C7.1777 7.0735 7.56165 6.79454 7.69553 6.38251L9.22887 1.66338Z" fill="#FF9D28"/>
</svg>
