<svg width="17" height="23" viewBox="0 0 17 23" fill="none" xmlns="http://www.w3.org/2000/svg">
<path d="M15.8224 3.44847H13.8036V1.3343L15.8224 3.44847ZM16.7603 5.03808V20.9819C16.7613 21.3853 16.6023 21.7718 16.3172 22.0569C16.0321 22.342 15.6456 22.501 15.2422 22.5H1.95315C1.54979 22.501 1.1633 22.342 0.878168 22.0569C0.593032 21.7718 0.434071 21.3853 0.435063 20.9819V2.01809C0.43407 1.61474 0.593029 1.22825 0.878168 0.943109C1.1633 0.657973 1.54977 0.499013 1.95315 0.500005H12.2141V4.24358C12.2151 4.68173 12.5707 5.03739 13.0089 5.03838L16.7603 5.03808ZM2.67643 6.2859C2.67742 6.72405 3.03308 7.07971 3.47123 7.0807H8.59763C9.03677 7.0807 9.39243 6.72504 9.39243 6.2859C9.39243 5.84676 9.03677 5.4911 8.59763 5.4911H3.47123C3.03308 5.49209 2.67742 5.84776 2.67643 6.2859ZM14.5188 19.1935C14.5178 18.7553 14.1622 18.3997 13.724 18.3987H3.47123C3.03209 18.3987 2.67643 18.7543 2.67643 19.1935C2.67643 19.6326 3.03209 19.9883 3.47123 19.9883H13.724C14.1622 19.9873 14.5178 19.6316 14.5188 19.1935ZM14.5188 15.9665C14.5178 15.5283 14.1622 15.1726 13.724 15.1717H3.47123C3.03209 15.1717 2.67643 15.5273 2.67643 15.9665C2.67643 16.4056 3.03209 16.7613 3.47123 16.7613H13.724C14.1622 16.7603 14.5178 16.4046 14.5188 15.9665ZM14.5188 12.7394C14.5178 12.3013 14.1622 11.9456 13.724 11.9446H3.47123C3.03209 11.9446 2.67643 12.3003 2.67643 12.7394C2.67643 13.1786 3.03209 13.5342 3.47123 13.5342H13.724C14.1622 13.5332 14.5178 13.1776 14.5188 12.7394ZM14.5188 9.51241C14.5178 9.07427 14.1622 8.7186 13.724 8.71761H3.47123C3.03209 8.71761 2.67643 9.07327 2.67643 9.51241C2.67643 9.95155 3.03209 10.3072 3.47123 10.3072H13.724C14.1622 10.3062 14.5178 9.95056 14.5188 9.51241Z" fill="#012555"/>
</svg>
