<svg width="63" height="63" viewBox="0 0 63 63" fill="none" xmlns="http://www.w3.org/2000/svg">
<g clip-path="url(#clip0_263_99)">
<path d="M31.5 63C48.897 63 63 48.897 63 31.5C63 14.103 48.897 0 31.5 0C14.103 0 0 14.103 0 31.5C0 48.897 14.103 63 31.5 63Z" fill="#003F7D"/>
<path d="M32.7273 30.4752V23.6115C34.0345 23.8249 35.2607 24.3848 36.2781 25.2329C36.3735 25.3216 36.4855 25.3906 36.6077 25.4361C36.7298 25.4815 36.8597 25.5024 36.9899 25.4977C37.1202 25.4929 37.2482 25.4625 37.3667 25.4083C37.4852 25.354 37.5918 25.277 37.6805 25.1815C37.7693 25.0861 37.8383 24.9741 37.8837 24.8519C37.9292 24.7298 37.9501 24.5999 37.9453 24.4697C37.9406 24.3394 37.9102 24.2114 37.856 24.0929C37.8017 23.9744 37.7247 23.8678 37.6292 23.7791C36.2551 22.5639 34.5433 21.7966 32.7219 21.5794V19.7635C32.7219 19.4983 32.6166 19.244 32.4291 19.0565C32.2416 18.869 31.9872 18.7637 31.7221 18.7637C31.4569 18.7637 31.2026 18.869 31.0151 19.0565C30.8276 19.244 30.7222 19.4983 30.7222 19.7635V21.5632C27.3174 21.9145 24.9178 24.1682 24.9178 27.119C24.9178 30.4212 28.7009 31.4751 30.7222 31.9831V39.5819C29.1711 39.2306 27.0201 38.328 26.1662 37.5281C25.9806 37.3425 25.7289 37.2382 25.4663 37.2382C25.2038 37.2382 24.9521 37.3425 24.7665 37.5281C24.5808 37.7138 24.4766 37.9655 24.4766 38.228C24.4766 38.4905 24.5808 38.7423 24.7665 38.9279C25.9663 40.1277 28.7712 41.2789 30.7114 41.5815V43.2353C30.7114 43.5005 30.8168 43.7548 31.0043 43.9423C31.1918 44.1298 31.4461 44.2351 31.7113 44.2351C31.9764 44.2351 32.2307 44.1298 32.4183 43.9423C32.6058 43.7548 32.7111 43.5005 32.7111 43.2353V41.6139C35.262 41.3113 38.5155 39.8142 38.5155 36.4094C38.602 33.7774 36.4834 31.6264 32.7273 30.4752ZM30.7276 29.9348C29.1063 29.4862 26.9445 28.735 26.9445 27.1299C26.9445 25.0275 28.7982 23.8871 30.7276 23.5791V29.924V29.9348ZM32.7273 39.6629V32.5776C34.527 33.2261 36.5105 34.4314 36.5105 36.4797C36.5807 38.6847 34.1325 39.3819 32.7273 39.6305V39.6629Z" fill="white"/>
</g>
<defs>
<clipPath id="clip0_263_99">
<rect width="63" height="63" fill="white"/>
</clipPath>
</defs>
</svg>
