<svg width="21" height="25" viewBox="0 0 21 25" fill="none" xmlns="http://www.w3.org/2000/svg">
<path fill-rule="evenodd" clip-rule="evenodd" d="M14.8257 6.61633C14.8257 9.0939 12.8172 11.1024 10.3396 11.1024C7.86205 11.1024 5.85358 9.0939 5.85358 6.61633C5.85358 4.13875 7.86205 2.13029 10.3396 2.13029C12.8172 2.13029 14.8257 4.13875 14.8257 6.61633ZM16.7482 6.61633C16.7482 10.1557 13.879 13.025 10.3396 13.025C6.80024 13.025 3.93099 10.1557 3.93099 6.61633C3.93099 3.07695 6.80024 0.207703 10.3396 0.207703C13.879 0.207703 16.7482 3.07695 16.7482 6.61633ZM2.32884 21.997C2.32884 19.6965 4.19384 17.8314 6.49445 17.8314H14.1848C16.4854 17.8314 18.3504 19.6965 18.3504 21.997V23.2788C18.3504 23.8096 18.7808 24.2401 19.3117 24.2401C19.8426 24.2401 20.273 23.8096 20.273 23.2788V21.997C20.273 18.6346 17.5473 15.9088 14.1848 15.9088H6.49445C3.13203 15.9088 0.40625 18.6346 0.40625 21.997V23.2788C0.40625 23.8096 0.836641 24.2401 1.36754 24.2401C1.89845 24.2401 2.32884 23.8096 2.32884 23.2788V21.997Z" fill="white"/>
</svg>
