<?xml version="1.0" encoding="UTF-8"?>
<svg id="Capa_1" data-name="Capa 1" xmlns="http://www.w3.org/2000/svg" version="1.1" viewBox="0 0 525.8 370.5">
  <defs>
    <style>
      .cls-1 {
        fill: #000;
      }

      .cls-1, .cls-2, .cls-3, .cls-4, .cls-5 {
        stroke-width: 0px;
      }

      .cls-2 {
        fill: #edeef1;
      }

      .cls-3 {
        fill: #f5f5f6;
      }

      .cls-4 {
        fill: #757575;
      }

      .cls-5 {
        fill: #fff;
      }
    </style>
  </defs>
  <g>
    <path class="cls-3" d="M281.1,117h1c5.3,0,9.6,4.3,9.6,9.6v153h-10.6V117h0Z" transform="translate(572.8 396.7) rotate(180)"/>
    <path class="cls-3" d="M514.9,117h10.6v149.5c0,5.3-4.3,9.6-9.6,9.6h-1V117h0Z"/>
    <path class="cls-3" d="M523.3,277.5h-240.8l-2.2-4.1c0,4.5,6.8,8.1,15.2,8.1h214.7c8.4,0,15.2-3.6,15.2-8.1l-2.2,4.1Z"/>
    <rect class="cls-5" x="280.3" y="100.1" width="245.2" height="181.2" rx="15" ry="15"/>
    <path class="cls-2" d="M295.3,100.1h215.2c8.3,0,15,6.7,15,15v2h-245.2v-2c0-8.3,6.7-15,15-15Z"/>
    <path class="cls-4" d="M510.5,281.5h-215.2c-8.4,0-15.2-6.8-15.2-15.2V115.1c0-8.4,6.8-15.2,15.2-15.2h215.2c8.4,0,15.2,6.8,15.2,15.2v151.2c0,8.4-6.8,15.2-15.2,15.2ZM295.3,100.3c-8.1,0-14.8,6.6-14.8,14.8v151.2c0,8.1,6.6,14.8,14.8,14.8h215.2c8.1,0,14.8-6.6,14.8-14.8V115.1c0-8.1-6.6-14.8-14.8-14.8h-215.2Z"/>
    <ellipse class="cls-5" cx="295.7" cy="108.9" rx="4.9" ry="2.6"/>
    <ellipse class="cls-5" cx="310.5" cy="108.9" rx="4.9" ry="2.6"/>
    <ellipse class="cls-5" cx="325.5" cy="108.9" rx="4.9" ry="2.6"/>
    <g>
      <path class="cls-1" d="M499.5,137.7c0,.2-20.6.7-46,.7s-46-.5-46-.7,20.6-.4,46-.4,46,.2,46,.4Z"/>
      <path class="cls-1" d="M486.1,131.9c0,.2-14.9.7-33.4.7s-33.4-.5-33.4-.7,14.9-.4,33.4-.4,33.4.2,33.4.4Z"/>
      <path class="cls-1" d="M499.5,147.2c0,.2-20.6.7-46,.7s-46-.5-46-.7,20.6-.4,46-.4,46,.2,46,.4Z"/>
      <path class="cls-1" d="M441.9,163.2c0,.2-7.8.7-17.4.7s-17.4-.5-17.4-.7,7.8-.4,17.4-.4,17.4.2,17.4.4Z"/>
      <path class="cls-1" d="M497.6,172.1c0,.2-20.6.7-46,.7s-46-.5-46-.7,20.6-.4,46-.4,46,.2,46,.4Z"/>
      <path class="cls-1" d="M456.6,153.7c.2,0,.7,20.6.7,46,0,25.4-.5,46-.7,46s-.4-20.6-.4-46,.2-46,.4-46Z"/>
      <path class="cls-1" d="M476.7,154.5c.2,0,.7,20.6.7,46,0,25.4-.5,46-.7,46s-.4-20.6-.4-46,.2-46,.4-46Z"/>
      <path class="cls-1" d="M435.7,183.3c0,.2-6.6.7-14.8.7s-14.8-.5-14.8-.7,6.6-.4,14.8-.4,14.8.2,14.8.4Z"/>
      <path class="cls-1" d="M429.2,191.7c0,.2-5,.7-11.3.7s-11.3-.5-11.3-.7,5-.4,11.3-.4,11.3.2,11.3.4Z"/>
      <path class="cls-1" d="M432.9,201.8c0,.2-5.9.7-13.1.7s-13.1-.5-13.1-.7,5.9-.4,13.1-.4,13.1.2,13.1.4Z"/>
      <path class="cls-1" d="M437.2,210.7c0,.2-6.7.7-15,.7s-15-.5-15-.7,6.7-.4,15-.4,15,.2,15,.4Z"/>
      <path class="cls-1" d="M430.7,220.8c0,.2-5.2.7-11.7.7s-11.7-.5-11.7-.7,5.2-.4,11.7-.4,11.7.2,11.7.4Z"/>
      <path class="cls-1" d="M425.6,229.3c0,.2-4.1.7-9.2.7s-9.2-.5-9.2-.7,4.1-.4,9.2-.4,9.2.2,9.2.4Z"/>
      <path class="cls-1" d="M496.6,239.2c0,.3-20,1-44.7,1s-44.7-.7-44.7-1,20-.5,44.7-.5,44.7.2,44.7.5Z"/>
      <path class="cls-1" d="M498.2,249.9c0,.2-12.1.8-27.1.8s-27.1-.6-27.1-.8,12.1-.4,27.1-.4,27.1.2,27.1.4Z"/>
      <path class="cls-1" d="M493.1,242.7c0,.2-3,.7-6.7.7s-6.7-.5-6.7-.7,3-.4,6.7-.4,6.7.2,6.7.4Z"/>
      <path class="cls-1" d="M473,162.9c0,.2-3,.7-6.7.7s-6.7-.5-6.7-.7,3-.4,6.7-.4,6.7.2,6.7.4Z"/>
      <path class="cls-1" d="M494.3,162.9c0,.2-3,.7-6.7.7s-6.7-.5-6.7-.7,3-.4,6.7-.4,6.7.2,6.7.4Z"/>
    </g>
    <g>
      <path class="cls-1" d="M482.7,273.8c-2.7,0-6.3-1-10.8-2.9-1.9-.8-3-2.5-3.7-5.1-.2-2.1,1-4.2,3.6-6.6,2.3-1.6,5-2.4,8.2-2.5,3.6.1,7,.8,10.2,2l8.8,4.5c.7.9,1,1.8.7,2.7-.3.7-.9,1.3-1.6,1.4h-.1s-2.5-.6-2.5-.6c-2.6-.9-3.5-1.8-5-3.1l-.7-.7.7-.7.7.7c1.5,1.4,2.3,2.1,4.6,2.9l2.2.6c.4,0,.7-.4.8-.7.2-.5,0-1.1-.4-1.7l-8.5-4.3c-3.1-1.1-6.4-1.8-9.8-1.9-3,.1-5.5.9-7.6,2.3-2.4,2.1-3.4,3.9-3.3,5.6.6,2.3,1.5,3.7,3.1,4.4,8.5,3.6,13.6,3.7,15.2.2,1-1.9,1.1-3.6.2-5.4v-.2c0,0,0-.1,0-.1,0,0-.3-.2-1.1-.1h-3.4s-.1-.2-.1-.2c-1-1.3-2.1-2.5-3.1-2.8-.7.6-1.1,1.4-1.2,2.3v.7c-.1,0-1.1-.6-1.1-.6l-.3,1.7-1.2-1v.7c-.1,0-3.5.3-3.5.3v-1.4c-.1,0-.8.3-.8.3l-.4-.9,2-1,.2,1.9h1.6c0-.1.3-1.8.3-1.8l1.2,1,.3-1.5,1,.6c.3-.9.8-1.7,1.6-2.4h.2c0-.1.2-.1.2-.1,1.3.2,2.5,1.3,3.9,3h2.9c.8,0,1.5,0,1.8.3.2.2.4.4.4.7,1,2.1.9,4.1-.2,6.2-1,2.1-2.9,3.1-5.8,3.1Z"/>
      <path class="cls-1" d="M482.8,265.3h-7.3v-2.3h7.3v2.3ZM476.4,264.3h5.3v-.3h-5.3v.3Z"/>
    </g>
  </g>
  <g>
    <path class="cls-3" d="M.9,60.2h.8c4.5,0,8.1,3.6,8.1,8.1v244.7H.9V60.2h0Z" transform="translate(10.7 373.2) rotate(-180)"/>
    <path class="cls-3" d="M197.5,60.2h8.9v239.2c0,4.5-3.6,8.1-8.1,8.1h-.8V60.2h0Z"/>
    <path class="cls-3" d="M204.6,309.7H2.1l-1.8-6.4c0,7,5.7,12.6,12.8,12.6h180.6c7.1,0,12.8-5.6,12.8-12.6l-1.8,6.4Z"/>
    <rect class="cls-5" x=".2" y="33.8" width="206.2" height="281.7" rx="15" ry="15"/>
    <path class="cls-2" d="M15.2,33.8h176.2c8.3,0,15,6.7,15,15v11.4H.2v-11.4c0-8.3,6.7-15,15-15Z"/>
    <path class="cls-4" d="M191.5,315.8H15.2c-8.4,0-15.2-6.8-15.2-15.2V48.8c0-8.4,6.8-15.2,15.2-15.2h176.2c8.4,0,15.2,6.8,15.2,15.2v251.8c0,8.4-6.8,15.2-15.2,15.2ZM15.2,34.1c-8.1,0-14.8,6.6-14.8,14.8v251.8c0,8.1,6.6,14.8,14.8,14.8h176.2c8.1,0,14.8-6.6,14.8-14.8V48.8c0-8.1-6.6-14.8-14.8-14.8H15.2Z"/>
    <circle class="cls-5" cx="13.1" cy="47.6" r="4.1"/>
    <circle class="cls-5" cx="25.6" cy="47.6" r="4.1"/>
    <circle class="cls-5" cx="38.3" cy="47.6" r="4.1"/>
    <g>
      <path class="cls-1" d="M146.1,78.2c0,.2-20.4.7-45.5.7s-45.5-.5-45.5-.7,20.4-.4,45.5-.4,45.5.2,45.5.4Z"/>
      <path class="cls-1" d="M140.6,98.6c0,.2-25.4.7-56.8.7s-56.8-.5-56.8-.7,25.4-.4,56.8-.4,56.8.2,56.8.4Z"/>
      <path class="cls-1" d="M140.6,109.1c0,.2-25.4.7-56.8.7s-56.8-.5-56.8-.7,25.4-.4,56.8-.4,56.8.2,56.8.4Z"/>
      <path class="cls-1" d="M139.9,119.6c0,.2-25.4.7-56.8.7s-56.8-.5-56.8-.7,25.4-.4,56.8-.4,56.8.2,56.8.4Z"/>
      <path class="cls-1" d="M140.3,131.8c0,.2-25.4.7-56.8.7s-56.8-.5-56.8-.7,25.4-.4,56.8-.4,56.8.2,56.8.4Z"/>
      <path class="cls-1" d="M140.3,142.3c0,.2-25.4.7-56.8.7s-56.8-.5-56.8-.7,25.4-.4,56.8-.4,56.8.2,56.8.4Z"/>
      <path class="cls-1" d="M140.3,153.9c0,.2-25.4.7-56.8.7s-56.8-.5-56.8-.7,25.4-.4,56.8-.4,56.8.2,56.8.4Z"/>
      <path class="cls-1" d="M141.5,238.1c0,.2-25.4.7-56.8.7s-56.8-.5-56.8-.7,25.4-.4,56.8-.4,56.8.2,56.8.4Z"/>
      <path class="cls-1" d="M141.5,260.6c0,.2-25.4.7-56.8.7s-56.8-.5-56.8-.7,25.4-.4,56.8-.4,56.8.2,56.8.4Z"/>
      <path class="cls-1" d="M141.5,271.6c0,.2-25.4.7-56.8.7s-56.8-.5-56.8-.7,25.4-.4,56.8-.4,56.8.2,56.8.4Z"/>
      <path class="cls-1" d="M80.4,226.9H27.4v-62.6h53v62.6ZM28.4,225.9h51v-60.6H28.4v60.6Z"/>
      <path class="cls-1" d="M142.2,226.9h-53v-62.6h53v62.6ZM90.1,225.9h51v-60.6h-51v60.6Z"/>
      <g>
        <rect class="cls-1" x="32.6" y="242.2" width="7.2" height="1.3"/>
        <rect class="cls-1" x="45.5" y="242.2" width="7.2" height="1.3"/>
        <rect class="cls-1" x="57.3" y="242.2" width="7.2" height="1.3"/>
        <rect class="cls-1" x="67.9" y="242.2" width="7.2" height="1.3"/>
        <rect class="cls-1" x="79.9" y="242.2" width="7.2" height="1.3"/>
        <rect class="cls-1" x="91.4" y="242.3" width="7.2" height="1.3"/>
        <rect class="cls-1" x="102.4" y="242.2" width="7.2" height="1.3"/>
        <rect class="cls-1" x="114.2" y="242.3" width="7.2" height="1.3"/>
        <rect class="cls-1" x="124.2" y="242.3" width="7.2" height="1.3"/>
        <rect class="cls-1" x="134.3" y="242.2" width="7.2" height="1.3"/>
      </g>
      <g>
        <path class="cls-1" d="M119.1,303.5c-6.2,0-11.2-5-11.2-11.2s5-11.2,11.2-11.2,11.2,5,11.2,11.2-5,11.2-11.2,11.2ZM119.1,283.2c-5.1,0-9.2,4.1-9.2,9.2s4.1,9.2,9.2,9.2,9.2-4.1,9.2-9.2-4.1-9.2-9.2-9.2Z"/>
        <path class="cls-1" d="M123.6,288.9c-.5-.4-1.2-.4-1.6,0l-4.1,4.3s0,0-.1.1l-1.2-1.1c-.5-.4-1.2-.4-1.6,0s-.4,1.2,0,1.6l2.9,2.6,5.7-6.1c.4-.5.4-1.2,0-1.6Z"/>
      </g>
      <g>
        <path class="cls-1" d="M42,305.6h0c-1.2,0-1.8-1.4-2.3-2.5h0c-.8-4.2-.4-8.5,1.2-13.1-5.6-.6-11.3,4.5-16.3,9.4l-1.4-1.4c5.7-5.6,12.4-11.5,19.3-9.7h.4c1.2-3.4,3.4-4.2,5.1-4.2h.1s.1,0,.1,0c1.4.4,2.3,1.1,2.9,2.1.8,1.5.7,3.6-.3,6.4v.3c-.1,0-1.3,1.6-1.3,1.6,1.2-.6,2.3-.9,3.5-1,1-.2,2,0,2.8.8-.5-4.3-.6-9.6,1.6-13.9h0c1.2-1.9,2.5-2.1,3.3-1.8.5.2,1.7,1.1,1.1,4.1-.3,3.1-1.4,7-3.8,12.5-.3,1.2-.2,2.1.2,3,0,0,0,0,.1.1.1-.1.4-.4.8-1.2l5.3-16,.5-4.3,2,.2c-.2,3-.3,5.7-.4,8.2,2.9-3.9,6.4-5.9,10-5.6l-.2,2c-3.5-.3-7.1,2.4-9.8,7.3,0,2.1.2,4,.4,5.8,0,1.3-.3,2.3-1.1,2.9-.7.4-1.5.5-2.2,0-.9-.5-1.5-1.5-1.5-2.8l-1.1,3.2c-.5,1-1.2,2.3-2.4,2.5-.4,0-.8,0-1.3-.4l-.6,5.4h-2v-9.3c-.6-.6-1.1-.7-1.6-.6-2.8.2-5.6,2.1-8.6,5.5,0,.7-.1,1.3-.2,2v.2c-.5,1.2-1.2,2.5-2.4,2.5ZM41.6,302.5c.2.4.3.7.4.9.1-.2.3-.4.4-.9.5-3.2.5-6.9,0-11.1-1.3,4-1.6,7.7-.9,11.1ZM44.5,290.4c.3,2.5.4,4.8.4,6.9l4.2-5.6c.8-2.1.9-3.7.4-4.7-.3-.5-.8-.9-1.5-1.1-.8,0-2.7.3-3.5,4.4ZM64.2,294.7c0,.6.3.9.5,1,.1,0,.2,0,.2,0,.1,0,.3-.4.2-1,0-.6-.1-1.3-.2-2-.2.6-.5,1.3-.7,2ZM59.2,281.3c-1.5,3-1.8,6.6-1.6,10,1.4-3.8,2.2-6.6,2.4-8.9h0c.2-1.2.1-1.7,0-2-.2,0-.5.3-.8.8ZM64.6,287.2l-1.3,4c.4-1,.9-2,1.3-2.9,0-.4,0-.7,0-1.1Z"/>
        <path class="cls-1" d="M73.9,299.3c-1.2,0-2.2-1.1-2.5-1.5v-.2c-.9-1.5-1.4-3.7,1-6.4l2.5-2.8c0,0,0,0,0,0,0,0-.1,0-.3,0h-.2c-2.6.4-5.1,1.8-7.6,4.2l-1.4-1.4c2.8-2.7,5.6-4.2,8.6-4.7,1.1-.3,1.8,0,2.2.3,0,0,0,0,.1.1l1-1c1-.9,2.2-1.9,3.4-1.6.8.2,1.4.9,1.7,2,.5,2.6-.5,4.5-2.9,5.4h-.3c0,0-2,.2-2,.2,0,1.1-.3,2.5-.6,4-.3,1.3-.9,3-2.2,3.3-.2,0-.3,0-.5,0ZM72.9,296.5c.6.7.9.8,1,.8,0,0,.4-.2.7-1.8.4-2,.5-3.4.6-4.4l-1.4,1.5c-1.7,1.8-1.4,3.1-.9,3.9ZM77.1,289c0,.3,0,.6,0,1h1.6c1.4-.7,1.9-1.6,1.6-3.1-.1-.4-.3-.5-.3-.6,0,0-.4,0-1.4,1.1l-1.5,1.7Z"/>
      </g>
    </g>
  </g>
  <g>
    <rect class="cls-5" x="141.9" y=".2" width="266.3" height="369.8" rx="15" ry="15"/>
    <path class="cls-3" d="M142.7,34.9h1.1c5.8,0,10.4,4.7,10.4,10.4v321.4h-11.5V34.9h0Z" transform="translate(297 401.6) rotate(180)"/>
    <path class="cls-3" d="M396.7,34.9h11.5v321.4c0,5.8-4.7,10.4-10.4,10.4h-1.1V34.9h0Z"/>
    <rect class="cls-2" x="396.7" y="71" width="11.5" height="57.6" rx="5.2" ry="5.2"/>
    <path class="cls-2" d="M156.9.2h236.3c8.3,0,15,6.7,15,15v19.6H141.9V15.2c0-8.3,6.7-15,15-15Z"/>
    <path class="cls-3" d="M405.8,362.4H144.3l-2.4-8.4c0,9.1,7.4,16.6,16.6,16.6h233.2c9.1,0,16.6-7.4,16.6-16.6l-2.4,8.4Z"/>
    <path class="cls-4" d="M393.2,370.3h-236.3c-8.4,0-15.2-6.8-15.2-15.2V15.2c0-8.4,6.8-15.2,15.2-15.2h236.3c8.4,0,15.2,6.8,15.2,15.2v339.8c0,8.4-6.8,15.2-15.2,15.2ZM156.9.5c-8.1,0-14.8,6.6-14.8,14.8v339.8c0,8.1,6.6,14.8,14.8,14.8h236.3c8.1,0,14.8-6.6,14.8-14.8V15.2c0-8.1-6.6-14.8-14.8-14.8h-236.3Z"/>
    <circle class="cls-5" cx="158.5" cy="18" r="5.3"/>
    <circle class="cls-5" cx="174.7" cy="18" r="5.3"/>
    <circle class="cls-5" cx="191" cy="18" r="5.3"/>
    <g>
      <path class="cls-1" d="M351.2,291.3c-10.7,0-19.4-8.7-19.4-19.4s8.7-19.4,19.4-19.4,19.4,8.7,19.4,19.4-8.7,19.4-19.4,19.4ZM351.2,255.6c-9,0-16.4,7.4-16.4,16.4s7.4,16.4,16.4,16.4,16.4-7.4,16.4-16.4-7.4-16.4-16.4-16.4Z"/>
      <path class="cls-1" d="M358.3,266.4c-.7-.7-1.9-.6-2.6,0l-6.5,6.9c0,0-.1.1-.2.2l-2-1.8c-.7-.7-1.9-.6-2.6.1s-.6,1.9.1,2.6l4.6,4.2,9.1-9.8c.7-.7.6-1.9,0-2.6Z"/>
    </g>
    <g>
      <path class="cls-1" d="M297.3,343.1l-1.9-.7c1.5-3.7,2.1-7.5,2-11.2h2c.2,3.9-.6,7.9-2.1,11.9Z"/>
      <path class="cls-1" d="M292.4,350l1.6-2.6c4-6.4,10.9-11.7,21-16.3.8-.3,1.7-.6,2.5-.8,3.5-3.2,6-5.9,6.4-7,1.1-2.5,1.3-4.2.6-5.2-.8-1.1-2.8-1.1-4.4-1-10.7,1.2-19.4,7-26.4,17.8l-1.7-1.1c7.4-11.3,16.5-17.4,27.9-18.7,3.1-.3,5.1.3,6.2,1.8,1.1,1.6,1,3.9-.4,7.1-.5,1-2.1,3-4.5,5.4,3-.4,6-.4,9.1,0l-.3,2c-3.9-.6-7.7-.5-11.4.5-6.8,6.3-16.8,14.2-23.3,16.8l-2.8,1.1ZM313.2,334.2c-6.6,3.3-11.6,6.9-15.1,11,4.7-2.6,10.3-6.9,15.1-11Z"/>
      <path class="cls-1" d="M329.7,337.1c-.3,0-.6,0-.9-.2-.6-.3-.9-1-.9-1.9-.5.4-1,.9-1.4,1.3l-1.3-1.5c1.7-1.5,3.4-3.1,5-4.6,4.9-9.2,10.3-16.7,16.7-22.8,1.3-1.5,2.9-2,4-1.3.4.3,1.6,1.3.3,3.9h0c-5.1,7-11.6,14.1-19.2,21.4-.6,1.2-1.2,2.4-1.8,3.7,0,0,0,0,0,0,.2,0,.6-.2,1.2-.7l13-12.9.5,1.5c.1.4.2.8.3,1.2,2.7-1.6,5.7-2.8,9-3.5l.4,2c-4,.8-7.6,2.5-10.7,4.8,0,0-.2.1-.3.2l-1.1-1.5-9.9,9.7c-.8.5-1.8,1.1-2.7,1.1ZM349.7,307.7c-.2,0-.8.2-1.4.9h0c-4.7,4.7-9,10-12.9,16.4,5.4-5.5,10.1-10.9,14-16.1.3-.7.4-1,.3-1.2Z"/>
    </g>
    <g>
      <g>
        <path class="cls-1" d="M268.9,74.9c0,.2-20.5.7-45.8.7s-45.8-.5-45.8-.7,20.5-.4,45.8-.4,45.8.2,45.8.4Z"/>
        <path class="cls-1" d="M268.9,84.3c0,.2-20.5.7-45.8.7s-45.8-.5-45.8-.7,20.5-.4,45.8-.4,45.8.2,45.8.4Z"/>
        <path class="cls-1" d="M268.9,95.4c0,.2-20.5.7-45.8.7s-45.8-.5-45.8-.7,20.5-.4,45.8-.4,45.8.2,45.8.4Z"/>
        <path class="cls-1" d="M268.9,106c0,.2-20.5.7-45.8.7s-45.8-.5-45.8-.7,20.5-.4,45.8-.4,45.8.2,45.8.4Z"/>
        <path class="cls-1" d="M268.4,116.5c0,.2-20.5.7-45.8.7s-45.8-.5-45.8-.7,20.5-.4,45.8-.4,45.8.2,45.8.4Z"/>
      </g>
      <g>
        <path class="cls-1" d="M268.6,137.7c0,.2-20.5.7-45.8.7s-45.8-.5-45.8-.7,20.5-.4,45.8-.4,45.8.2,45.8.4Z"/>
        <path class="cls-1" d="M268.6,148.3c0,.2-20.5.7-45.8.7s-45.8-.5-45.8-.7,20.5-.4,45.8-.4,45.8.2,45.8.4Z"/>
        <path class="cls-1" d="M268.6,158.3c0,.2-20.5.7-45.8.7s-45.8-.5-45.8-.7,20.5-.4,45.8-.4,45.8.2,45.8.4Z"/>
        <path class="cls-1" d="M268.6,168.8c0,.2-20.5.7-45.8.7s-45.8-.5-45.8-.7,20.5-.4,45.8-.4,45.8.2,45.8.4Z"/>
        <path class="cls-1" d="M268.1,179.4c0,.2-20.5.7-45.8.7s-45.8-.5-45.8-.7,20.5-.4,45.8-.4,45.8.2,45.8.4Z"/>
        <path class="cls-1" d="M268.1,188.7c0,.2-20.5.7-45.8.7s-45.8-.5-45.8-.7,20.5-.4,45.8-.4,45.8.2,45.8.4Z"/>
        <path class="cls-1" d="M268.1,198.7c0,.2-20.5.7-45.8.7s-45.8-.5-45.8-.7,20.5-.4,45.8-.4,45.8.2,45.8.4Z"/>
        <path class="cls-1" d="M268.1,208.8c0,.2-20.5.7-45.8.7s-45.8-.5-45.8-.7,20.5-.4,45.8-.4,45.8.2,45.8.4Z"/>
      </g>
      <g>
        <path class="cls-1" d="M373.5,137.7c0,.2-20.5.7-45.8.7s-45.8-.5-45.8-.7,20.5-.4,45.8-.4,45.8.2,45.8.4Z"/>
        <path class="cls-1" d="M373.5,148.3c0,.2-20.5.7-45.8.7s-45.8-.5-45.8-.7,20.5-.4,45.8-.4,45.8.2,45.8.4Z"/>
        <path class="cls-1" d="M373.5,158.3c0,.2-20.5.7-45.8.7s-45.8-.5-45.8-.7,20.5-.4,45.8-.4,45.8.2,45.8.4Z"/>
        <path class="cls-1" d="M373.5,168.8c0,.2-20.5.7-45.8.7s-45.8-.5-45.8-.7,20.5-.4,45.8-.4,45.8.2,45.8.4Z"/>
        <path class="cls-1" d="M373,179.4c0,.2-20.5.7-45.8.7s-45.8-.5-45.8-.7,20.5-.4,45.8-.4,45.8.2,45.8.4Z"/>
        <path class="cls-1" d="M373,188.7c0,.2-20.5.7-45.8.7s-45.8-.5-45.8-.7,20.5-.4,45.8-.4,45.8.2,45.8.4Z"/>
        <path class="cls-1" d="M373,198.7c0,.2-20.5.7-45.8.7s-45.8-.5-45.8-.7,20.5-.4,45.8-.4,45.8.2,45.8.4Z"/>
        <path class="cls-1" d="M373,208.8c0,.2-20.5.7-45.8.7s-45.8-.5-45.8-.7,20.5-.4,45.8-.4,45.8.2,45.8.4Z"/>
      </g>
      <g>
        <path class="cls-1" d="M268.9,234.9c0,.2-20.5.7-45.8.7s-45.8-.5-45.8-.7,20.5-.4,45.8-.4,45.8.2,45.8.4Z"/>
        <path class="cls-1" d="M268.9,245.4c0,.2-20.5.7-45.8.7s-45.8-.5-45.8-.7,20.5-.4,45.8-.4,45.8.2,45.8.4Z"/>
        <path class="cls-1" d="M268.9,255.4c0,.2-20.5.7-45.8.7s-45.8-.5-45.8-.7,20.5-.4,45.8-.4,45.8.2,45.8.4Z"/>
        <path class="cls-1" d="M268.9,266c0,.2-20.5.7-45.8.7s-45.8-.5-45.8-.7,20.5-.4,45.8-.4,45.8.2,45.8.4Z"/>
        <path class="cls-1" d="M268.4,276.5c0,.2-20.5.7-45.8.7s-45.8-.5-45.8-.7,20.5-.4,45.8-.4,45.8.2,45.8.4Z"/>
        <path class="cls-1" d="M268.4,285.8c0,.2-20.5.7-45.8.7s-45.8-.5-45.8-.7,20.5-.4,45.8-.4,45.8.2,45.8.4Z"/>
        <path class="cls-1" d="M268.4,295.9c0,.2-20.5.7-45.8.7s-45.8-.5-45.8-.7,20.5-.4,45.8-.4,45.8.2,45.8.4Z"/>
        <path class="cls-1" d="M268.4,306c0,.2-20.5.7-45.8.7s-45.8-.5-45.8-.7,20.5-.4,45.8-.4,45.8.2,45.8.4Z"/>
        <path class="cls-1" d="M267.6,316.6c0,.2-20.5.7-45.8.7s-45.8-.5-45.8-.7,20.5-.4,45.8-.4,45.8.2,45.8.4Z"/>
        <path class="cls-1" d="M267.6,327.3c0,.2-20.5.7-45.8.7s-45.8-.5-45.8-.7,20.5-.4,45.8-.4,45.8.2,45.8.4Z"/>
        <path class="cls-1" d="M267.6,338.1c0,.2-20.5.7-45.8.7s-45.8-.5-45.8-.7,20.5-.4,45.8-.4,45.8.2,45.8.4Z"/>
      </g>
      <g>
        <path class="cls-1" d="M373.5,84.6c0,.2-20.5.7-45.8.7s-45.8-.5-45.8-.7,20.5-.4,45.8-.4,45.8.2,45.8.4Z"/>
        <path class="cls-1" d="M373.5,95.7c0,.2-20.5.7-45.8.7s-45.8-.5-45.8-.7,20.5-.4,45.8-.4,45.8.2,45.8.4Z"/>
        <path class="cls-1" d="M373.5,106.3c0,.2-20.5.7-45.8.7s-45.8-.5-45.8-.7,20.5-.4,45.8-.4,45.8.2,45.8.4Z"/>
        <path class="cls-1" d="M373,116.8c0,.2-20.5.7-45.8.7s-45.8-.5-45.8-.7,20.5-.4,45.8-.4,45.8.2,45.8.4Z"/>
      </g>
      <path class="cls-1" d="M347.8,58.3c0,.3-29,1.1-64.8,1.1s-64.8-.7-64.8-1.1,29-.6,64.8-.6,64.8.3,64.8.6Z"/>
    </g>
  </g>
  <g>
    <path class="cls-3" d="M58.7,178.8h.4c3,0,5.4,2.4,5.4,5.4v155.6h-5.8v-161h0Z" transform="translate(123.1 518.6) rotate(-180)"/>
    <path class="cls-3" d="M186.8,178.8h5.8v152.1c0,3-2.4,5.4-5.4,5.4h-.4v-157.5h0Z"/>
    <path class="cls-3" d="M191.4,337.7H59.4l-1.2-4.1c0,4.4,3.7,8,8.4,8h117.6c4.6,0,8.4-3.6,8.4-8l-1.2,4.1Z"/>
    <rect class="cls-5" x="58.2" y="162" width="134.3" height="179.4" rx="15" ry="15"/>
    <path class="cls-2" d="M73.2,162h104.3c8.3,0,15,6.7,15,15v1.8H58.2v-1.8c0-8.3,6.7-15,15-15Z"/>
    <path class="cls-4" d="M177.6,341.7h-104.3c-8.4,0-15.2-6.8-15.2-15.2v-149.4c0-8.4,6.8-15.2,15.2-15.2h104.3c8.4,0,15.2,6.8,15.2,15.2v149.4c0,8.4-6.8,15.2-15.2,15.2ZM73.2,162.2c-8.1,0-14.8,6.6-14.8,14.8v149.4c0,8.1,6.6,14.8,14.8,14.8h104.3c8.1,0,14.8-6.6,14.8-14.8v-149.4c0-8.1-6.6-14.8-14.8-14.8h-104.3Z"/>
    <ellipse class="cls-5" cx="66.6" cy="170.7" rx="2.7" ry="2.6"/>
    <ellipse class="cls-5" cx="74.8" cy="170.7" rx="2.7" ry="2.6"/>
    <ellipse class="cls-5" cx="83" cy="170.7" rx="2.7" ry="2.6"/>
    <g>
      <path class="cls-1" d="M167.5,197.8c0,.2-19.9.7-44.4.7s-44.4-.5-44.4-.7,19.9-.4,44.4-.4,44.4.2,44.4.4Z"/>
      <path class="cls-1" d="M154.5,192.2c0,.2-14.4.7-32.2.7s-32.2-.5-32.2-.7,14.4-.4,32.2-.4,32.2.2,32.2.4Z"/>
      <path class="cls-1" d="M167.5,206.9c0,.2-19.9.7-44.4.7s-44.4-.5-44.4-.7,19.9-.4,44.4-.4,44.4.2,44.4.4Z"/>
      <path class="cls-1" d="M111.8,222.4c0,.2-7.5.7-16.8.7s-16.8-.5-16.8-.7,7.5-.4,16.8-.4,16.8.2,16.8.4Z"/>
      <path class="cls-1" d="M165.7,231c0,.2-19.9.7-44.4.7s-44.4-.5-44.4-.7,19.9-.4,44.4-.4,44.4.2,44.4.4Z"/>
      <path class="cls-1" d="M126,213.3c.2,0,.7,19.9.7,44.4,0,24.5-.5,44.4-.7,44.4s-.4-19.9-.4-44.4c0-24.5.2-44.4.4-44.4Z"/>
      <path class="cls-1" d="M145.4,214.1c.2,0,.7,19.9.7,44.4,0,24.5-.5,44.4-.7,44.4s-.4-19.9-.4-44.4c0-24.5.2-44.4.4-44.4Z"/>
      <path class="cls-1" d="M105.8,241.8c0,.2-6.4.7-14.3.7s-14.3-.5-14.3-.7,6.4-.4,14.3-.4,14.3.2,14.3.4Z"/>
      <path class="cls-1" d="M99.5,250c0,.2-4.9.7-10.9.7s-10.9-.5-10.9-.7,4.9-.4,10.9-.4,10.9.2,10.9.4Z"/>
      <path class="cls-1" d="M103.2,259.7c0,.2-5.7.7-12.7.7s-12.7-.5-12.7-.7,5.7-.4,12.7-.4,12.7.2,12.7.4Z"/>
      <path class="cls-1" d="M107.2,268.3c0,.2-6.5.7-14.5.7s-14.5-.5-14.5-.7,6.5-.4,14.5-.4,14.5.2,14.5.4Z"/>
      <path class="cls-1" d="M101,278.1c0,.2-5.1.7-11.3.7s-11.3-.5-11.3-.7,5.1-.4,11.3-.4,11.3.2,11.3.4Z"/>
      <path class="cls-1" d="M96,286.3c0,.2-4,.7-8.9.7s-8.9-.5-8.9-.7,4-.4,8.9-.4,8.9.2,8.9.4Z"/>
      <path class="cls-1" d="M164.6,295.9c0,.3-19.3.9-43.1.9s-43.1-.7-43.1-.9,19.3-.5,43.1-.5,43.1.2,43.1.5Z"/>
      <path class="cls-1" d="M166.2,306.2c0,.2-11.7.8-26.2.8s-26.2-.6-26.2-.8,11.7-.4,26.2-.4,26.2.2,26.2.4Z"/>
      <path class="cls-1" d="M161.3,299.2c0,.2-2.9.7-6.5.7s-6.5-.5-6.5-.7,2.9-.3,6.5-.3,6.5.2,6.5.3Z"/>
      <path class="cls-1" d="M141.8,222.1c0,.2-2.9.7-6.5.7s-6.5-.5-6.5-.7,2.9-.3,6.5-.3,6.5.2,6.5.3Z"/>
      <path class="cls-1" d="M162.4,222.1c0,.2-2.9.7-6.5.7s-6.5-.5-6.5-.7,2.9-.3,6.5-.3,6.5.2,6.5.3Z"/>
    </g>
    <g>
      <path class="cls-1" d="M149.8,329.3c-2.7,0-6.1-.9-10.4-2.8-1.8-.8-2.9-2.4-3.6-5-.2-2.1,1-4.1,3.5-6.4,2.2-1.5,4.8-2.3,7.9-2.4,3.4.1,6.8.7,9.9,1.9l8.5,4.3c.7.8.9,1.8.6,2.6-.3.7-.9,1.2-1.6,1.4h-.1s-2.4-.6-2.4-.6c-2.5-.9-3.4-1.7-4.8-3l-.7-.6.7-.7.7.6c1.5,1.3,2.2,2,4.5,2.8l2.1.5c.3,0,.6-.3.7-.7.2-.5,0-1-.4-1.6l-8.2-4.1c-3-1.1-6.2-1.7-9.5-1.8-2.9.1-5.3.9-7.3,2.2-2.2,2-3.3,3.8-3.2,5.4.5,2.2,1.5,3.5,3,4.2,8.2,3.5,13.1,3.6,14.7.2,1-1.8,1-3.4.2-5.2v-.2c0,0,0,0,0-.1,0,0-.3-.2-1.1-.1h-3.3s-.1-.2-.1-.2c-1-1.2-2-2.4-3-2.7-.6.6-1,1.3-1.1,2.2v.7c-.1,0-1.1-.6-1.1-.6l-.3,1.7-1.2-1v.7c-.1,0-3.4.3-3.4.3v-1.4c-.1,0-.8.3-.8.3l-.4-.9,2-1,.2,1.8h1.5c0-.1.3-1.8.3-1.8l1.2,1,.2-1.4,1,.6c.3-.9.8-1.6,1.5-2.3h.2c0-.1.2-.1.2-.1,1.3.2,2.4,1.3,3.7,2.9h2.8c.8,0,1.4,0,1.8.3.2.2.3.4.4.7.9,2,.8,4-.2,6-1,2-2.8,3-5.6,3Z"/>
      <path class="cls-1" d="M149.9,321.1h-7.1v-2.2h7.1v2.2ZM143.8,320.1h5.1v-.2h-5.1v.2Z"/>
    </g>
  </g>
  <metadata>
    <sfw xmlns="http://ns.adobe.com/SaveForWeb/1.0/">
      <slices/>
      <sliceSourceBounds x="277.49" y="776" width="525.76" height="370.48" bottomLeftOrigin="true"/>
    </sfw>
  </metadata>
</svg>