<svg width="20" height="25" viewBox="0 0 20 25" fill="none" xmlns="http://www.w3.org/2000/svg">
<path d="M9.8872 24.0428C11.7667 24.0428 13.4002 22.7728 13.8623 20.9527C13.9393 20.6501 13.7556 20.342 13.4529 20.2636C13.1503 20.1866 12.8408 20.3704 12.7638 20.673C12.4301 21.9891 11.2465 22.9079 9.8872 22.9079C8.52793 22.9079 7.34431 21.9891 7.01058 20.673C6.93356 20.3704 6.62549 20.1866 6.32148 20.2636C6.01882 20.3407 5.83506 20.6487 5.91208 20.9527C6.37418 22.7728 8.00909 24.0428 9.8872 24.0428Z" fill="black"/>
<path d="M9.88738 0.957031C6.22707 0.957031 3.25045 3.935 3.25045 7.59395V14.5119L0.138723 19.0383C0.0198201 19.2113 0.00630845 19.4369 0.103592 19.6234C0.200876 19.8098 0.394093 19.926 0.604875 19.926H19.1699C19.3807 19.926 19.5739 19.8098 19.6712 19.6234C19.7684 19.4369 19.7563 19.2126 19.636 19.0383L16.5243 14.5119V7.59395C16.5243 3.93365 13.5477 0.957031 9.88738 0.957031ZM18.093 18.7938H1.68175L4.2841 15.0091C4.34895 14.9146 4.38408 14.8024 4.38408 14.6889V7.5953C4.38408 4.56059 6.85401 2.09066 9.88873 2.09066C12.9234 2.09066 15.3934 4.56059 15.3934 7.5953V14.6889C15.3934 14.8038 15.4285 14.9159 15.4934 15.0091L18.093 18.7938Z" fill="black"/>
</svg>
