<svg width="14" height="13" viewBox="0 0 14 13" fill="none" xmlns="http://www.w3.org/2000/svg">
<path d="M13.118 0.424632L13.1166 0.423234C12.8942 0.200815 12.5336 0.200814 12.3111 0.423234L0.963493 11.7709C0.741074 11.9933 0.741074 12.3539 0.963494 12.5763L0.964892 12.5777C1.18731 12.8002 1.54792 12.8002 1.77034 12.5777L13.118 1.23008C13.3404 1.00767 13.3404 0.647052 13.118 0.424632Z" fill="black" stroke="black" stroke-width="0.2"/>
<path d="M13.1144 12.578L13.1158 12.5766C13.3382 12.3541 13.3382 11.9935 13.1158 11.7711L1.76818 0.423454C1.54576 0.201035 1.18515 0.201035 0.962729 0.423455L0.961331 0.424853C0.738911 0.647272 0.738911 1.00789 0.96133 1.2303L12.309 12.578C12.5314 12.8004 12.892 12.8004 13.1144 12.578Z" fill="black" stroke="black" stroke-width="0.2"/>
</svg>
