<svg width="86" height="85" viewBox="0 0 86 85" fill="none" xmlns="http://www.w3.org/2000/svg">
<circle cx="42.5391" cy="42.5" r="42.5" fill="#06498B"/>
<path fill-rule="evenodd" clip-rule="evenodd" d="M52.5091 24.6986C51.8199 24.6515 50.816 24.8527 49.4184 25.6147C46.6145 27.1429 45.1912 29.0243 44.4634 30.4776C44.198 31.0084 44.0225 31.4857 43.9048 31.8752C44.1017 31.8902 44.3157 31.9031 44.549 31.9159C44.7117 31.9245 44.8808 31.9309 45.0585 31.9395V38.0139H40.675V31.9203L40.7478 31.916C40.9811 31.9032 41.1951 31.8903 41.392 31.8753C41.2743 31.4858 41.0988 31.0085 40.8334 30.4777C40.1057 29.0244 38.6823 27.143 35.8784 25.6147C34.4808 24.8528 33.4769 24.6516 32.7878 24.6987C32.1328 24.7436 31.6833 25.0154 31.3494 25.4093C30.9941 25.8288 30.7458 26.4217 30.6238 27.0916C30.5018 27.7572 30.5211 28.4208 30.626 28.9152C30.8036 29.7585 31.4265 30.4199 32.5352 30.9314C33.6546 31.4472 35.1186 31.7319 36.6404 31.8667C37.4623 31.9374 38.2778 31.963 39.0312 31.963V38.0139H25.0589C23.8475 38.0139 22.8672 37.0314 22.8672 35.8221V34.9596C22.8672 33.7482 23.8475 32.7678 25.0589 32.7678H31.3026C29.9735 32.0829 28.8305 31.0128 28.4816 29.3732C28.3126 28.5792 28.2976 27.6267 28.4667 26.6978C28.6358 25.771 29.0039 24.7843 29.676 23.9924C30.3694 23.1747 31.3583 22.599 32.6382 22.5112C33.8839 22.4278 35.3115 22.8087 36.9275 23.6906C39.9882 25.3601 41.7005 27.4469 42.6485 29.217C43.5967 27.4469 45.309 25.3601 48.3694 23.6906C49.9854 22.8087 51.4131 22.4277 52.6587 22.5112C53.9386 22.599 54.9275 23.1747 55.621 23.9924C56.2931 24.7843 56.6612 25.771 56.8303 26.6978C56.9993 27.6267 56.9844 28.5792 56.8153 29.3732C56.4664 31.0128 55.3234 32.0829 53.9943 32.7678H60.0194C61.2287 32.7678 62.2111 33.7482 62.2111 34.9596V35.8221C62.2111 37.0314 61.2287 38.0139 60.0194 38.0139H46.7018V31.9609C47.3289 31.9523 47.9904 31.9245 48.656 31.8667C50.1778 31.7318 51.6418 31.4472 52.7612 30.9313C53.8699 30.4198 54.4928 29.7584 54.6704 28.9151C54.7753 28.4207 54.7946 27.7572 54.6726 27.0915C54.5506 26.4216 54.3023 25.8287 53.947 25.4092C53.6131 25.0154 53.164 24.7436 52.5091 24.6986ZM27.8991 40.2057H39.031V62.5H27.8991C27.2934 62.5 26.8033 62.0099 26.8033 61.4041V41.3015C26.8033 40.6958 27.2934 40.2057 27.8991 40.2057ZM40.6748 62.5H45.0582V40.2057H40.6748V62.5ZM57.1813 62.5H46.702V40.2057H57.1813C57.787 40.2057 58.2772 40.6958 58.2772 41.3015V61.4041C58.2772 62.0099 57.787 62.5 57.1813 62.5Z" fill="white"/>
</svg>
