<svg width="22" height="21" viewBox="0 0 22 21" fill="none" xmlns="http://www.w3.org/2000/svg">
<g clip-path="url(#clip0_953_114)">
<path d="M19.8882 8.5464V2.42336C19.8882 1.971 19.5327 1.61558 19.0804 1.61558H15.0414C14.5891 1.61558 14.2336 1.971 14.2336 2.42336V2.89188L11.5679 0.242336C11.2448 -0.0807787 10.744 -0.0807787 10.4209 0.242336L0.72743 9.9358C0.50125 10.162 0.436627 10.5012 0.565873 10.8082C0.695119 11.1152 0.985923 11.309 1.30904 11.309H3.7324V20.1947C3.7324 20.6471 4.08783 21.0025 4.54019 21.0025H8.57913H13.4259H17.4648C17.9172 21.0025 18.2726 20.6471 18.2726 20.1947V11.309H20.696C21.0191 11.309 21.3099 11.1152 21.4391 10.8082C21.5684 10.5012 21.4876 10.162 21.2614 9.9358L19.8882 8.5464ZM15.8492 3.23115H18.2726V6.93082L15.8492 4.50746V3.23115ZM12.6181 19.3869H9.38692V16.1558H12.6181V19.3869ZM17.4648 9.69346C17.0124 9.69346 16.657 10.0489 16.657 10.5012V19.3869H14.2336V15.348C14.2336 14.8956 13.8782 14.5402 13.4259 14.5402H8.57913C8.12677 14.5402 7.77134 14.8956 7.77134 15.348V19.3869H5.34798V10.5012C5.34798 10.0489 4.99255 9.69346 4.54019 9.69346H3.26389L11.0025 1.95485L14.476 5.42834L18.5149 9.46728L18.7573 9.70962H17.4648V9.69346Z" fill="#012555"/>
</g>
<defs>
<clipPath id="clip0_953_114">
<rect width="21" height="21" fill="white" transform="translate(0.5)"/>
</clipPath>
</defs>
</svg>
