<svg width="24" height="23" viewBox="0 0 24 23" fill="none" xmlns="http://www.w3.org/2000/svg">
<g clip-path="url(#clip0_953_120)">
<path d="M9.76669 21.457C9.87912 21.457 9.97005 21.5479 9.97005 21.6595C9.97005 21.772 9.87912 21.8621 9.76669 21.8621H3.94127C3.61723 21.8621 3.3221 21.7232 3.10882 21.5C2.89802 21.2793 2.76741 20.9759 2.76741 20.6419V9.53983C2.76741 9.4274 2.85834 9.3373 2.96994 9.3373C3.08236 9.3373 3.17247 9.42823 3.17247 9.53983V20.6419C3.17247 20.8684 3.2601 21.0726 3.40145 21.2214C3.54033 21.3669 3.73129 21.457 3.94044 21.457H9.76669ZM10.5454 8.87015H13.6189C13.642 8.87015 13.6627 8.86106 13.6784 8.84535L13.6842 8.84039C13.6957 8.82551 13.7032 8.80732 13.7032 8.78666V5.31705C13.7032 5.2939 13.6941 5.27324 13.6784 5.25753C13.6635 5.24265 13.642 5.23273 13.6189 5.23273H10.5454C10.5223 5.23273 10.5016 5.24182 10.4859 5.25753C10.471 5.27241 10.4611 5.29391 10.4611 5.31705V8.78666C10.4611 8.81063 10.4702 8.8313 10.4851 8.84618L10.4859 8.84535C10.5008 8.86106 10.5223 8.87015 10.5454 8.87015ZM13.6189 9.27522H10.5454C10.4107 9.27522 10.2883 9.21984 10.199 9.13138C10.1106 9.04292 10.056 8.91893 10.056 8.78501V5.31541C10.056 5.18066 10.1114 5.05833 10.199 4.96904C10.2875 4.88059 10.4107 4.82603 10.5454 4.82603H13.6189C13.7536 4.82603 13.8759 4.88142 13.9652 4.96904C14.0537 5.05749 14.1082 5.18067 14.1082 5.31541V8.78501C14.1082 8.91232 14.0586 9.02969 13.9784 9.1165C13.9743 9.12146 13.9702 9.1256 13.9652 9.13056C13.8768 9.21901 13.7536 9.27522 13.6189 9.27522ZM10.3088 9.92085C10.3088 9.80842 10.3998 9.71832 10.5113 9.71832C10.6238 9.71832 10.7139 9.80925 10.7139 9.92085V21.2932C10.7139 21.3783 10.7469 21.4544 10.799 21.5089C10.8495 21.5619 10.9197 21.5941 10.9958 21.5941H13.1666C13.2427 21.5941 13.3129 21.561 13.3634 21.5089C13.4163 21.4544 13.4485 21.3783 13.4485 21.2932V9.92085C13.4485 9.80842 13.5395 9.71832 13.6511 9.71832C13.7635 9.71832 13.8536 9.80925 13.8536 9.92085V21.2932C13.8536 21.4858 13.7775 21.6619 13.6544 21.79C13.5295 21.9198 13.3559 22 13.1658 22H10.9949C10.8048 22 10.6312 21.919 10.5064 21.79C10.3832 21.6619 10.3072 21.4866 10.3072 21.2932V9.92085H10.3088ZM16.7386 4.57561C16.6419 4.63182 16.5179 4.59875 16.4625 4.50121C16.4063 4.40449 16.4394 4.28131 16.5361 4.2251C16.8535 4.04241 17.0743 3.81673 17.2123 3.57287C17.3636 3.30586 17.4182 3.01488 17.3917 2.73547C17.381 2.62221 17.357 2.51144 17.3214 2.4048C17.2851 2.29816 17.2363 2.19566 17.1768 2.09976C17.1164 2.00304 17.0445 1.91376 16.9643 1.83358C16.8833 1.75422 16.7932 1.68313 16.6948 1.62361C16.4435 1.47067 16.1393 1.38635 15.8037 1.40868C15.5003 1.42935 15.1696 1.53681 14.8282 1.75917L12.6491 3.18187C12.5557 3.24222 12.43 3.21577 12.3697 3.12235C12.3474 3.08846 12.3366 3.05043 12.3366 3.01241L12.3358 2.63876C12.3358 2.56932 12.3069 2.50567 12.2606 2.45937L12.2532 2.45111C12.2077 2.40977 12.1482 2.38497 12.0812 2.38497C12.0118 2.38497 11.9481 2.41308 11.901 2.45937C11.8555 2.50567 11.8266 2.56932 11.8266 2.63876V3.0124C11.8266 3.12483 11.7357 3.21494 11.6241 3.21494C11.5778 3.21494 11.534 3.19923 11.5001 3.17278L9.33513 1.75918C8.99372 1.5368 8.66305 1.42852 8.35884 1.40869C8.02405 1.38637 7.71983 1.47069 7.46853 1.62361C7.37016 1.68313 7.27922 1.75423 7.19904 1.83359C7.11803 1.91377 7.04694 2.00305 6.98659 2.09977L6.9775 2.113C6.92211 2.20393 6.87665 2.3023 6.84193 2.40481C6.80638 2.51145 6.78241 2.62303 6.77166 2.73547C6.74604 3.01488 6.79977 3.30587 6.95187 3.57287C7.09075 3.81673 7.31147 4.04243 7.62891 4.22593C7.72563 4.28132 7.75869 4.40449 7.70331 4.50204C7.64792 4.59876 7.52475 4.63182 7.4272 4.57644C7.0428 4.35406 6.77247 4.0763 6.60055 3.77292C6.40545 3.42985 6.33684 3.05785 6.36992 2.69991C6.38314 2.55442 6.41373 2.41223 6.4592 2.27748C6.50301 2.14605 6.56253 2.01955 6.63528 1.90136C6.63776 1.8964 6.64024 1.89144 6.64354 1.88648C6.72042 1.76414 6.81218 1.64923 6.91635 1.54589C7.01886 1.44504 7.13375 1.35493 7.25859 1.27806C7.57851 1.08379 7.96373 0.976318 8.38698 1.00443C8.7565 1.02923 9.15247 1.15736 9.55587 1.42023L11.4225 2.63873C11.4225 2.45769 11.4969 2.29153 11.6167 2.17249C11.7358 2.05263 11.9003 1.97905 12.0813 1.97905C12.2558 1.97905 12.4153 2.04767 12.5343 2.16009C12.5385 2.16423 12.5434 2.16753 12.5476 2.17167C12.6674 2.29153 12.741 2.45605 12.741 2.6379L14.6076 1.42023C15.011 1.15735 15.407 1.02921 15.7757 1.00525C16.1989 0.977141 16.5841 1.08378 16.9041 1.27806C17.0289 1.35411 17.1438 1.44504 17.2463 1.54589C17.3505 1.64922 17.4422 1.76412 17.5191 1.88648C17.5943 2.00717 17.6563 2.13861 17.7034 2.2775C17.7489 2.41308 17.7795 2.55444 17.7927 2.69993C17.8258 3.0587 17.7572 3.43069 17.5629 3.77376C17.391 4.07715 17.1207 4.35573 16.7387 4.57728L16.7386 4.57561ZM9.10699 8.69406C9.21942 8.69406 9.30953 8.78499 9.30953 8.89659C9.30953 9.00901 9.21859 9.09912 9.10699 9.09912H2.39528C2.14893 9.09912 1.9249 8.99827 1.76288 8.83624C1.60086 8.67421 1.5 8.45019 1.5 8.20384V5.895C1.5 5.64865 1.60085 5.42462 1.76288 5.2626C1.92491 5.10058 2.14893 4.99972 2.39528 4.99972H9.10699C9.21942 4.99972 9.30953 5.09065 9.30953 5.20225C9.30953 5.31468 9.21859 5.40478 9.10699 5.40478H2.39528C2.26054 5.40478 2.1382 5.46017 2.04891 5.54945C1.96046 5.6379 1.90507 5.76025 1.90507 5.89499V8.20383C1.90507 8.33857 1.96046 8.46091 2.04974 8.54937C2.13819 8.63782 2.26054 8.69321 2.39528 8.69321L9.10699 8.69406ZM15.0308 5.4056C14.9184 5.4056 14.8283 5.31467 14.8283 5.20307C14.8283 5.09064 14.9192 5.00054 15.0308 5.00054H21.7681C22.0145 5.00054 22.2377 5.10139 22.4005 5.26342C22.5626 5.42545 22.6634 5.64947 22.6634 5.89582V8.20466C22.6634 8.45019 22.5626 8.67421 22.4005 8.83706C22.2385 8.99908 22.0145 9.09994 21.769 9.09994H15.0316C14.9192 9.09994 14.8291 9.00901 14.8291 8.89741C14.8291 8.78498 14.92 8.69488 15.0316 8.69488H21.769C21.9037 8.69488 22.0252 8.63949 22.1145 8.55104C22.203 8.46258 22.2583 8.33941 22.2583 8.20549V5.89666C22.2583 5.76191 22.203 5.63957 22.1145 5.55112C22.0261 5.46266 21.9029 5.40645 21.769 5.40645H15.0316L15.0308 5.4056ZM20.991 9.53887C20.991 9.42644 21.082 9.33633 21.1936 9.33633C21.306 9.33633 21.3961 9.42727 21.3961 9.53887V20.641C21.3961 20.9749 21.2655 21.2783 21.0547 21.499C20.8414 21.7222 20.5471 21.8611 20.2222 21.8611H14.5587C14.4463 21.8611 14.3562 21.7702 14.3562 21.6586C14.3562 21.5462 14.4471 21.456 14.5587 21.456H20.2222C20.4322 21.456 20.6232 21.3659 20.7612 21.2204C20.9026 21.0725 20.9902 20.8675 20.9902 20.641L20.991 9.53887Z" fill="#012555"/>
<mask id="mask0_953_120" style="mask-type:luminance" maskUnits="userSpaceOnUse" x="0" y="0" width="24" height="23">
<path d="M23.5 0H0.5V23H23.5V0Z" fill="white"/>
<path d="M9.76669 21.457C9.87912 21.457 9.97005 21.5479 9.97005 21.6595C9.97005 21.772 9.87912 21.8621 9.76669 21.8621H3.94127C3.61723 21.8621 3.3221 21.7232 3.10882 21.5C2.89802 21.2793 2.76741 20.9759 2.76741 20.6419V9.53983C2.76741 9.4274 2.85834 9.3373 2.96994 9.3373C3.08236 9.3373 3.17247 9.42823 3.17247 9.53983V20.6419C3.17247 20.8684 3.2601 21.0726 3.40145 21.2214C3.54033 21.3669 3.73129 21.457 3.94044 21.457H9.76669ZM10.5454 8.87015H13.6189C13.642 8.87015 13.6627 8.86106 13.6784 8.84535L13.6842 8.84039C13.6957 8.82551 13.7032 8.80732 13.7032 8.78666V5.31705C13.7032 5.2939 13.6941 5.27324 13.6784 5.25753C13.6635 5.24265 13.642 5.23273 13.6189 5.23273H10.5454C10.5223 5.23273 10.5016 5.24182 10.4859 5.25753C10.471 5.27241 10.4611 5.29391 10.4611 5.31705V8.78666C10.4611 8.81063 10.4702 8.8313 10.4851 8.84618L10.4859 8.84535C10.5008 8.86106 10.5223 8.87015 10.5454 8.87015ZM13.6189 9.27522H10.5454C10.4107 9.27522 10.2883 9.21984 10.199 9.13138C10.1106 9.04292 10.056 8.91893 10.056 8.78501V5.31541C10.056 5.18066 10.1114 5.05833 10.199 4.96904C10.2875 4.88059 10.4107 4.82603 10.5454 4.82603H13.6189C13.7536 4.82603 13.8759 4.88142 13.9652 4.96904C14.0537 5.05749 14.1082 5.18067 14.1082 5.31541V8.78501C14.1082 8.91232 14.0586 9.02969 13.9784 9.1165C13.9743 9.12146 13.9702 9.1256 13.9652 9.13056C13.8768 9.21901 13.7536 9.27522 13.6189 9.27522ZM10.3088 9.92085C10.3088 9.80842 10.3998 9.71832 10.5113 9.71832C10.6238 9.71832 10.7139 9.80925 10.7139 9.92085V21.2932C10.7139 21.3783 10.7469 21.4544 10.799 21.5089C10.8495 21.5619 10.9197 21.5941 10.9958 21.5941H13.1666C13.2427 21.5941 13.3129 21.561 13.3634 21.5089C13.4163 21.4544 13.4485 21.3783 13.4485 21.2932V9.92085C13.4485 9.80842 13.5395 9.71832 13.6511 9.71832C13.7635 9.71832 13.8536 9.80925 13.8536 9.92085V21.2932C13.8536 21.4858 13.7775 21.6619 13.6544 21.79C13.5295 21.9198 13.3559 22 13.1658 22H10.9949C10.8048 22 10.6312 21.919 10.5064 21.79C10.3832 21.6619 10.3072 21.4866 10.3072 21.2932V9.92085H10.3088ZM16.7386 4.57561C16.6419 4.63182 16.5179 4.59875 16.4625 4.50121C16.4063 4.40449 16.4394 4.28131 16.5361 4.2251C16.8535 4.04241 17.0743 3.81673 17.2123 3.57287C17.3636 3.30586 17.4182 3.01488 17.3917 2.73547C17.381 2.62221 17.357 2.51144 17.3214 2.4048C17.2851 2.29816 17.2363 2.19566 17.1768 2.09976C17.1164 2.00304 17.0445 1.91376 16.9643 1.83358C16.8833 1.75422 16.7932 1.68313 16.6948 1.62361C16.4435 1.47067 16.1393 1.38635 15.8037 1.40868C15.5003 1.42935 15.1696 1.53681 14.8282 1.75917L12.6491 3.18187C12.5557 3.24222 12.43 3.21577 12.3697 3.12235C12.3474 3.08846 12.3366 3.05043 12.3366 3.01241L12.3358 2.63876C12.3358 2.56932 12.3069 2.50567 12.2606 2.45937L12.2532 2.45111C12.2077 2.40977 12.1482 2.38497 12.0812 2.38497C12.0118 2.38497 11.9481 2.41308 11.901 2.45937C11.8555 2.50567 11.8266 2.56932 11.8266 2.63876V3.0124C11.8266 3.12483 11.7357 3.21494 11.6241 3.21494C11.5778 3.21494 11.534 3.19923 11.5001 3.17278L9.33513 1.75918C8.99372 1.5368 8.66305 1.42852 8.35884 1.40869C8.02405 1.38637 7.71983 1.47069 7.46853 1.62361C7.37016 1.68313 7.27922 1.75423 7.19904 1.83359C7.11803 1.91377 7.04694 2.00305 6.98659 2.09977L6.9775 2.113C6.92211 2.20393 6.87665 2.3023 6.84193 2.40481C6.80638 2.51145 6.78241 2.62303 6.77166 2.73547C6.74604 3.01488 6.79977 3.30587 6.95187 3.57287C7.09075 3.81673 7.31147 4.04243 7.62891 4.22593C7.72563 4.28132 7.75869 4.40449 7.70331 4.50204C7.64792 4.59876 7.52475 4.63182 7.4272 4.57644C7.0428 4.35406 6.77247 4.0763 6.60055 3.77292C6.40545 3.42985 6.33684 3.05785 6.36992 2.69991C6.38314 2.55442 6.41373 2.41223 6.4592 2.27748C6.50301 2.14605 6.56253 2.01955 6.63528 1.90136C6.63776 1.8964 6.64024 1.89144 6.64354 1.88648C6.72042 1.76414 6.81218 1.64923 6.91635 1.54589C7.01886 1.44504 7.13375 1.35493 7.25859 1.27806C7.57851 1.08379 7.96373 0.976318 8.38698 1.00443C8.7565 1.02923 9.15247 1.15736 9.55587 1.42023L11.4225 2.63873C11.4225 2.45769 11.4969 2.29153 11.6167 2.17249C11.7358 2.05263 11.9003 1.97905 12.0813 1.97905C12.2558 1.97905 12.4153 2.04767 12.5343 2.16009C12.5385 2.16423 12.5434 2.16753 12.5476 2.17167C12.6674 2.29153 12.741 2.45605 12.741 2.6379L14.6076 1.42023C15.011 1.15735 15.407 1.02921 15.7757 1.00525C16.1989 0.977141 16.5841 1.08378 16.9041 1.27806C17.0289 1.35411 17.1438 1.44504 17.2463 1.54589C17.3505 1.64922 17.4422 1.76412 17.5191 1.88648C17.5943 2.00717 17.6563 2.13861 17.7034 2.2775C17.7489 2.41308 17.7795 2.55444 17.7927 2.69993C17.8258 3.0587 17.7572 3.43069 17.5629 3.77376C17.391 4.07715 17.1207 4.35573 16.7387 4.57728L16.7386 4.57561ZM9.10699 8.69406C9.21942 8.69406 9.30953 8.78499 9.30953 8.89659C9.30953 9.00901 9.21859 9.09912 9.10699 9.09912H2.39528C2.14893 9.09912 1.9249 8.99827 1.76288 8.83624C1.60086 8.67421 1.5 8.45019 1.5 8.20384V5.895C1.5 5.64865 1.60085 5.42462 1.76288 5.2626C1.92491 5.10058 2.14893 4.99972 2.39528 4.99972H9.10699C9.21942 4.99972 9.30953 5.09065 9.30953 5.20225C9.30953 5.31468 9.21859 5.40478 9.10699 5.40478H2.39528C2.26054 5.40478 2.1382 5.46017 2.04891 5.54945C1.96046 5.6379 1.90507 5.76025 1.90507 5.89499V8.20383C1.90507 8.33857 1.96046 8.46091 2.04974 8.54937C2.13819 8.63782 2.26054 8.69321 2.39528 8.69321L9.10699 8.69406ZM15.0308 5.4056C14.9184 5.4056 14.8283 5.31467 14.8283 5.20307C14.8283 5.09064 14.9192 5.00054 15.0308 5.00054H21.7681C22.0145 5.00054 22.2377 5.10139 22.4005 5.26342C22.5626 5.42545 22.6634 5.64947 22.6634 5.89582V8.20466C22.6634 8.45019 22.5626 8.67421 22.4005 8.83706C22.2385 8.99908 22.0145 9.09994 21.769 9.09994H15.0316C14.9192 9.09994 14.8291 9.00901 14.8291 8.89741C14.8291 8.78498 14.92 8.69488 15.0316 8.69488H21.769C21.9037 8.69488 22.0252 8.63949 22.1145 8.55104C22.203 8.46258 22.2583 8.33941 22.2583 8.20549V5.89666C22.2583 5.76191 22.203 5.63957 22.1145 5.55112C22.0261 5.46266 21.9029 5.40645 21.769 5.40645H15.0316L15.0308 5.4056ZM20.991 9.53887C20.991 9.42644 21.082 9.33633 21.1936 9.33633C21.306 9.33633 21.3961 9.42727 21.3961 9.53887V20.641C21.3961 20.9749 21.2655 21.2783 21.0547 21.499C20.8414 21.7222 20.5471 21.8611 20.2222 21.8611H14.5587C14.4463 21.8611 14.3562 21.7702 14.3562 21.6586C14.3562 21.5462 14.4471 21.456 14.5587 21.456H20.2222C20.4322 21.456 20.6232 21.3659 20.7612 21.2204C20.9026 21.0725 20.9902 20.8675 20.9902 20.641L20.991 9.53887Z" fill="black"/>
</mask>
<g mask="url(#mask0_953_120)">
<path d="M10.199 9.13138C10.2883 9.21984 10.4107 9.27522 10.5454 9.27522H13.6189C13.7536 9.27522 13.8768 9.21901 13.9652 9.13056C13.9702 9.1256 13.9743 9.12146 13.9784 9.1165C14.0586 9.02969 14.1082 8.91232 14.1082 8.78501V5.31541C14.1082 5.18067 14.0537 5.05749 13.9652 4.96904C13.8759 4.88142 13.7536 4.82603 13.6189 4.82603H10.5454C10.4107 4.82603 10.2875 4.88059 10.199 4.96904C10.1114 5.05833 10.056 5.18066 10.056 5.31541V8.78501C10.056 8.91893 10.1106 9.04292 10.199 9.13138ZM10.199 9.13138L10.1999 9.13056M9.76669 21.457C9.87912 21.457 9.97005 21.5479 9.97005 21.6595C9.97005 21.772 9.87912 21.8621 9.76669 21.8621H3.94127C3.61723 21.8621 3.3221 21.7232 3.10882 21.5C2.89802 21.2793 2.76741 20.9759 2.76741 20.6419V9.53983C2.76741 9.4274 2.85834 9.3373 2.96994 9.3373C3.08236 9.3373 3.17247 9.42823 3.17247 9.53983V20.6419C3.17247 20.8684 3.2601 21.0726 3.40145 21.2214C3.54033 21.3669 3.73129 21.457 3.94044 21.457H9.76669ZM10.5454 8.87015H13.6189C13.642 8.87015 13.6627 8.86106 13.6784 8.84535L13.6842 8.84039C13.6957 8.82551 13.7032 8.80732 13.7032 8.78666V5.31705C13.7032 5.2939 13.6941 5.27324 13.6784 5.25753C13.6635 5.24265 13.642 5.23273 13.6189 5.23273H10.5454C10.5223 5.23273 10.5016 5.24182 10.4859 5.25753C10.471 5.27241 10.4611 5.29391 10.4611 5.31705V8.78666C10.4611 8.81063 10.4702 8.8313 10.4851 8.84618L10.4859 8.84535C10.5008 8.86106 10.5223 8.87015 10.5454 8.87015ZM10.3088 9.92085C10.3088 9.80842 10.3998 9.71832 10.5113 9.71832C10.6238 9.71832 10.7139 9.80925 10.7139 9.92085V21.2932C10.7139 21.3783 10.7469 21.4544 10.799 21.5089C10.8495 21.5619 10.9197 21.5941 10.9958 21.5941H13.1666C13.2427 21.5941 13.3129 21.561 13.3634 21.5089C13.4163 21.4544 13.4485 21.3783 13.4485 21.2932V9.92085C13.4485 9.80842 13.5395 9.71832 13.6511 9.71832C13.7635 9.71832 13.8536 9.80925 13.8536 9.92085V21.2932C13.8536 21.4858 13.7775 21.6619 13.6544 21.79C13.5295 21.9198 13.3559 22 13.1658 22H10.9949C10.8048 22 10.6312 21.919 10.5064 21.79C10.3832 21.6619 10.3072 21.4866 10.3072 21.2932V9.92085H10.3088ZM16.7386 4.57561C16.6419 4.63182 16.5179 4.59875 16.4625 4.50121C16.4063 4.40449 16.4394 4.28131 16.5361 4.2251C16.8535 4.04241 17.0743 3.81673 17.2123 3.57287C17.3636 3.30586 17.4182 3.01488 17.3917 2.73547C17.381 2.62221 17.357 2.51144 17.3214 2.4048C17.2851 2.29816 17.2363 2.19566 17.1768 2.09976C17.1164 2.00304 17.0445 1.91376 16.9643 1.83358C16.8833 1.75422 16.7932 1.68313 16.6948 1.62361C16.4435 1.47067 16.1393 1.38635 15.8037 1.40868C15.5003 1.42935 15.1696 1.53681 14.8282 1.75917L12.6491 3.18187C12.5557 3.24222 12.43 3.21577 12.3697 3.12235C12.3474 3.08846 12.3366 3.05043 12.3366 3.01241L12.3358 2.63876C12.3358 2.56932 12.3069 2.50567 12.2606 2.45937L12.2532 2.45111C12.2077 2.40977 12.1482 2.38497 12.0812 2.38497C12.0118 2.38497 11.9481 2.41308 11.901 2.45937C11.8555 2.50567 11.8266 2.56932 11.8266 2.63876V3.0124C11.8266 3.12483 11.7357 3.21494 11.6241 3.21494C11.5778 3.21494 11.534 3.19923 11.5001 3.17278L9.33513 1.75918C8.99372 1.5368 8.66305 1.42852 8.35884 1.40869C8.02405 1.38637 7.71983 1.47069 7.46853 1.62361C7.37016 1.68313 7.27922 1.75423 7.19904 1.83359C7.11803 1.91377 7.04694 2.00305 6.98659 2.09977L6.9775 2.113C6.92211 2.20393 6.87665 2.3023 6.84193 2.40481C6.80638 2.51145 6.78241 2.62303 6.77166 2.73547C6.74604 3.01488 6.79977 3.30587 6.95187 3.57287C7.09075 3.81673 7.31147 4.04243 7.62891 4.22593C7.72563 4.28132 7.75869 4.40449 7.70331 4.50204C7.64792 4.59876 7.52475 4.63182 7.4272 4.57644C7.0428 4.35406 6.77247 4.0763 6.60055 3.77292C6.40545 3.42985 6.33684 3.05785 6.36992 2.69991C6.38314 2.55442 6.41373 2.41223 6.4592 2.27748C6.50301 2.14605 6.56253 2.01955 6.63528 1.90136C6.63776 1.8964 6.64024 1.89144 6.64354 1.88648C6.72042 1.76414 6.81218 1.64923 6.91635 1.54589C7.01886 1.44504 7.13375 1.35493 7.25859 1.27806C7.57851 1.08379 7.96373 0.976318 8.38698 1.00443C8.7565 1.02923 9.15247 1.15736 9.55587 1.42023L11.4225 2.63873C11.4225 2.45769 11.4969 2.29153 11.6167 2.17249C11.7358 2.05263 11.9003 1.97905 12.0813 1.97905C12.2558 1.97905 12.4153 2.04767 12.5343 2.16009C12.5385 2.16423 12.5434 2.16753 12.5476 2.17167C12.6674 2.29153 12.741 2.45605 12.741 2.6379L14.6076 1.42023C15.011 1.15735 15.407 1.02921 15.7757 1.00525C16.1989 0.977141 16.5841 1.08378 16.9041 1.27806C17.0289 1.35411 17.1438 1.44504 17.2463 1.54589C17.3505 1.64922 17.4422 1.76412 17.5191 1.88648C17.5943 2.00717 17.6563 2.13861 17.7034 2.2775C17.7489 2.41308 17.7795 2.55444 17.7927 2.69993C17.8258 3.0587 17.7572 3.43069 17.5629 3.77376C17.391 4.07715 17.1207 4.35573 16.7387 4.57728L16.7386 4.57561ZM9.10699 8.69406C9.21942 8.69406 9.30953 8.78499 9.30953 8.89659C9.30953 9.00901 9.21859 9.09912 9.10699 9.09912H2.39528C2.14893 9.09912 1.9249 8.99827 1.76288 8.83624C1.60086 8.67421 1.5 8.45019 1.5 8.20384V5.895C1.5 5.64865 1.60085 5.42462 1.76288 5.2626C1.92491 5.10058 2.14893 4.99972 2.39528 4.99972H9.10699C9.21942 4.99972 9.30953 5.09065 9.30953 5.20225C9.30953 5.31468 9.21859 5.40478 9.10699 5.40478H2.39528C2.26054 5.40478 2.1382 5.46017 2.04891 5.54945C1.96046 5.6379 1.90507 5.76025 1.90507 5.89499V8.20383C1.90507 8.33857 1.96046 8.46091 2.04974 8.54937C2.13819 8.63782 2.26054 8.69321 2.39528 8.69321L9.10699 8.69406ZM15.0308 5.4056C14.9184 5.4056 14.8283 5.31467 14.8283 5.20307C14.8283 5.09064 14.9192 5.00054 15.0308 5.00054H21.7681C22.0145 5.00054 22.2377 5.10139 22.4005 5.26342C22.5626 5.42545 22.6634 5.64947 22.6634 5.89582V8.20466C22.6634 8.45019 22.5626 8.67421 22.4005 8.83706C22.2385 8.99908 22.0145 9.09994 21.769 9.09994H15.0316C14.9192 9.09994 14.8291 9.00901 14.8291 8.89741C14.8291 8.78498 14.92 8.69488 15.0316 8.69488H21.769C21.9037 8.69488 22.0252 8.63949 22.1145 8.55104C22.203 8.46258 22.2583 8.33941 22.2583 8.20549V5.89666C22.2583 5.76191 22.203 5.63957 22.1145 5.55112C22.0261 5.46266 21.9029 5.40645 21.769 5.40645H15.0316L15.0308 5.4056ZM20.991 9.53887C20.991 9.42644 21.082 9.33633 21.1936 9.33633C21.306 9.33633 21.3961 9.42727 21.3961 9.53887V20.641C21.3961 20.9749 21.2655 21.2783 21.0547 21.499C20.8414 21.7222 20.5471 21.8611 20.2222 21.8611H14.5587C14.4463 21.8611 14.3562 21.7702 14.3562 21.6586C14.3562 21.5462 14.4471 21.456 14.5587 21.456H20.2222C20.4322 21.456 20.6232 21.3659 20.7612 21.2204C20.9026 21.0725 20.9902 20.8675 20.9902 20.641L20.991 9.53887Z" stroke="#012555" stroke-width="0.8"/>
</g>
</g>
<defs>
<clipPath id="clip0_953_120">
<rect width="23" height="23" fill="white" transform="translate(0.5)"/>
</clipPath>
</defs>
</svg>
