<svg width="22" height="21" viewBox="0 0 22 21" fill="none" xmlns="http://www.w3.org/2000/svg">
<g clip-path="url(#clip0_953_116)">
<path d="M3.7463 18.2313C3.7463 16.236 4.56205 14.4226 5.87664 13.108C7.19058 11.794 9.00465 10.9776 11 10.9776C12.9953 10.9776 14.8094 11.794 16.1234 13.108C17.438 14.4226 18.2537 16.236 18.2537 18.2313C18.2537 18.5431 18.0011 18.7957 17.6893 18.7957H4.31006C3.99829 18.7957 3.7463 18.5431 3.7463 18.2313ZM20.3712 15.48C20.3712 15.1682 20.6238 14.9156 20.9356 14.9156C21.2474 14.9156 21.5 15.1682 21.5 15.48V20.435C21.5 20.7467 21.2474 20.9994 20.9356 20.9994H15.9807C15.6689 20.9994 15.4162 20.7467 15.4162 20.435C15.4162 20.1232 15.6689 19.8705 15.9807 19.8705H20.3718L20.3712 15.48ZM6.01999 19.8712C6.33176 19.8712 6.58439 20.1238 6.58439 20.4356C6.58439 20.7474 6.33176 21 6.01999 21H1.06505C0.753275 21 0.500643 20.7474 0.500643 20.4356V15.4807C0.500643 15.1689 0.753275 14.9162 1.06505 14.9162C1.37682 14.9162 1.62945 15.1689 1.62945 15.4807V19.8718L6.01999 19.8712ZM1.62881 5.51999C1.62881 5.83176 1.37618 6.08439 1.06441 6.08439C0.752633 6.08439 0.5 5.83176 0.5 5.51999V0.565048C0.5 0.253275 0.752633 0.00064283 1.06441 0.00064283H6.01935C6.33112 0.00064283 6.58375 0.253275 6.58375 0.565048C6.58375 0.876821 6.33112 1.12945 6.01935 1.12945H1.62817L1.62881 5.51999ZM15.98 1.12881C15.6682 1.12881 15.4156 0.876178 15.4156 0.564405C15.4156 0.252633 15.6682 0 15.98 0H20.9349C21.2467 0 21.4994 0.252633 21.4994 0.564405V5.51935C21.4994 5.83112 21.2467 6.08375 20.9349 6.08375C20.6232 6.08375 20.3705 5.83112 20.3705 5.51935V1.12817L15.98 1.12881ZM11 2.20362C11.9713 2.20362 12.8514 2.59768 13.4884 3.23472C14.1254 3.87177 14.5195 4.75116 14.5195 5.72312C14.5195 6.69444 14.1254 7.57448 13.4884 8.21152C12.8514 8.84857 11.972 9.24262 11 9.24262C10.0287 9.24262 9.14865 8.84857 8.5116 8.21152C7.87456 7.57448 7.4805 6.69508 7.4805 5.72312C7.4805 4.75181 7.87456 3.87177 8.5116 3.23472C9.14865 2.59768 10.028 2.20362 11 2.20362ZM12.6906 4.03184C12.258 3.59921 11.6602 3.33179 11 3.33179C10.3398 3.33179 9.74198 3.59921 9.30935 4.03184C8.87673 4.46446 8.60931 5.06229 8.60931 5.72248C8.60931 6.38267 8.87673 6.9805 9.30935 7.41313C9.74198 7.84575 10.3398 8.11317 11 8.11317C11.6602 8.11317 12.258 7.84511 12.6906 7.41313C13.1233 6.9805 13.3907 6.38267 13.3907 5.72248C13.3907 5.06229 13.1233 4.46446 12.6906 4.03184ZM6.67439 13.9057C5.68957 14.8905 5.03581 16.2071 4.90082 17.6669H17.0992C16.9642 16.2071 16.3104 14.8905 15.3256 13.9057C14.2148 12.7949 12.6842 12.1058 11 12.1058C9.31578 12.1058 7.78456 12.7949 6.67439 13.9057Z" fill="#012555"/>
</g>
<defs>
<clipPath id="clip0_953_116">
<rect width="21" height="21" fill="white" transform="translate(0.5)"/>
</clipPath>
</defs>
</svg>
