<svg width="91" height="91" viewBox="0 0 91 91" fill="none" xmlns="http://www.w3.org/2000/svg">
<circle cx="45.0391" cy="45.5" r="45" fill="#F9633B"/>
<path d="M45.0396 25.5C39.4898 25.5 34.9598 30.0276 34.9598 35.5772C34.9598 41.127 39.4874 45.6545 45.0396 45.6545C50.5893 45.6545 55.1168 41.1269 55.1168 35.5772C55.1168 30.0275 50.5892 25.5 45.0396 25.5ZM44.9498 47.709C35.274 47.709 26.8996 54.4878 24.8923 63.9542C24.8101 64.3307 24.9048 64.7246 25.1467 65.0263C25.391 65.3255 25.755 65.5 26.1414 65.5H63.9376C64.3216 65.5 64.6881 65.3255 64.9299 65.0263C65.1742 64.7246 65.2665 64.3307 65.1867 63.9542C63.1797 54.4878 54.805 47.709 45.1292 47.709H44.9498Z" fill="white"/>
</svg>
