<svg width="22" height="21" viewBox="0 0 22 21" fill="none" xmlns="http://www.w3.org/2000/svg">
<g clip-path="url(#clip0_953_118)">
<path d="M21.4176 7.88637C21.2423 7.35011 20.7811 6.95636 20.2233 6.86917L14.7806 6.03571L12.3434 0.864391C12.1025 0.338451 11.5775 0 10.9982 0C10.4198 0 9.89393 0.338451 9.65395 0.864391L7.22225 6.03931L1.77498 6.869C1.21722 6.95712 0.756942 7.34994 0.581638 7.8862C0.395093 8.43652 0.533829 9.04589 0.940669 9.46121L4.89287 13.53L3.96109 19.2168C3.86078 19.799 4.10357 20.3868 4.58541 20.7281C5.04382 21.0562 5.64938 21.09 6.14153 20.8153L10.9843 18.132L15.8587 20.8153C16.3508 21.089 16.9555 21.0553 17.413 20.7281C17.8957 20.3868 18.1385 19.799 18.0382 19.2168L17.1168 13.4887L21.0606 9.46313C21.4665 9.04687 21.6051 8.43763 21.4176 7.88637ZM16.0443 12.4409C15.7012 12.7943 15.5465 13.2893 15.6262 13.7759L16.5805 19.5004L11.706 16.8162C11.2655 16.5725 10.7311 16.5725 10.2915 16.8162L5.44127 19.4601L6.37212 13.7759C6.45274 13.2893 6.29713 12.7934 5.95403 12.4399L1.99991 8.35343L7.45006 7.52375C7.94221 7.44593 8.36404 7.12813 8.57496 6.67625L10.9803 1.49173L10.9868 1.50017L13.424 6.67509C13.635 7.12697 14.0568 7.44478 14.5489 7.52259L19.9869 8.41321L16.0443 12.4409Z" fill="#012555"/>
</g>
<defs>
<clipPath id="clip0_953_118">
<rect width="21" height="21" fill="white" transform="translate(0.5)"/>
</clipPath>
</defs>
</svg>
