<svg width="22" height="22" viewBox="0 0 22 22" fill="none" xmlns="http://www.w3.org/2000/svg">
<mask id="path-1-outside-1_494_4714" maskUnits="userSpaceOnUse" x="-0.542969" y="-0.5" width="23" height="23" fill="black">
<rect fill="white" x="-0.542969" y="-0.5" width="23" height="23"/>
<path d="M8.72373 20.957C8.83615 20.957 8.92708 21.0479 8.92708 21.1595C8.92708 21.272 8.83615 21.3621 8.72373 21.3621H2.8983C2.57426 21.3621 2.27913 21.2232 2.06585 21C1.85505 20.7793 1.72444 20.4759 1.72444 20.1419V9.03983C1.72444 8.92741 1.81537 8.8373 1.92697 8.8373C2.0394 8.8373 2.1295 8.92823 2.1295 9.03983V20.1419C2.1295 20.3684 2.21713 20.5726 2.35848 20.7214C2.49736 20.8669 2.68832 20.957 2.89747 20.957L8.72373 20.957ZM9.50245 8.37015H12.5759C12.599 8.37015 12.6197 8.36106 12.6354 8.34535L12.6412 8.34039C12.6528 8.32551 12.6602 8.30732 12.6602 8.28666V4.81705C12.6602 4.7939 12.6511 4.77324 12.6354 4.75753C12.6205 4.74265 12.599 4.73273 12.5759 4.73273H9.50244C9.4793 4.73273 9.45863 4.74182 9.44292 4.75753C9.42804 4.77241 9.41812 4.79391 9.41812 4.81705V8.28666C9.41812 8.31063 9.42722 8.3313 9.4421 8.34618L9.44292 8.34535C9.4578 8.36106 9.4793 8.37015 9.50245 8.37015ZM12.5759 8.77522H9.50245C9.3677 8.77522 9.24536 8.71984 9.15608 8.63138L9.1569 8.63056H9.15608C9.06762 8.5421 9.01306 8.41893 9.01306 8.28501V4.81541C9.01306 4.68066 9.06845 4.55833 9.15608 4.46904C9.24453 4.38059 9.3677 4.32603 9.50245 4.32603H12.5759C12.7106 4.32603 12.833 4.38142 12.9223 4.46904C13.0107 4.55749 13.0653 4.68067 13.0653 4.81541V8.28501C13.0653 8.41232 13.0157 8.52969 12.9355 8.6165C12.9313 8.62146 12.9272 8.6256 12.9223 8.63056C12.8338 8.71901 12.7106 8.7744 12.5759 8.7744V8.77522ZM9.26585 9.42085C9.26585 9.30842 9.35678 9.21832 9.46838 9.21832C9.58081 9.21832 9.67091 9.30925 9.67091 9.42085V20.7932C9.67091 20.8783 9.70398 20.9544 9.75606 21.0089C9.80648 21.0619 9.87675 21.0941 9.9528 21.0941H12.1237C12.1997 21.0941 12.27 21.061 12.3204 21.0089C12.3733 20.9544 12.4056 20.8783 12.4056 20.7932V9.42085C12.4056 9.30842 12.4965 9.21832 12.6081 9.21832C12.7205 9.21832 12.8106 9.30925 12.8106 9.42085V20.7932C12.8106 20.9858 12.7346 21.1619 12.6114 21.29C12.4866 21.4198 12.313 21.5 12.1228 21.5H9.95197C9.76184 21.5 9.58823 21.419 9.46342 21.29C9.34024 21.1619 9.26419 20.9866 9.26419 20.7932V9.42085H9.26585ZM15.6957 4.07561C15.599 4.13182 15.4749 4.09875 15.4196 4.00121C15.3634 3.90449 15.3964 3.78131 15.4931 3.7251C15.8106 3.54241 16.0313 3.31673 16.1693 3.07287C16.3206 2.80586 16.3752 2.51488 16.3487 2.23547C16.338 2.12221 16.314 2.01144 16.2785 1.9048C16.2421 1.79816 16.1933 1.69566 16.1338 1.59976C16.0735 1.50304 16.0015 1.41376 15.9214 1.33358C15.8403 1.25422 15.7502 1.18313 15.6519 1.12361C15.4006 0.970674 15.0963 0.886354 14.7607 0.90868C14.4573 0.929347 14.1267 1.03681 13.7853 1.25917L11.6062 2.68187C11.5127 2.74222 11.3871 2.71577 11.3267 2.62235C11.3044 2.58846 11.2937 2.55043 11.2937 2.51241H11.2929V2.13876C11.2929 2.06932 11.2639 2.00567 11.2176 1.95937L11.2102 1.95111C11.1647 1.90977 11.1052 1.88497 11.0382 1.88497C10.9688 1.88497 10.9051 1.91308 10.858 1.95937C10.8126 2.00567 10.7836 2.06932 10.7836 2.13876V2.5124C10.7836 2.62483 10.6927 2.71494 10.5811 2.71494C10.5348 2.71494 10.491 2.69923 10.4571 2.67278L8.29216 1.25918C7.95075 1.0368 7.62008 0.928515 7.31587 0.908686C6.98108 0.886366 6.67687 0.970686 6.42556 1.12361C6.32719 1.18313 6.23625 1.25423 6.15608 1.33359C6.07506 1.41377 6.00397 1.50305 5.94363 1.59977L5.93453 1.613C5.87915 1.70393 5.83368 1.8023 5.79896 1.90481C5.76341 2.01145 5.73944 2.12303 5.72869 2.23547C5.70307 2.51488 5.7568 2.80587 5.90891 3.07287C6.04779 3.31673 6.2685 3.54243 6.58594 3.72593C6.68266 3.78132 6.71572 3.90449 6.66034 4.00204C6.60495 4.09876 6.48178 4.13182 6.38423 4.07644C5.99983 3.85406 5.7295 3.5763 5.55758 3.27292C5.36248 2.92985 5.29387 2.55785 5.32695 2.19991C5.34017 2.05442 5.37076 1.91223 5.41623 1.77748C5.46004 1.64605 5.51956 1.51955 5.59231 1.40136C5.59479 1.3964 5.59727 1.39144 5.60057 1.38648C5.67745 1.26414 5.76921 1.14923 5.87338 1.04589C5.97589 0.945039 6.09078 0.854933 6.21562 0.778057C6.53554 0.583791 6.92076 0.476321 7.34401 0.504425C7.71353 0.529226 8.1095 0.657359 8.5129 0.920228L10.3795 2.13873V2.1379C10.3795 1.95686 10.4539 1.79153 10.5738 1.67249C10.6928 1.55263 10.8573 1.47905 11.0384 1.47905C11.2128 1.47905 11.3723 1.54767 11.4914 1.66009C11.4955 1.66423 11.5005 1.66753 11.5046 1.67167C11.6245 1.79153 11.698 1.95605 11.698 2.1379V2.13873L13.5646 0.920227C13.968 0.657345 14.364 0.529206 14.7327 0.50525C15.1559 0.477144 15.5412 0.583782 15.8611 0.778057C15.9859 0.854111 16.1008 0.945042 16.2033 1.04589C16.3075 1.14922 16.3992 1.26412 16.4761 1.38648C16.5514 1.50717 16.6134 1.63861 16.6605 1.7775C16.7059 1.91308 16.7365 2.05444 16.7498 2.19993C16.7828 2.5587 16.7142 2.93069 16.52 3.27376C16.348 3.57715 16.0777 3.85573 15.6958 4.07728L15.6957 4.07561ZM8.06402 8.19406C8.17645 8.19406 8.26656 8.28499 8.26656 8.39659C8.26656 8.50901 8.17562 8.59912 8.06402 8.59912H1.35231C1.10596 8.59912 0.881933 8.49827 0.719913 8.33624C0.557892 8.17421 0.457031 7.95019 0.457031 7.70384V5.395C0.457031 5.14865 0.557884 4.92462 0.719913 4.7626C0.881942 4.60058 1.10596 4.49972 1.35231 4.49972H8.06402C8.17645 4.49972 8.26656 4.59065 8.26656 4.70225C8.26656 4.81468 8.17562 4.90478 8.06402 4.90478H1.35231C1.21757 4.90478 1.09523 4.96017 1.00595 5.04945C0.917493 5.1379 0.862106 5.26025 0.862106 5.39499V7.70383C0.862106 7.83857 0.917493 7.96091 1.00677 8.04937C1.09522 8.13782 1.21757 8.19321 1.35231 8.19321H8.06402V8.19406ZM13.9879 4.9056C13.8754 4.9056 13.7853 4.81467 13.7853 4.70307C13.7853 4.59064 13.8763 4.50054 13.9879 4.50054H20.7252C20.9715 4.50054 21.1947 4.60139 21.3576 4.76342C21.5196 4.92545 21.6205 5.14947 21.6205 5.39582V7.70466C21.6205 7.95019 21.5196 8.17421 21.3576 8.33706C21.1955 8.49908 20.9715 8.59994 20.726 8.59994H13.9887C13.8763 8.59994 13.7861 8.50901 13.7861 8.39741C13.7861 8.28498 13.8771 8.19488 13.9887 8.19488H20.726C20.8607 8.19488 20.9823 8.13949 21.0715 8.05104C21.16 7.96258 21.2154 7.83941 21.2154 7.70549V5.39666C21.2154 5.26191 21.16 5.13957 21.0715 5.05112C20.9831 4.96266 20.8599 4.90645 20.726 4.90645H13.9887L13.9879 4.9056ZM19.9481 9.03887C19.9481 8.92644 20.039 8.83633 20.1506 8.83633C20.263 8.83633 20.3531 8.92727 20.3531 9.03887V20.141C20.3531 20.4749 20.2225 20.7783 20.0117 20.999C19.7985 21.2222 19.5042 21.3611 19.1793 21.3611H13.5157C13.4033 21.3611 13.3132 21.2702 13.3132 21.1586C13.3132 21.0462 13.4042 20.956 13.5157 20.956H19.1793C19.3893 20.956 19.5802 20.8659 19.7183 20.7204C19.8596 20.5725 19.9472 20.3675 19.9472 20.141V9.03885L19.9481 9.03887Z"/>
</mask>
<path d="M8.72373 20.957C8.83615 20.957 8.92708 21.0479 8.92708 21.1595C8.92708 21.272 8.83615 21.3621 8.72373 21.3621H2.8983C2.57426 21.3621 2.27913 21.2232 2.06585 21C1.85505 20.7793 1.72444 20.4759 1.72444 20.1419V9.03983C1.72444 8.92741 1.81537 8.8373 1.92697 8.8373C2.0394 8.8373 2.1295 8.92823 2.1295 9.03983V20.1419C2.1295 20.3684 2.21713 20.5726 2.35848 20.7214C2.49736 20.8669 2.68832 20.957 2.89747 20.957L8.72373 20.957ZM9.50245 8.37015H12.5759C12.599 8.37015 12.6197 8.36106 12.6354 8.34535L12.6412 8.34039C12.6528 8.32551 12.6602 8.30732 12.6602 8.28666V4.81705C12.6602 4.7939 12.6511 4.77324 12.6354 4.75753C12.6205 4.74265 12.599 4.73273 12.5759 4.73273H9.50244C9.4793 4.73273 9.45863 4.74182 9.44292 4.75753C9.42804 4.77241 9.41812 4.79391 9.41812 4.81705V8.28666C9.41812 8.31063 9.42722 8.3313 9.4421 8.34618L9.44292 8.34535C9.4578 8.36106 9.4793 8.37015 9.50245 8.37015ZM12.5759 8.77522H9.50245C9.3677 8.77522 9.24536 8.71984 9.15608 8.63138L9.1569 8.63056H9.15608C9.06762 8.5421 9.01306 8.41893 9.01306 8.28501V4.81541C9.01306 4.68066 9.06845 4.55833 9.15608 4.46904C9.24453 4.38059 9.3677 4.32603 9.50245 4.32603H12.5759C12.7106 4.32603 12.833 4.38142 12.9223 4.46904C13.0107 4.55749 13.0653 4.68067 13.0653 4.81541V8.28501C13.0653 8.41232 13.0157 8.52969 12.9355 8.6165C12.9313 8.62146 12.9272 8.6256 12.9223 8.63056C12.8338 8.71901 12.7106 8.7744 12.5759 8.7744V8.77522ZM9.26585 9.42085C9.26585 9.30842 9.35678 9.21832 9.46838 9.21832C9.58081 9.21832 9.67091 9.30925 9.67091 9.42085V20.7932C9.67091 20.8783 9.70398 20.9544 9.75606 21.0089C9.80648 21.0619 9.87675 21.0941 9.9528 21.0941H12.1237C12.1997 21.0941 12.27 21.061 12.3204 21.0089C12.3733 20.9544 12.4056 20.8783 12.4056 20.7932V9.42085C12.4056 9.30842 12.4965 9.21832 12.6081 9.21832C12.7205 9.21832 12.8106 9.30925 12.8106 9.42085V20.7932C12.8106 20.9858 12.7346 21.1619 12.6114 21.29C12.4866 21.4198 12.313 21.5 12.1228 21.5H9.95197C9.76184 21.5 9.58823 21.419 9.46342 21.29C9.34024 21.1619 9.26419 20.9866 9.26419 20.7932V9.42085H9.26585ZM15.6957 4.07561C15.599 4.13182 15.4749 4.09875 15.4196 4.00121C15.3634 3.90449 15.3964 3.78131 15.4931 3.7251C15.8106 3.54241 16.0313 3.31673 16.1693 3.07287C16.3206 2.80586 16.3752 2.51488 16.3487 2.23547C16.338 2.12221 16.314 2.01144 16.2785 1.9048C16.2421 1.79816 16.1933 1.69566 16.1338 1.59976C16.0735 1.50304 16.0015 1.41376 15.9214 1.33358C15.8403 1.25422 15.7502 1.18313 15.6519 1.12361C15.4006 0.970674 15.0963 0.886354 14.7607 0.90868C14.4573 0.929347 14.1267 1.03681 13.7853 1.25917L11.6062 2.68187C11.5127 2.74222 11.3871 2.71577 11.3267 2.62235C11.3044 2.58846 11.2937 2.55043 11.2937 2.51241H11.2929V2.13876C11.2929 2.06932 11.2639 2.00567 11.2176 1.95937L11.2102 1.95111C11.1647 1.90977 11.1052 1.88497 11.0382 1.88497C10.9688 1.88497 10.9051 1.91308 10.858 1.95937C10.8126 2.00567 10.7836 2.06932 10.7836 2.13876V2.5124C10.7836 2.62483 10.6927 2.71494 10.5811 2.71494C10.5348 2.71494 10.491 2.69923 10.4571 2.67278L8.29216 1.25918C7.95075 1.0368 7.62008 0.928515 7.31587 0.908686C6.98108 0.886366 6.67687 0.970686 6.42556 1.12361C6.32719 1.18313 6.23625 1.25423 6.15608 1.33359C6.07506 1.41377 6.00397 1.50305 5.94363 1.59977L5.93453 1.613C5.87915 1.70393 5.83368 1.8023 5.79896 1.90481C5.76341 2.01145 5.73944 2.12303 5.72869 2.23547C5.70307 2.51488 5.7568 2.80587 5.90891 3.07287C6.04779 3.31673 6.2685 3.54243 6.58594 3.72593C6.68266 3.78132 6.71572 3.90449 6.66034 4.00204C6.60495 4.09876 6.48178 4.13182 6.38423 4.07644C5.99983 3.85406 5.7295 3.5763 5.55758 3.27292C5.36248 2.92985 5.29387 2.55785 5.32695 2.19991C5.34017 2.05442 5.37076 1.91223 5.41623 1.77748C5.46004 1.64605 5.51956 1.51955 5.59231 1.40136C5.59479 1.3964 5.59727 1.39144 5.60057 1.38648C5.67745 1.26414 5.76921 1.14923 5.87338 1.04589C5.97589 0.945039 6.09078 0.854933 6.21562 0.778057C6.53554 0.583791 6.92076 0.476321 7.34401 0.504425C7.71353 0.529226 8.1095 0.657359 8.5129 0.920228L10.3795 2.13873V2.1379C10.3795 1.95686 10.4539 1.79153 10.5738 1.67249C10.6928 1.55263 10.8573 1.47905 11.0384 1.47905C11.2128 1.47905 11.3723 1.54767 11.4914 1.66009C11.4955 1.66423 11.5005 1.66753 11.5046 1.67167C11.6245 1.79153 11.698 1.95605 11.698 2.1379V2.13873L13.5646 0.920227C13.968 0.657345 14.364 0.529206 14.7327 0.50525C15.1559 0.477144 15.5412 0.583782 15.8611 0.778057C15.9859 0.854111 16.1008 0.945042 16.2033 1.04589C16.3075 1.14922 16.3992 1.26412 16.4761 1.38648C16.5514 1.50717 16.6134 1.63861 16.6605 1.7775C16.7059 1.91308 16.7365 2.05444 16.7498 2.19993C16.7828 2.5587 16.7142 2.93069 16.52 3.27376C16.348 3.57715 16.0777 3.85573 15.6958 4.07728L15.6957 4.07561ZM8.06402 8.19406C8.17645 8.19406 8.26656 8.28499 8.26656 8.39659C8.26656 8.50901 8.17562 8.59912 8.06402 8.59912H1.35231C1.10596 8.59912 0.881933 8.49827 0.719913 8.33624C0.557892 8.17421 0.457031 7.95019 0.457031 7.70384V5.395C0.457031 5.14865 0.557884 4.92462 0.719913 4.7626C0.881942 4.60058 1.10596 4.49972 1.35231 4.49972H8.06402C8.17645 4.49972 8.26656 4.59065 8.26656 4.70225C8.26656 4.81468 8.17562 4.90478 8.06402 4.90478H1.35231C1.21757 4.90478 1.09523 4.96017 1.00595 5.04945C0.917493 5.1379 0.862106 5.26025 0.862106 5.39499V7.70383C0.862106 7.83857 0.917493 7.96091 1.00677 8.04937C1.09522 8.13782 1.21757 8.19321 1.35231 8.19321H8.06402V8.19406ZM13.9879 4.9056C13.8754 4.9056 13.7853 4.81467 13.7853 4.70307C13.7853 4.59064 13.8763 4.50054 13.9879 4.50054H20.7252C20.9715 4.50054 21.1947 4.60139 21.3576 4.76342C21.5196 4.92545 21.6205 5.14947 21.6205 5.39582V7.70466C21.6205 7.95019 21.5196 8.17421 21.3576 8.33706C21.1955 8.49908 20.9715 8.59994 20.726 8.59994H13.9887C13.8763 8.59994 13.7861 8.50901 13.7861 8.39741C13.7861 8.28498 13.8771 8.19488 13.9887 8.19488H20.726C20.8607 8.19488 20.9823 8.13949 21.0715 8.05104C21.16 7.96258 21.2154 7.83941 21.2154 7.70549V5.39666C21.2154 5.26191 21.16 5.13957 21.0715 5.05112C20.9831 4.96266 20.8599 4.90645 20.726 4.90645H13.9887L13.9879 4.9056ZM19.9481 9.03887C19.9481 8.92644 20.039 8.83633 20.1506 8.83633C20.263 8.83633 20.3531 8.92727 20.3531 9.03887V20.141C20.3531 20.4749 20.2225 20.7783 20.0117 20.999C19.7985 21.2222 19.5042 21.3611 19.1793 21.3611H13.5157C13.4033 21.3611 13.3132 21.2702 13.3132 21.1586C13.3132 21.0462 13.4042 20.956 13.5157 20.956H19.1793C19.3893 20.956 19.5802 20.8659 19.7183 20.7204C19.8596 20.5725 19.9472 20.3675 19.9472 20.141V9.03885L19.9481 9.03887Z" fill="white"/>
<path d="M8.72373 20.957C8.83615 20.957 8.92708 21.0479 8.92708 21.1595C8.92708 21.272 8.83615 21.3621 8.72373 21.3621H2.8983C2.57426 21.3621 2.27913 21.2232 2.06585 21C1.85505 20.7793 1.72444 20.4759 1.72444 20.1419V9.03983C1.72444 8.92741 1.81537 8.8373 1.92697 8.8373C2.0394 8.8373 2.1295 8.92823 2.1295 9.03983V20.1419C2.1295 20.3684 2.21713 20.5726 2.35848 20.7214C2.49736 20.8669 2.68832 20.957 2.89747 20.957L8.72373 20.957ZM9.50245 8.37015H12.5759C12.599 8.37015 12.6197 8.36106 12.6354 8.34535L12.6412 8.34039C12.6528 8.32551 12.6602 8.30732 12.6602 8.28666V4.81705C12.6602 4.7939 12.6511 4.77324 12.6354 4.75753C12.6205 4.74265 12.599 4.73273 12.5759 4.73273H9.50244C9.4793 4.73273 9.45863 4.74182 9.44292 4.75753C9.42804 4.77241 9.41812 4.79391 9.41812 4.81705V8.28666C9.41812 8.31063 9.42722 8.3313 9.4421 8.34618L9.44292 8.34535C9.4578 8.36106 9.4793 8.37015 9.50245 8.37015ZM12.5759 8.77522H9.50245C9.3677 8.77522 9.24536 8.71984 9.15608 8.63138L9.1569 8.63056H9.15608C9.06762 8.5421 9.01306 8.41893 9.01306 8.28501V4.81541C9.01306 4.68066 9.06845 4.55833 9.15608 4.46904C9.24453 4.38059 9.3677 4.32603 9.50245 4.32603H12.5759C12.7106 4.32603 12.833 4.38142 12.9223 4.46904C13.0107 4.55749 13.0653 4.68067 13.0653 4.81541V8.28501C13.0653 8.41232 13.0157 8.52969 12.9355 8.6165C12.9313 8.62146 12.9272 8.6256 12.9223 8.63056C12.8338 8.71901 12.7106 8.7744 12.5759 8.7744V8.77522ZM9.26585 9.42085C9.26585 9.30842 9.35678 9.21832 9.46838 9.21832C9.58081 9.21832 9.67091 9.30925 9.67091 9.42085V20.7932C9.67091 20.8783 9.70398 20.9544 9.75606 21.0089C9.80648 21.0619 9.87675 21.0941 9.9528 21.0941H12.1237C12.1997 21.0941 12.27 21.061 12.3204 21.0089C12.3733 20.9544 12.4056 20.8783 12.4056 20.7932V9.42085C12.4056 9.30842 12.4965 9.21832 12.6081 9.21832C12.7205 9.21832 12.8106 9.30925 12.8106 9.42085V20.7932C12.8106 20.9858 12.7346 21.1619 12.6114 21.29C12.4866 21.4198 12.313 21.5 12.1228 21.5H9.95197C9.76184 21.5 9.58823 21.419 9.46342 21.29C9.34024 21.1619 9.26419 20.9866 9.26419 20.7932V9.42085H9.26585ZM15.6957 4.07561C15.599 4.13182 15.4749 4.09875 15.4196 4.00121C15.3634 3.90449 15.3964 3.78131 15.4931 3.7251C15.8106 3.54241 16.0313 3.31673 16.1693 3.07287C16.3206 2.80586 16.3752 2.51488 16.3487 2.23547C16.338 2.12221 16.314 2.01144 16.2785 1.9048C16.2421 1.79816 16.1933 1.69566 16.1338 1.59976C16.0735 1.50304 16.0015 1.41376 15.9214 1.33358C15.8403 1.25422 15.7502 1.18313 15.6519 1.12361C15.4006 0.970674 15.0963 0.886354 14.7607 0.90868C14.4573 0.929347 14.1267 1.03681 13.7853 1.25917L11.6062 2.68187C11.5127 2.74222 11.3871 2.71577 11.3267 2.62235C11.3044 2.58846 11.2937 2.55043 11.2937 2.51241H11.2929V2.13876C11.2929 2.06932 11.2639 2.00567 11.2176 1.95937L11.2102 1.95111C11.1647 1.90977 11.1052 1.88497 11.0382 1.88497C10.9688 1.88497 10.9051 1.91308 10.858 1.95937C10.8126 2.00567 10.7836 2.06932 10.7836 2.13876V2.5124C10.7836 2.62483 10.6927 2.71494 10.5811 2.71494C10.5348 2.71494 10.491 2.69923 10.4571 2.67278L8.29216 1.25918C7.95075 1.0368 7.62008 0.928515 7.31587 0.908686C6.98108 0.886366 6.67687 0.970686 6.42556 1.12361C6.32719 1.18313 6.23625 1.25423 6.15608 1.33359C6.07506 1.41377 6.00397 1.50305 5.94363 1.59977L5.93453 1.613C5.87915 1.70393 5.83368 1.8023 5.79896 1.90481C5.76341 2.01145 5.73944 2.12303 5.72869 2.23547C5.70307 2.51488 5.7568 2.80587 5.90891 3.07287C6.04779 3.31673 6.2685 3.54243 6.58594 3.72593C6.68266 3.78132 6.71572 3.90449 6.66034 4.00204C6.60495 4.09876 6.48178 4.13182 6.38423 4.07644C5.99983 3.85406 5.7295 3.5763 5.55758 3.27292C5.36248 2.92985 5.29387 2.55785 5.32695 2.19991C5.34017 2.05442 5.37076 1.91223 5.41623 1.77748C5.46004 1.64605 5.51956 1.51955 5.59231 1.40136C5.59479 1.3964 5.59727 1.39144 5.60057 1.38648C5.67745 1.26414 5.76921 1.14923 5.87338 1.04589C5.97589 0.945039 6.09078 0.854933 6.21562 0.778057C6.53554 0.583791 6.92076 0.476321 7.34401 0.504425C7.71353 0.529226 8.1095 0.657359 8.5129 0.920228L10.3795 2.13873V2.1379C10.3795 1.95686 10.4539 1.79153 10.5738 1.67249C10.6928 1.55263 10.8573 1.47905 11.0384 1.47905C11.2128 1.47905 11.3723 1.54767 11.4914 1.66009C11.4955 1.66423 11.5005 1.66753 11.5046 1.67167C11.6245 1.79153 11.698 1.95605 11.698 2.1379V2.13873L13.5646 0.920227C13.968 0.657345 14.364 0.529206 14.7327 0.50525C15.1559 0.477144 15.5412 0.583782 15.8611 0.778057C15.9859 0.854111 16.1008 0.945042 16.2033 1.04589C16.3075 1.14922 16.3992 1.26412 16.4761 1.38648C16.5514 1.50717 16.6134 1.63861 16.6605 1.7775C16.7059 1.91308 16.7365 2.05444 16.7498 2.19993C16.7828 2.5587 16.7142 2.93069 16.52 3.27376C16.348 3.57715 16.0777 3.85573 15.6958 4.07728L15.6957 4.07561ZM8.06402 8.19406C8.17645 8.19406 8.26656 8.28499 8.26656 8.39659C8.26656 8.50901 8.17562 8.59912 8.06402 8.59912H1.35231C1.10596 8.59912 0.881933 8.49827 0.719913 8.33624C0.557892 8.17421 0.457031 7.95019 0.457031 7.70384V5.395C0.457031 5.14865 0.557884 4.92462 0.719913 4.7626C0.881942 4.60058 1.10596 4.49972 1.35231 4.49972H8.06402C8.17645 4.49972 8.26656 4.59065 8.26656 4.70225C8.26656 4.81468 8.17562 4.90478 8.06402 4.90478H1.35231C1.21757 4.90478 1.09523 4.96017 1.00595 5.04945C0.917493 5.1379 0.862106 5.26025 0.862106 5.39499V7.70383C0.862106 7.83857 0.917493 7.96091 1.00677 8.04937C1.09522 8.13782 1.21757 8.19321 1.35231 8.19321H8.06402V8.19406ZM13.9879 4.9056C13.8754 4.9056 13.7853 4.81467 13.7853 4.70307C13.7853 4.59064 13.8763 4.50054 13.9879 4.50054H20.7252C20.9715 4.50054 21.1947 4.60139 21.3576 4.76342C21.5196 4.92545 21.6205 5.14947 21.6205 5.39582V7.70466C21.6205 7.95019 21.5196 8.17421 21.3576 8.33706C21.1955 8.49908 20.9715 8.59994 20.726 8.59994H13.9887C13.8763 8.59994 13.7861 8.50901 13.7861 8.39741C13.7861 8.28498 13.8771 8.19488 13.9887 8.19488H20.726C20.8607 8.19488 20.9823 8.13949 21.0715 8.05104C21.16 7.96258 21.2154 7.83941 21.2154 7.70549V5.39666C21.2154 5.26191 21.16 5.13957 21.0715 5.05112C20.9831 4.96266 20.8599 4.90645 20.726 4.90645H13.9887L13.9879 4.9056ZM19.9481 9.03887C19.9481 8.92644 20.039 8.83633 20.1506 8.83633C20.263 8.83633 20.3531 8.92727 20.3531 9.03887V20.141C20.3531 20.4749 20.2225 20.7783 20.0117 20.999C19.7985 21.2222 19.5042 21.3611 19.1793 21.3611H13.5157C13.4033 21.3611 13.3132 21.2702 13.3132 21.1586C13.3132 21.0462 13.4042 20.956 13.5157 20.956H19.1793C19.3893 20.956 19.5802 20.8659 19.7183 20.7204C19.8596 20.5725 19.9472 20.3675 19.9472 20.141V9.03885L19.9481 9.03887Z" stroke="white" stroke-width="0.6" mask="url(#path-1-outside-1_494_4714)"/>
</svg>
