<svg width="25" height="21" viewBox="0 0 25 21" fill="none" xmlns="http://www.w3.org/2000/svg">
<path fill-rule="evenodd" clip-rule="evenodd" d="M10.5165 0.702278C11.2522 1.04755 11.9217 1.51152 12.5 2.06935C15.3809 -0.712188 19.9859 -0.692853 22.8418 2.14703C24.1754 3.47311 25 5.30726 25 7.32947C25 11.3184 20.4644 14.917 17.678 17.1159L12.9666 20.8341C12.7051 21.0467 12.3199 21.0607 12.0443 20.8428L7.322 17.1171C4.53559 14.9182 0 11.322 0 7.33064C0 3.33733 3.29975 4.47712e-05 7.36978 4.47712e-05C8.49176 4.47712e-05 9.55838 0.251449 10.5165 0.701394L10.5165 0.702278ZM11.9282 3.59927C9.71683 0.930933 5.66732 0.727138 3.1998 3.18171C2.13318 4.24234 1.47234 5.70868 1.47234 7.33053C1.47234 10.6808 5.87571 14.1087 8.23684 15.9732L12.5013 19.3375L16.7658 15.9732C19.1302 14.1087 23.5303 10.6808 23.5303 7.33053C23.5303 3.98026 20.8881 1.46418 17.6308 1.46418C15.8393 1.46418 14.1836 2.25723 13.0669 3.60811C12.7696 3.96742 12.2173 3.95877 11.9275 3.59948L11.9282 3.59927Z" fill="#06498B"/>
</svg>
