<svg width="26" height="21" viewBox="0 0 26 21" fill="none" xmlns="http://www.w3.org/2000/svg">
<g clip-path="url(#clip0_953_112)">
<path fill-rule="evenodd" clip-rule="evenodd" d="M11.0165 0.702278C11.7522 1.04755 12.4217 1.51152 13 2.06935C15.8809 -0.712188 20.4859 -0.692853 23.3418 2.14703C24.6754 3.47311 25.5 5.30726 25.5 7.32947C25.5 11.3184 20.9644 14.917 18.178 17.1159L13.4666 20.8341C13.2051 21.0467 12.8199 21.0607 12.5443 20.8428L7.822 17.1171C5.03559 14.9182 0.5 11.322 0.5 7.33064C0.5 3.33733 3.79975 4.45906e-05 7.86978 4.45906e-05C8.99176 4.45906e-05 10.0584 0.252333 11.0165 0.702278ZM12.4282 3.59927C10.2168 0.930933 6.16732 0.727138 3.6998 3.18171C2.63318 4.24234 1.97234 5.70868 1.97234 7.33053C1.97234 10.6808 6.37571 14.1087 8.73684 15.9732L13.0013 19.3375L17.2658 15.9732C19.6302 14.1087 24.0303 10.6808 24.0303 7.33053C24.0303 3.98026 21.3881 1.46418 18.1308 1.46418C16.3393 1.46418 14.6836 2.25723 13.5669 3.60811C13.2696 3.96742 12.718 3.95856 12.4282 3.59927Z" fill="#012555"/>
</g>
<defs>
<clipPath id="clip0_953_112">
<rect width="25" height="21" fill="white" transform="translate(0.5)"/>
</clipPath>
</defs>
</svg>
