<svg width="6" height="25" viewBox="0 0 6 25" fill="none" xmlns="http://www.w3.org/2000/svg">
<path d="M2.65983 0.603516C4.1265 0.603516 5.3265 1.80352 5.3265 3.27018C5.3265 4.73685 4.1265 5.93685 2.65983 5.93685C1.19316 5.93685 -0.00683594 4.73685 -0.00683594 3.27018C-0.00683594 1.80352 1.19316 0.603516 2.65983 0.603516ZM-0.00683594 21.9368C-0.00683594 23.4035 1.19316 24.6035 2.65983 24.6035C4.1265 24.6035 5.3265 23.4035 5.3265 21.9368C5.3265 20.4702 4.1265 19.2702 2.65983 19.2702C1.19316 19.2702 -0.00683594 20.4702 -0.00683594 21.9368ZM-0.00683594 12.6035C-0.00683594 14.0702 1.19316 15.2702 2.65983 15.2702C4.1265 15.2702 5.3265 14.0702 5.3265 12.6035C5.3265 11.1368 4.1265 9.93685 2.65983 9.93685C1.19316 9.93685 -0.00683594 11.1368 -0.00683594 12.6035Z" fill="black"/>
</svg>
