<svg width="40" height="41" viewBox="0 0 40 41" fill="none" xmlns="http://www.w3.org/2000/svg">
<circle cx="19.9932" cy="20.8018" r="19.5" fill="#F4F4F4" stroke="white"/>
<path fill-rule="evenodd" clip-rule="evenodd" d="M24.7757 28.8009L18.7319 22.6854L22.9891 18.4281C23.0691 18.3481 23.185 18.2948 23.3 18.2948C23.4158 18.2948 23.5308 18.339 23.6108 18.4281L27.9839 22.8454V25.8586C27.9839 27.476 26.6681 28.7917 25.0507 28.7917H24.7665L24.7757 28.8009ZM15.7804 16.0641C16.3228 16.0641 16.7578 16.4999 16.7578 17.0415C16.7578 17.584 16.322 18.019 15.7804 18.019C15.2379 18.019 14.8029 17.5832 14.8029 17.0415C14.8029 16.4991 15.2387 16.0641 15.7804 16.0641ZM15.7804 15.175C14.7496 15.175 13.9138 16.0108 13.9138 17.0415C13.9138 18.0723 14.7496 18.9081 15.7804 18.9081C16.8111 18.9081 17.6469 18.0723 17.6469 17.0415C17.6469 16.0108 16.8111 15.175 15.7804 15.175ZM27.993 21.5921L24.2507 17.8148C24.0016 17.5657 23.6641 17.424 23.3083 17.4148C22.9525 17.4057 22.615 17.5573 22.3658 17.8057L18.1169 22.0546L17.2011 21.1305C16.9519 20.8813 16.6144 20.7397 16.2586 20.7305C15.9028 20.7305 15.5653 20.873 15.3079 21.1213L11.9922 24.437L11.9939 15.7349C11.9939 14.1175 13.3096 12.8018 14.927 12.8018H25.0598C26.6772 12.8018 27.993 14.1175 27.993 15.7349L27.993 21.5921ZM11.9939 25.6902L15.9312 21.753C16.0112 21.673 16.127 21.6196 16.2512 21.6196C16.367 21.6196 16.482 21.6638 16.562 21.753L23.5216 28.8018L14.9271 28.8009C13.3097 28.8009 11.9939 27.4852 11.9939 25.8677V25.6902Z" fill="#545454"/>
</svg>
