<svg width="16" height="22" viewBox="0 0 16 22" fill="none" xmlns="http://www.w3.org/2000/svg">
<path fill-rule="evenodd" clip-rule="evenodd" d="M13.545 8.26241L9.41371 1.12562C9.15891 0.688415 8.59201 0.537015 8.15261 0.791315C7.71431 1.04692 7.56291 1.61141 7.81831 2.04961L11.9526 9.18641C12.2064 9.62691 12.7719 9.77531 13.211 9.52081C13.652 9.26781 13.8007 8.70311 13.545 8.26241ZM10.8826 8.67521C9.64111 8.60491 8.07961 8.78181 6.48151 9.17801C6.44491 9.18641 6.40581 9.19761 6.36921 9.20601L5.02371 6.88332C5.04891 6.85512 5.07721 6.82712 5.10511 6.79922C6.24271 5.61112 7.17211 4.34432 7.73121 3.23232L10.8826 8.67521ZM5.60231 10.9726L4.60801 11.5485L5.76511 12.8684L6.68071 12.2055L5.60231 10.9726ZM7.54041 12.4079C7.62181 12.349 7.72301 12.3235 7.82701 12.3406C8.16461 12.3962 8.26521 12.8296 7.98981 13.0288L6.39171 14.1859C6.36641 14.2055 6.33821 14.2196 6.31031 14.231L5.87501 13.6299C5.89451 13.6046 5.91711 13.5821 5.94231 13.5653L7.54041 12.4079ZM8.59361 13.3656C8.53471 13.4413 8.4644 13.5089 8.38 13.5707L6.78191 14.7251C6.75671 14.7447 6.73141 14.7618 6.70621 14.7756C6.82611 14.9436 6.90811 15.0557 6.95041 15.2728C7.01501 15.2644 7.07391 15.2418 7.12741 15.2025L8.72551 14.0454C8.99171 13.853 8.90571 13.4361 8.59361 13.3656ZM9.116 14.5873C9.1917 14.5311 9.2593 14.4692 9.3154 14.3992C9.3996 14.4245 9.48401 14.4749 9.56271 14.5482C9.61041 14.6269 9.63001 14.7194 9.61611 14.8123C9.59931 14.9162 9.54311 15.0033 9.46171 15.0649L7.86361 16.2193C7.60881 16.4036 7.23561 16.2193 7.25681 15.8796C7.34961 15.8486 7.43651 15.8009 7.51811 15.742L9.116 14.5873ZM10.2842 15.545C10.2281 15.4692 10.1524 15.4185 10.0652 15.399C10.0034 15.4747 9.93341 15.545 9.85171 15.6041L8.2536 16.7585C8.1722 16.8174 8.08501 16.8652 7.99221 16.8961C7.97111 17.2361 8.34421 17.4201 8.59901 17.2359L10.1971 16.0815C10.367 15.9558 10.405 15.7116 10.2842 15.545ZM11.8739 18.1347C11.9722 18.247 12.0199 18.3903 12.0115 18.542C11.9787 19.0497 11.348 19.2446 11.0256 18.8763L9.67751 17.3344C9.70001 17.3007 9.71951 17.2671 9.74201 17.2332L10.5621 16.6378L11.8739 18.1347ZM8.23131 17.9631C8.22291 17.9631 8.21451 17.9632 8.20881 17.9604C7.93061 17.9184 7.68641 17.7667 7.52361 17.542C7.38871 17.3539 7.32141 17.1319 7.32411 16.91C7.01371 16.812 6.74641 16.565 6.64731 16.25C6.40631 16.4711 6.09941 16.5778 5.77681 16.5281C5.49861 16.4888 5.29371 16.323 5.11111 16.149C5.04921 16.0901 4.97081 16.0394 4.80771 16.0844C4.62801 16.1295 4.44541 16.0256 4.40041 15.8456C4.35261 15.6687 4.45921 15.4861 4.63621 15.4383C4.99571 15.3455 5.31871 15.4242 5.57431 15.6687C5.68941 15.781 5.78491 15.8568 5.86931 15.8682C6.21911 15.9159 6.42671 15.5241 6.23431 15.2644L5.33551 14.0201C5.24271 13.8937 5.20901 13.8684 5.20061 13.8657C5.15151 13.8513 5.08671 13.8934 5.03481 13.9303C4.69641 14.1713 4.43321 14.3279 4.36911 14.787C4.24891 15.6473 4.01501 16.4817 3.69231 17.3034L6.04601 19.3873C6.07691 19.3705 6.10481 19.3507 6.13881 19.3339C6.86061 18.907 7.66961 18.4324 8.23131 17.9631ZM5.81581 20.0725C5.83841 20.095 5.84111 20.1314 5.81851 20.1539L4.79061 21.3138C4.76941 21.339 4.73471 21.3385 4.71191 21.3195L2.07471 18.9827C2.05221 18.9632 2.04951 18.9265 2.06901 18.904L3.09701 17.7442C3.11651 17.7216 3.15581 17.7189 3.17841 17.7385L5.81581 20.0725ZM5.91681 10.0177C5.98221 9.98022 5.99681 9.89391 5.96451 9.83801L4.27361 6.91992C4.23831 6.85862 4.15181 6.83742 4.09401 6.87222L1.33031 8.47301C1.26681 8.50961 1.24971 8.59591 1.28261 8.65261L2.97351 11.5707C3.00961 11.6337 3.08911 11.6554 3.15311 11.6185L5.91681 10.0177ZM1.78811 10.8546L1.37811 11.0934C1.15341 11.2253 0.861407 11.1468 0.732207 10.9221C0.600307 10.6947 0.678806 10.4054 0.903506 10.2733L1.31351 10.0375L1.78811 10.8546ZM11.579 3.53542C11.989 3.45672 12.4216 3.63931 12.6435 4.02111C12.8609 4.39591 12.8134 4.85942 12.5339 5.18672L11.579 3.53542ZM14.1236 7.92812C14.7391 8.99352 13.9592 10.3126 12.7529 10.3126C12.1876 10.3126 11.6585 10.0141 11.3738 9.52052L11.2924 9.37721C10.0623 9.23121 8.38271 9.39132 6.64411 9.82392C6.67151 10.133 6.52601 10.4407 6.25081 10.5962L6.18901 10.6299L7.22801 11.8152C7.92901 11.4041 8.82561 11.9064 8.81501 12.7335C9.26471 12.8755 9.57131 13.3061 9.54801 13.7756C9.70951 13.8302 9.98331 13.9886 10.0872 14.1379C10.2221 14.3232 10.2894 14.5422 10.2867 14.7669C10.8454 14.9458 11.1534 15.5371 10.9692 16.0899L12.3762 17.6937C12.8191 18.2025 12.7697 18.9846 12.2612 19.4294C11.7545 19.8725 10.9749 19.8277 10.5255 19.3143L9.26711 17.8763C9.16051 18.0028 9.04811 18.1205 8.93011 18.2329C8.32061 18.8226 7.34041 19.3984 6.47531 19.9097C6.47251 19.9097 6.47251 19.9097 6.46961 19.9124C6.53691 20.1428 6.48911 20.4039 6.31791 20.5949L5.28991 21.7577C5.02481 22.0579 4.56291 22.0799 4.26771 21.8196L1.63321 19.4828C1.33281 19.2188 1.30451 18.761 1.56861 18.4633L2.59931 17.3005C2.72271 17.1572 2.89421 17.0785 3.07121 17.0617C3.38221 16.2665 3.59061 15.5243 3.70861 14.6912C3.77321 14.2361 4.00631 13.8513 4.38001 13.5791C4.63211 13.396 4.82211 13.2453 5.11871 13.1439L4.02041 11.8885L3.48691 12.1946C3.10051 12.4196 2.61361 12.2828 2.39441 11.9053L2.12191 11.4334L1.71191 11.6692C1.16531 11.9843 0.470105 11.8 0.153105 11.2565C-0.161395 10.7115 0.0239052 10.0122 0.568905 9.69772L0.978907 9.45892L0.706406 8.98701C0.485506 8.60681 0.614707 8.11591 0.995707 7.89441L3.75941 6.29632C4.03131 6.13812 4.36621 6.15412 4.62451 6.33842C5.86301 5.04372 6.83781 3.66732 7.32361 2.52702L7.23941 2.38372C6.80121 1.62552 7.05981 0.653715 7.81801 0.212715C8.57621 -0.225585 9.55101 0.0358151 9.98901 0.791315L11.2305 2.93702C11.9719 2.68712 12.8118 2.98482 13.2191 3.68682C13.624 4.38512 13.4756 5.25291 12.8821 5.78481L14.1236 7.92812ZM12.3627 1.96251C12.2026 1.86971 12.1491 1.66481 12.2419 1.50471L12.694 0.732415C12.7868 0.572315 12.9917 0.518815 13.1491 0.611615C13.3092 0.704415 13.3627 0.909315 13.2699 1.06672L12.8178 1.84202C12.7233 2.00402 12.5114 2.05341 12.3627 1.96251ZM15.5195 4.94542L14.6208 4.95382C14.4354 4.95382 14.2864 5.10552 14.2894 5.28822C14.2921 5.47432 14.4411 5.62011 14.6265 5.61951L15.5225 5.61382C15.7052 5.61112 15.8539 5.46212 15.8512 5.27682C15.8509 5.09412 15.7022 4.94542 15.5195 4.94542ZM14.1404 3.15331C14.2327 3.31261 14.437 3.36581 14.5955 3.27411L15.3708 2.82472C15.5309 2.73192 15.5844 2.52972 15.4916 2.36962C15.3988 2.20952 15.1966 2.15602 15.0365 2.24882L14.2612 2.69822C14.1011 2.79102 14.0479 2.99351 14.1404 3.15331Z" fill="#012555"/>
</svg>
