<svg width="20" height="22" viewBox="0 0 20 22" fill="none" xmlns="http://www.w3.org/2000/svg">
<path d="M3.5979 14.7028H0.3548C0.1587 14.7028 0 14.8616 0 15.0576V21.6449C0 21.841 0.1587 21.9997 0.3548 21.9997H3.5982C3.7942 21.9997 3.953 21.841 3.953 21.6449V15.0576C3.9527 14.8616 3.794 14.7028 3.5979 14.7028ZM3.2431 21.2901H0.7096V15.4124H3.2431V21.2901ZM8.7275 9.0818H5.4844C5.2884 9.0818 5.1296 9.2405 5.1296 9.4366V21.6452C5.1296 21.8413 5.2884 22 5.4844 22H8.7278C8.9239 22 9.0826 21.8413 9.0826 21.6452V9.4366C9.0823 9.2405 8.9236 9.0818 8.7275 9.0818ZM8.3727 21.2901H5.8393V9.7914H8.3727V21.2901ZM13.8572 11.1366H10.6141C10.418 11.1366 10.2593 11.2953 10.2593 11.4914V21.6449C10.2593 21.841 10.418 21.9997 10.6141 21.9997H13.8572C14.0532 21.9997 14.212 21.841 14.212 21.6449V11.4914C14.212 11.2953 14.0532 11.1366 13.8572 11.1366ZM13.5023 21.2901H10.9689V11.8462H13.5026L13.5023 21.2901ZM18.9868 5.4823H15.7437C15.5477 5.4823 15.3889 5.641 15.3889 5.8371V21.6449C15.3889 21.841 15.5477 21.9997 15.7437 21.9997H18.9871C19.1831 21.9997 19.3419 21.841 19.3419 21.6449V5.8371C19.3416 5.641 19.1829 5.4823 18.9868 5.4823ZM18.632 21.2901H16.0983V6.1919H18.632V21.2901ZM1.9763 13.8693C2.9364 13.8693 3.7177 13.0883 3.7177 12.128C3.7177 11.6115 3.4913 11.1471 3.133 10.828L6.362 6.5584C6.5878 6.6654 6.8399 6.7258 7.106 6.7258C7.698 6.7258 8.2215 6.4285 8.5363 5.9758L10.6611 7.2025C10.5543 7.4281 10.4943 7.6799 10.4943 7.9454C10.4943 8.9055 11.2753 9.6868 12.2356 9.6868C13.1959 9.6868 13.977 8.9057 13.977 7.9454C13.977 7.5065 13.8133 7.1052 13.5443 6.7985L16.5375 3.2709C16.7846 3.4059 17.0681 3.4827 17.369 3.4827C18.3291 3.4827 19.1104 2.7017 19.1104 1.7413C19.1104 0.781 18.3294 0 17.369 0C16.409 0 15.6277 0.781 15.6277 1.7413C15.6277 2.1446 15.7659 2.5159 15.9966 2.8112L12.9769 6.3701C12.7519 6.2638 12.5007 6.2041 12.2354 6.2041C11.7986 6.2041 11.3992 6.3661 11.0933 6.6327L8.8149 5.3173C8.8357 5.2097 8.8471 5.0983 8.8471 4.9847C8.8471 4.0246 8.066 3.2433 7.1057 3.2433C6.1454 3.2433 5.3644 4.0244 5.3644 4.9847C5.3644 5.4231 5.5274 5.8236 5.7957 6.1303L2.5126 10.4716C2.3436 10.4167 2.1635 10.3866 1.9763 10.3866C1.0163 10.3866 0.235 11.1677 0.235 12.128C0.235 13.0883 1.0163 13.8693 1.9763 13.8693ZM17.369 0.7099C17.9378 0.7099 18.4008 1.1726 18.4008 1.7416C18.4008 2.3106 17.938 2.7733 17.369 2.7733C16.8001 2.7733 16.3373 2.3106 16.3373 1.7416C16.3373 1.1726 16.8001 0.7099 17.369 0.7099ZM12.2356 6.9134C12.8044 6.9134 13.2673 7.3762 13.2673 7.9451C13.2673 8.5139 12.8046 8.9766 12.2356 8.9766C11.6666 8.9766 11.2039 8.5139 11.2039 7.9451C11.2039 7.3764 11.6666 6.9134 12.2356 6.9134ZM7.106 3.9527C7.6747 3.9527 8.1377 4.4154 8.1377 4.9844C8.1377 5.5534 7.675 6.0161 7.106 6.0161C6.537 6.0161 6.0745 5.5534 6.0745 4.9844C6.0745 4.4154 6.5373 3.9527 7.106 3.9527ZM1.9763 11.0963C2.5451 11.0963 3.0081 11.559 3.0081 12.128C3.0081 12.6967 2.5453 13.1597 1.9763 13.1597C1.4076 13.1597 0.9446 12.697 0.9446 12.128C0.9449 11.559 1.4076 11.0963 1.9763 11.0963Z" fill="#012555"/>
</svg>
