<svg width="19" height="14" viewBox="0 0 19 14" fill="none" xmlns="http://www.w3.org/2000/svg">
<path d="M0.701231 7.30985C7.68673 7.30985 8.09832 7.30985 15.0482 7.30985C15.0601 7.27715 15.0719 7.24445 15.0719 7.21175C14.9056 7.13544 14.7393 7.05914 14.573 6.97194C12.3158 5.84921 11.0802 4.07247 10.6169 1.80521C10.5931 1.71801 10.7001 1.609 10.7476 1.5C10.8545 1.5654 11.0208 1.6199 11.0565 1.71801C11.2465 2.23032 11.3416 2.77533 11.5673 3.26585C12.589 5.5113 14.4066 6.84114 17.0321 7.24445C17.1985 7.26625 17.3173 7.47335 17.4836 7.60416C16.5569 7.88756 15.7372 8.05107 15.0125 8.36718C12.8979 9.2937 11.6742 10.8851 11.1753 12.9671C11.1159 13.2287 11.1515 13.632 10.605 13.4576C11.0327 10.8851 12.0069 9.65341 15.1551 7.75676C14.8225 7.75676 14.5967 7.75676 14.371 7.75676C7.82507 7.75676 7.80552 7.75676 1.24771 7.74586C0.998231 7.74586 0.59431 7.88756 0.701231 7.30985Z" fill="white" stroke="white" stroke-width="0.8"/>
</svg>
