<svg width="719" height="325" viewBox="0 0 719 325" fill="none" xmlns="http://www.w3.org/2000/svg">
<path d="M279.73 308.164V306.4H289.45V308.164H285.562V319H283.618V308.164H279.73ZM299.137 312.97V319H297.301V313.528C297.301 312.88 297.127 312.382 296.779 312.034C296.431 311.686 295.945 311.512 295.321 311.512C294.649 311.512 294.073 311.77 293.593 312.286C293.113 312.802 292.873 313.468 292.873 314.284V319H291.037V306.4H292.873V311.566C293.209 311.026 293.647 310.6 294.187 310.288C294.739 309.976 295.333 309.82 295.969 309.82C296.869 309.82 297.619 310.102 298.219 310.666C298.831 311.218 299.137 311.986 299.137 312.97ZM301.636 319V310.072H303.472V319H301.636ZM301.51 308.65V306.58H303.598V308.65H301.51ZM307.442 312.232C307.442 312.604 307.622 312.898 307.982 313.114C308.354 313.33 308.918 313.51 309.674 313.654C310.706 313.87 311.462 314.188 311.942 314.608C312.434 315.028 312.68 315.61 312.68 316.354C312.68 317.182 312.368 317.872 311.744 318.424C311.132 318.976 310.292 319.252 309.224 319.252C308.228 319.252 307.394 319.006 306.722 318.514C306.05 318.01 305.57 317.374 305.282 316.606L306.776 315.67C307.268 317.014 308.09 317.686 309.242 317.686C309.722 317.686 310.124 317.572 310.448 317.344C310.772 317.104 310.934 316.792 310.934 316.408C310.934 316.036 310.772 315.754 310.448 315.562C310.124 315.358 309.584 315.178 308.828 315.022C306.8 314.626 305.786 313.726 305.786 312.322C305.786 311.554 306.098 310.948 306.722 310.504C307.346 310.048 308.096 309.82 308.972 309.82C309.896 309.82 310.64 310.006 311.204 310.378C311.78 310.738 312.23 311.29 312.554 312.034L311.204 312.826C310.796 311.758 310.064 311.224 309.008 311.224C308.564 311.224 308.192 311.32 307.892 311.512C307.592 311.692 307.442 311.932 307.442 312.232ZM319.852 319V306.4H321.922L326.188 317.074L330.454 306.4H332.524V319H330.652V310.27L330.292 311.278L330.004 312.052L327.124 319H325.252L322.372 312.052L322.084 311.278L321.724 310.27V319H319.852ZM344.087 314.536C344.087 316.012 343.607 317.17 342.647 318.01C341.699 318.838 340.589 319.252 339.317 319.252C338.045 319.252 336.929 318.838 335.969 318.01C335.021 317.17 334.547 316.012 334.547 314.536C334.547 313.084 335.021 311.938 335.969 311.098C336.929 310.246 338.045 309.82 339.317 309.82C340.589 309.82 341.699 310.246 342.647 311.098C343.607 311.938 344.087 313.084 344.087 314.536ZM337.265 316.714C337.829 317.278 338.513 317.56 339.317 317.56C340.121 317.56 340.805 317.278 341.369 316.714C341.933 316.15 342.215 315.424 342.215 314.536C342.215 313.648 341.933 312.922 341.369 312.358C340.805 311.794 340.121 311.512 339.317 311.512C338.513 311.512 337.829 311.794 337.265 312.358C336.701 312.922 336.419 313.648 336.419 314.536C336.419 315.424 336.701 316.15 337.265 316.714ZM354.049 312.934V319H352.213V313.474C352.213 312.862 352.039 312.382 351.691 312.034C351.355 311.686 350.869 311.512 350.233 311.512C349.573 311.512 349.015 311.77 348.559 312.286C348.115 312.802 347.893 313.468 347.893 314.284V319H346.057V310.072H347.893V311.566C348.217 311.026 348.643 310.6 349.171 310.288C349.711 309.976 350.299 309.82 350.935 309.82C351.847 309.82 352.591 310.096 353.167 310.648C353.755 311.2 354.049 311.962 354.049 312.934ZM355.285 311.548V310.072H356.725V307.66H358.561V310.072H360.559V311.548H358.561V316.282C358.561 317.158 358.969 317.596 359.785 317.596C359.965 317.596 360.187 317.56 360.451 317.488L360.613 319.036C360.217 319.18 359.773 319.252 359.281 319.252C357.577 319.252 356.725 318.37 356.725 316.606V311.548H355.285ZM370.575 312.97V319H368.739V313.528C368.739 312.88 368.565 312.382 368.217 312.034C367.869 311.686 367.383 311.512 366.759 311.512C366.087 311.512 365.511 311.77 365.031 312.286C364.551 312.802 364.311 313.468 364.311 314.284V319H362.475V306.4H364.311V311.566C364.647 311.026 365.085 310.6 365.625 310.288C366.177 309.976 366.771 309.82 367.407 309.82C368.307 309.82 369.057 310.102 369.657 310.666C370.269 311.218 370.575 311.986 370.575 312.97Z" fill="black"/>
<rect x="256.406" y="310.5" width="10" height="10" rx="5" fill="#06498B"/>
<path d="M430.864 319V306.4H432.808V317.272H439.126V319H430.864ZM449.169 319H447.333C447.045 318.64 446.877 318.118 446.829 317.434C446.253 318.646 445.263 319.252 443.859 319.252C442.959 319.252 442.227 319 441.663 318.496C441.099 317.98 440.817 317.314 440.817 316.498C440.817 315.646 441.105 314.986 441.681 314.518C442.257 314.038 443.019 313.72 443.967 313.564L446.793 313.114V312.736C446.793 311.704 446.169 311.188 444.921 311.188C444.309 311.188 443.847 311.302 443.535 311.53C443.223 311.746 443.067 312.022 443.067 312.358C443.067 312.478 443.079 312.568 443.103 312.628L441.465 313.186C441.369 312.934 441.321 312.694 441.321 312.466C441.321 311.746 441.651 311.128 442.311 310.612C442.971 310.084 443.841 309.82 444.921 309.82C446.133 309.82 447.051 310.078 447.675 310.594C448.311 311.11 448.629 311.86 448.629 312.844V316.768C448.629 317.68 448.809 318.424 449.169 319ZM444.147 317.722C444.939 317.722 445.575 317.44 446.055 316.876C446.547 316.312 446.793 315.592 446.793 314.716V314.464L444.381 314.878C443.229 315.082 442.653 315.586 442.653 316.39C442.653 316.798 442.785 317.122 443.049 317.362C443.325 317.602 443.691 317.722 444.147 317.722ZM452.573 312.232C452.573 312.604 452.753 312.898 453.113 313.114C453.485 313.33 454.049 313.51 454.805 313.654C455.837 313.87 456.593 314.188 457.073 314.608C457.565 315.028 457.811 315.61 457.811 316.354C457.811 317.182 457.499 317.872 456.875 318.424C456.263 318.976 455.423 319.252 454.355 319.252C453.359 319.252 452.525 319.006 451.853 318.514C451.181 318.01 450.701 317.374 450.413 316.606L451.907 315.67C452.399 317.014 453.221 317.686 454.373 317.686C454.853 317.686 455.255 317.572 455.579 317.344C455.903 317.104 456.065 316.792 456.065 316.408C456.065 316.036 455.903 315.754 455.579 315.562C455.255 315.358 454.715 315.178 453.959 315.022C451.931 314.626 450.917 313.726 450.917 312.322C450.917 311.554 451.229 310.948 451.853 310.504C452.477 310.048 453.227 309.82 454.103 309.82C455.027 309.82 455.771 310.006 456.335 310.378C456.911 310.738 457.361 311.29 457.685 312.034L456.335 312.826C455.927 311.758 455.195 311.224 454.139 311.224C453.695 311.224 453.323 311.32 453.023 311.512C452.723 311.692 452.573 311.932 452.573 312.232ZM458.861 311.548V310.072H460.301V307.66H462.137V310.072H464.135V311.548H462.137V316.282C462.137 317.158 462.545 317.596 463.361 317.596C463.541 317.596 463.763 317.56 464.027 317.488L464.189 319.036C463.793 319.18 463.349 319.252 462.857 319.252C461.153 319.252 460.301 318.37 460.301 316.606V311.548H458.861ZM471.223 319V306.4H473.293L477.559 317.074L481.825 306.4H483.895V319H482.023V310.27L481.663 311.278L481.375 312.052L478.495 319H476.623L473.743 312.052L473.455 311.278L473.095 310.27V319H471.223ZM495.459 314.536C495.459 316.012 494.979 317.17 494.019 318.01C493.071 318.838 491.961 319.252 490.689 319.252C489.417 319.252 488.301 318.838 487.341 318.01C486.393 317.17 485.919 316.012 485.919 314.536C485.919 313.084 486.393 311.938 487.341 311.098C488.301 310.246 489.417 309.82 490.689 309.82C491.961 309.82 493.071 310.246 494.019 311.098C494.979 311.938 495.459 313.084 495.459 314.536ZM488.637 316.714C489.201 317.278 489.885 317.56 490.689 317.56C491.493 317.56 492.177 317.278 492.741 316.714C493.305 316.15 493.587 315.424 493.587 314.536C493.587 313.648 493.305 312.922 492.741 312.358C492.177 311.794 491.493 311.512 490.689 311.512C489.885 311.512 489.201 311.794 488.637 312.358C488.073 312.922 487.791 313.648 487.791 314.536C487.791 315.424 488.073 316.15 488.637 316.714ZM505.42 312.934V319H503.584V313.474C503.584 312.862 503.41 312.382 503.062 312.034C502.726 311.686 502.24 311.512 501.604 311.512C500.944 311.512 500.386 311.77 499.93 312.286C499.486 312.802 499.264 313.468 499.264 314.284V319H497.428V310.072H499.264V311.566C499.588 311.026 500.014 310.6 500.542 310.288C501.082 309.976 501.67 309.82 502.306 309.82C503.218 309.82 503.962 310.096 504.538 310.648C505.126 311.2 505.42 311.962 505.42 312.934ZM506.656 311.548V310.072H508.096V307.66H509.932V310.072H511.93V311.548H509.932V316.282C509.932 317.158 510.34 317.596 511.156 317.596C511.336 317.596 511.558 317.56 511.822 317.488L511.984 319.036C511.588 319.18 511.144 319.252 510.652 319.252C508.948 319.252 508.096 318.37 508.096 316.606V311.548H506.656ZM521.946 312.97V319H520.11V313.528C520.11 312.88 519.936 312.382 519.588 312.034C519.24 311.686 518.754 311.512 518.13 311.512C517.458 311.512 516.882 311.77 516.402 312.286C515.922 312.802 515.682 313.468 515.682 314.284V319H513.846V306.4H515.682V311.566C516.018 311.026 516.456 310.6 516.996 310.288C517.548 309.976 518.142 309.82 518.778 309.82C519.678 309.82 520.428 310.102 521.028 310.666C521.64 311.218 521.946 311.986 521.946 312.97Z" fill="black"/>
<path d="M57.266 266C57.122 266 57.01 265.964 56.93 265.892C56.85 265.812 56.81 265.704 56.81 265.568C56.81 265.432 56.85 265.332 56.93 265.268C57.01 265.196 57.122 265.16 57.266 265.16H58.826V258.356H59.342L57.602 259.508C57.498 259.564 57.398 259.588 57.302 259.58C57.214 259.572 57.138 259.54 57.074 259.484C57.018 259.42 56.978 259.348 56.954 259.268C56.93 259.18 56.934 259.092 56.966 259.004C56.998 258.908 57.066 258.828 57.17 258.764L58.826 257.672C58.93 257.608 59.03 257.556 59.126 257.516C59.222 257.476 59.318 257.456 59.414 257.456C59.526 257.456 59.618 257.492 59.69 257.564C59.77 257.628 59.81 257.732 59.81 257.876V265.16H61.25C61.394 265.16 61.506 265.196 61.586 265.268C61.666 265.332 61.706 265.432 61.706 265.568C61.706 265.712 61.666 265.82 61.586 265.892C61.506 265.964 61.394 266 61.25 266H57.266Z" fill="#7B91B0"/>
<path d="M169.755 266.108C169.299 266.108 168.843 266.04 168.387 265.904C167.939 265.768 167.531 265.556 167.163 265.268C167.067 265.204 167.003 265.128 166.971 265.04C166.939 264.952 166.935 264.864 166.959 264.776C166.983 264.688 167.027 264.616 167.091 264.56C167.155 264.496 167.231 264.46 167.319 264.452C167.415 264.444 167.515 264.476 167.619 264.548C167.947 264.78 168.287 264.952 168.639 265.064C168.991 265.176 169.359 265.232 169.743 265.232C170.135 265.232 170.471 265.16 170.751 265.016C171.039 264.864 171.255 264.656 171.399 264.392C171.551 264.12 171.627 263.804 171.627 263.444C171.627 262.892 171.467 262.44 171.147 262.088C170.827 261.736 170.387 261.56 169.827 261.56C169.483 261.56 169.167 261.624 168.879 261.752C168.591 261.88 168.327 262.084 168.087 262.364C168.031 262.428 167.963 262.484 167.883 262.532C167.811 262.572 167.727 262.592 167.631 262.592C167.495 262.592 167.387 262.556 167.307 262.484C167.235 262.404 167.199 262.3 167.199 262.172V257.996C167.199 257.844 167.239 257.732 167.319 257.66C167.399 257.58 167.511 257.54 167.655 257.54H171.735C171.887 257.54 171.999 257.576 172.071 257.648C172.151 257.72 172.191 257.824 172.191 257.96C172.191 258.096 172.151 258.2 172.071 258.272C171.999 258.344 171.887 258.38 171.735 258.38H168.171V261.752H167.907C168.115 261.416 168.403 261.16 168.771 260.984C169.139 260.8 169.551 260.708 170.007 260.708C170.543 260.708 171.003 260.82 171.387 261.044C171.779 261.268 172.079 261.584 172.287 261.992C172.503 262.392 172.611 262.86 172.611 263.396C172.611 263.924 172.495 264.392 172.263 264.8C172.031 265.208 171.703 265.528 171.279 265.76C170.855 265.992 170.347 266.108 169.755 266.108Z" fill="#7B91B0"/>
<path d="M264.599 266C264.455 266 264.343 265.964 264.263 265.892C264.183 265.812 264.143 265.704 264.143 265.568C264.143 265.432 264.183 265.332 264.263 265.268C264.343 265.196 264.455 265.16 264.599 265.16H266.159V258.356H266.675L264.935 259.508C264.831 259.564 264.731 259.588 264.635 259.58C264.547 259.572 264.471 259.54 264.407 259.484C264.351 259.42 264.311 259.348 264.287 259.268C264.263 259.18 264.267 259.092 264.299 259.004C264.331 258.908 264.399 258.828 264.503 258.764L266.159 257.672C266.263 257.608 266.363 257.556 266.459 257.516C266.555 257.476 266.651 257.456 266.747 257.456C266.859 257.456 266.951 257.492 267.023 257.564C267.103 257.628 267.143 257.732 267.143 257.876V265.16H268.583C268.727 265.16 268.839 265.196 268.919 265.268C268.999 265.332 269.039 265.432 269.039 265.568C269.039 265.712 268.999 265.82 268.919 265.892C268.839 265.964 268.727 266 268.583 266H264.599ZM273.535 266.108C272.567 266.108 271.831 265.736 271.327 264.992C270.823 264.248 270.571 263.172 270.571 261.764C270.571 260.82 270.683 260.028 270.907 259.388C271.131 258.74 271.463 258.252 271.903 257.924C272.351 257.596 272.895 257.432 273.535 257.432C274.511 257.432 275.247 257.8 275.743 258.536C276.247 259.264 276.499 260.336 276.499 261.752C276.499 262.696 276.387 263.492 276.163 264.14C275.939 264.788 275.607 265.28 275.167 265.616C274.727 265.944 274.183 266.108 273.535 266.108ZM273.535 265.256C274.207 265.256 274.703 264.972 275.023 264.404C275.351 263.828 275.515 262.944 275.515 261.752C275.515 260.552 275.351 259.676 275.023 259.124C274.703 258.564 274.207 258.284 273.535 258.284C272.871 258.284 272.375 258.564 272.047 259.124C271.719 259.684 271.555 260.56 271.555 261.752C271.555 262.944 271.719 263.828 272.047 264.404C272.375 264.972 272.871 265.256 273.535 265.256Z" fill="#7B91B0"/>
<path d="M370.766 266C370.622 266 370.51 265.964 370.43 265.892C370.35 265.812 370.31 265.704 370.31 265.568C370.31 265.432 370.35 265.332 370.43 265.268C370.51 265.196 370.622 265.16 370.766 265.16H372.326V258.356H372.842L371.102 259.508C370.998 259.564 370.898 259.588 370.802 259.58C370.714 259.572 370.638 259.54 370.574 259.484C370.518 259.42 370.478 259.348 370.454 259.268C370.43 259.18 370.434 259.092 370.466 259.004C370.498 258.908 370.566 258.828 370.67 258.764L372.326 257.672C372.43 257.608 372.53 257.556 372.626 257.516C372.722 257.476 372.818 257.456 372.914 257.456C373.026 257.456 373.118 257.492 373.19 257.564C373.27 257.628 373.31 257.732 373.31 257.876V265.16H374.75C374.894 265.16 375.006 265.196 375.086 265.268C375.166 265.332 375.206 265.432 375.206 265.568C375.206 265.712 375.166 265.82 375.086 265.892C375.006 265.964 374.894 266 374.75 266H370.766ZM379.881 266.108C379.425 266.108 378.969 266.04 378.513 265.904C378.065 265.768 377.657 265.556 377.289 265.268C377.193 265.204 377.129 265.128 377.097 265.04C377.065 264.952 377.061 264.864 377.085 264.776C377.109 264.688 377.153 264.616 377.217 264.56C377.281 264.496 377.357 264.46 377.445 264.452C377.541 264.444 377.641 264.476 377.745 264.548C378.073 264.78 378.413 264.952 378.765 265.064C379.117 265.176 379.485 265.232 379.869 265.232C380.261 265.232 380.597 265.16 380.877 265.016C381.165 264.864 381.381 264.656 381.525 264.392C381.677 264.12 381.753 263.804 381.753 263.444C381.753 262.892 381.593 262.44 381.273 262.088C380.953 261.736 380.513 261.56 379.953 261.56C379.609 261.56 379.293 261.624 379.005 261.752C378.717 261.88 378.453 262.084 378.213 262.364C378.157 262.428 378.089 262.484 378.009 262.532C377.937 262.572 377.853 262.592 377.757 262.592C377.621 262.592 377.513 262.556 377.433 262.484C377.361 262.404 377.325 262.3 377.325 262.172V257.996C377.325 257.844 377.365 257.732 377.445 257.66C377.525 257.58 377.637 257.54 377.781 257.54H381.861C382.013 257.54 382.125 257.576 382.197 257.648C382.277 257.72 382.317 257.824 382.317 257.96C382.317 258.096 382.277 258.2 382.197 258.272C382.125 258.344 382.013 258.38 381.861 258.38H378.297V261.752H378.033C378.241 261.416 378.529 261.16 378.897 260.984C379.265 260.8 379.677 260.708 380.133 260.708C380.669 260.708 381.129 260.82 381.513 261.044C381.905 261.268 382.205 261.584 382.413 261.992C382.629 262.392 382.737 262.86 382.737 263.396C382.737 263.924 382.621 264.392 382.389 264.8C382.157 265.208 381.829 265.528 381.405 265.76C380.981 265.992 380.473 266.108 379.881 266.108Z" fill="#7B91B0"/>
<path d="M483.237 266C483.093 266 482.981 265.964 482.901 265.892C482.821 265.812 482.781 265.704 482.781 265.568C482.781 265.432 482.821 265.332 482.901 265.268C482.981 265.196 483.093 265.16 483.237 265.16H484.797V258.356H485.313L483.573 259.508C483.469 259.564 483.369 259.588 483.273 259.58C483.185 259.572 483.109 259.54 483.045 259.484C482.989 259.42 482.949 259.348 482.925 259.268C482.901 259.18 482.905 259.092 482.937 259.004C482.969 258.908 483.037 258.828 483.141 258.764L484.797 257.672C484.901 257.608 485.001 257.556 485.097 257.516C485.193 257.476 485.289 257.456 485.385 257.456C485.497 257.456 485.589 257.492 485.661 257.564C485.741 257.628 485.781 257.732 485.781 257.876V265.16H487.221C487.365 265.16 487.477 265.196 487.557 265.268C487.637 265.332 487.677 265.432 487.677 265.568C487.677 265.712 487.637 265.82 487.557 265.892C487.477 265.964 487.365 266 487.221 266H483.237ZM492.173 266.108C491.205 266.108 490.469 265.736 489.965 264.992C489.461 264.248 489.209 263.172 489.209 261.764C489.209 260.82 489.321 260.028 489.545 259.388C489.769 258.74 490.101 258.252 490.541 257.924C490.989 257.596 491.533 257.432 492.173 257.432C493.149 257.432 493.885 257.8 494.381 258.536C494.885 259.264 495.137 260.336 495.137 261.752C495.137 262.696 495.025 263.492 494.801 264.14C494.577 264.788 494.245 265.28 493.805 265.616C493.365 265.944 492.821 266.108 492.173 266.108ZM492.173 265.256C492.845 265.256 493.341 264.972 493.661 264.404C493.989 263.828 494.153 262.944 494.153 261.752C494.153 260.552 493.989 259.676 493.661 259.124C493.341 258.564 492.845 258.284 492.173 258.284C491.509 258.284 491.013 258.564 490.685 259.124C490.357 259.684 490.193 260.56 490.193 261.752C490.193 262.944 490.357 263.828 490.685 264.404C491.013 264.972 491.509 265.256 492.173 265.256Z" fill="#7B91B0"/>
<path d="M592.092 266C591.916 266 591.784 265.96 591.696 265.88C591.616 265.792 591.576 265.676 591.576 265.532C591.576 265.444 591.596 265.36 591.636 265.28C591.684 265.192 591.748 265.104 591.828 265.016L594.516 262.136C594.924 261.696 595.216 261.292 595.392 260.924C595.576 260.548 595.668 260.168 595.668 259.784C595.668 259.304 595.52 258.94 595.224 258.692C594.936 258.436 594.512 258.308 593.952 258.308C593.592 258.308 593.252 258.364 592.932 258.476C592.612 258.588 592.304 258.76 592.008 258.992C591.904 259.072 591.808 259.108 591.72 259.1C591.64 259.092 591.568 259.06 591.504 259.004C591.44 258.948 591.396 258.876 591.372 258.788C591.348 258.7 591.348 258.612 591.372 258.524C591.404 258.436 591.468 258.356 591.564 258.284C591.876 258.028 592.252 257.824 592.692 257.672C593.132 257.512 593.58 257.432 594.036 257.432C594.604 257.432 595.084 257.52 595.476 257.696C595.868 257.872 596.164 258.132 596.364 258.476C596.564 258.812 596.664 259.224 596.664 259.712C596.664 260.048 596.608 260.38 596.496 260.708C596.392 261.028 596.228 261.356 596.004 261.692C595.788 262.028 595.504 262.376 595.152 262.736L592.596 265.436V265.16H596.64C596.792 265.16 596.904 265.196 596.976 265.268C597.056 265.332 597.096 265.432 597.096 265.568C597.096 265.712 597.056 265.82 596.976 265.892C596.904 265.964 596.792 266 596.64 266H592.092ZM601.519 266.108C601.063 266.108 600.607 266.04 600.151 265.904C599.703 265.768 599.295 265.556 598.927 265.268C598.831 265.204 598.767 265.128 598.735 265.04C598.703 264.952 598.699 264.864 598.723 264.776C598.747 264.688 598.791 264.616 598.855 264.56C598.919 264.496 598.995 264.46 599.083 264.452C599.179 264.444 599.279 264.476 599.383 264.548C599.711 264.78 600.051 264.952 600.403 265.064C600.755 265.176 601.123 265.232 601.507 265.232C601.899 265.232 602.235 265.16 602.515 265.016C602.803 264.864 603.019 264.656 603.163 264.392C603.315 264.12 603.391 263.804 603.391 263.444C603.391 262.892 603.231 262.44 602.911 262.088C602.591 261.736 602.151 261.56 601.591 261.56C601.247 261.56 600.931 261.624 600.643 261.752C600.355 261.88 600.091 262.084 599.851 262.364C599.795 262.428 599.727 262.484 599.647 262.532C599.575 262.572 599.491 262.592 599.395 262.592C599.259 262.592 599.151 262.556 599.071 262.484C598.999 262.404 598.963 262.3 598.963 262.172V257.996C598.963 257.844 599.003 257.732 599.083 257.66C599.163 257.58 599.275 257.54 599.419 257.54H603.499C603.651 257.54 603.763 257.576 603.835 257.648C603.915 257.72 603.955 257.824 603.955 257.96C603.955 258.096 603.915 258.2 603.835 258.272C603.763 258.344 603.651 258.38 603.499 258.38H599.935V261.752H599.671C599.879 261.416 600.167 261.16 600.535 260.984C600.903 260.8 601.315 260.708 601.771 260.708C602.307 260.708 602.767 260.82 603.151 261.044C603.543 261.268 603.843 261.584 604.051 261.992C604.267 262.392 604.375 262.86 604.375 263.396C604.375 263.924 604.259 264.392 604.027 264.8C603.795 265.208 603.467 265.528 603.043 265.76C602.619 265.992 602.111 266.108 601.519 266.108Z" fill="#7B91B0"/>
<path d="M702.215 266.108C701.751 266.108 701.283 266.04 700.811 265.904C700.347 265.768 699.943 265.568 699.599 265.304C699.495 265.232 699.427 265.152 699.395 265.064C699.363 264.968 699.355 264.88 699.371 264.8C699.395 264.712 699.439 264.64 699.503 264.584C699.567 264.52 699.643 264.484 699.731 264.476C699.827 264.468 699.931 264.5 700.043 264.572C700.395 264.804 700.747 264.972 701.099 265.076C701.451 265.18 701.815 265.232 702.191 265.232C702.599 265.232 702.943 265.172 703.223 265.052C703.503 264.932 703.715 264.756 703.859 264.524C704.003 264.284 704.075 263.992 704.075 263.648C704.075 263.152 703.911 262.776 703.583 262.52C703.255 262.264 702.779 262.136 702.155 262.136H701.303C701.151 262.136 701.035 262.1 700.955 262.028C700.875 261.948 700.835 261.84 700.835 261.704C700.835 261.576 700.875 261.476 700.955 261.404C701.035 261.324 701.151 261.284 701.303 261.284H702.071C702.439 261.284 702.751 261.22 703.007 261.092C703.271 260.964 703.475 260.784 703.619 260.552C703.763 260.312 703.835 260.024 703.835 259.688C703.835 259.24 703.691 258.9 703.403 258.668C703.115 258.428 702.699 258.308 702.155 258.308C701.795 258.308 701.455 258.36 701.135 258.464C700.815 258.568 700.499 258.744 700.187 258.992C700.091 259.064 699.995 259.1 699.899 259.1C699.811 259.092 699.735 259.064 699.671 259.016C699.615 258.96 699.571 258.888 699.539 258.8C699.515 258.712 699.519 258.624 699.551 258.536C699.583 258.44 699.651 258.352 699.755 258.272C700.075 258 700.451 257.792 700.883 257.648C701.315 257.504 701.759 257.432 702.215 257.432C702.759 257.432 703.223 257.52 703.607 257.696C703.999 257.864 704.299 258.112 704.507 258.44C704.715 258.76 704.819 259.148 704.819 259.604C704.819 259.948 704.751 260.264 704.615 260.552C704.487 260.832 704.303 261.072 704.063 261.272C703.831 261.472 703.547 261.616 703.211 261.704V261.572C703.795 261.668 704.247 261.908 704.567 262.292C704.895 262.668 705.059 263.144 705.059 263.72C705.059 264.208 704.943 264.632 704.711 264.992C704.487 265.344 704.163 265.62 703.739 265.82C703.315 266.012 702.807 266.108 702.215 266.108ZM709.506 266.108C708.538 266.108 707.802 265.736 707.298 264.992C706.794 264.248 706.542 263.172 706.542 261.764C706.542 260.82 706.654 260.028 706.878 259.388C707.102 258.74 707.434 258.252 707.874 257.924C708.322 257.596 708.866 257.432 709.506 257.432C710.482 257.432 711.218 257.8 711.714 258.536C712.218 259.264 712.47 260.336 712.47 261.752C712.47 262.696 712.358 263.492 712.134 264.14C711.91 264.788 711.578 265.28 711.138 265.616C710.698 265.944 710.154 266.108 709.506 266.108ZM709.506 265.256C710.178 265.256 710.674 264.972 710.994 264.404C711.322 263.828 711.486 262.944 711.486 261.752C711.486 260.552 711.322 259.676 710.994 259.124C710.674 258.564 710.178 258.284 709.506 258.284C708.842 258.284 708.346 258.564 708.018 259.124C707.69 259.684 707.526 260.56 707.526 261.752C707.526 262.944 707.69 263.828 708.018 264.404C708.346 264.972 708.842 265.256 709.506 265.256Z" fill="#7B91B0"/>
<path d="M55.1679 197.024H709.93" stroke="#EFF1F3" stroke-linecap="round"/>
<path d="M55.1679 233.929H709.93" stroke="#EFF1F3" stroke-linecap="round"/>
<path d="M55.1679 158.929H709.93" stroke="#EFF1F3" stroke-linecap="round"/>
<path d="M55.1679 120.833H709.93" stroke="#EFF1F3" stroke-linecap="round"/>
<path d="M55.1679 82.7382H709.93" stroke="#EFF1F3" stroke-linecap="round"/>
<path d="M55.1679 44.643H709.93" stroke="#EFF1F3" stroke-linecap="round"/>
<path d="M12.8251 40.0439V39.1799C13.2811 39.1799 13.6451 39.0959 13.9171 38.9279C14.1891 38.7599 14.4291 38.4919 14.6371 38.1239H15.5491V46.5239H14.5411V39.4799C14.3171 39.7039 14.0771 39.8559 13.8211 39.9359C13.5651 40.0079 13.2331 40.0439 12.8251 40.0439ZM23.4837 39.1679C24.1637 39.9679 24.5037 41.0199 24.5037 42.3239C24.5037 43.6279 24.1637 44.6839 23.4837 45.4919C22.8037 46.2919 21.9277 46.6919 20.8557 46.6919C19.7837 46.6919 18.9077 46.2919 18.2277 45.4919C17.5477 44.6839 17.2077 43.6279 17.2077 42.3239C17.2077 41.0199 17.5477 39.9679 18.2277 39.1679C18.9077 38.3599 19.7837 37.9559 20.8557 37.9559C21.9277 37.9559 22.8037 38.3599 23.4837 39.1679ZM18.9477 44.8679C19.4357 45.4919 20.0717 45.8039 20.8557 45.8039C21.6397 45.8039 22.2757 45.4919 22.7637 44.8679C23.2517 44.2439 23.4957 43.3959 23.4957 42.3239C23.4957 41.2519 23.2517 40.4039 22.7637 39.7799C22.2757 39.1559 21.6397 38.8439 20.8557 38.8439C20.0717 38.8439 19.4357 39.1559 18.9477 39.7799C18.4597 40.4039 18.2157 41.2519 18.2157 42.3239C18.2157 43.3959 18.4597 44.2439 18.9477 44.8679ZM32.0735 39.1679C32.7535 39.9679 33.0935 41.0199 33.0935 42.3239C33.0935 43.6279 32.7535 44.6839 32.0735 45.4919C31.3935 46.2919 30.5175 46.6919 29.4455 46.6919C28.3735 46.6919 27.4975 46.2919 26.8175 45.4919C26.1375 44.6839 25.7975 43.6279 25.7975 42.3239C25.7975 41.0199 26.1375 39.9679 26.8175 39.1679C27.4975 38.3599 28.3735 37.9559 29.4455 37.9559C30.5175 37.9559 31.3935 38.3599 32.0735 39.1679ZM27.5375 44.8679C28.0255 45.4919 28.6615 45.8039 29.4455 45.8039C30.2295 45.8039 30.8655 45.4919 31.3535 44.8679C31.8415 44.2439 32.0855 43.3959 32.0855 42.3239C32.0855 41.2519 31.8415 40.4039 31.3535 39.7799C30.8655 39.1559 30.2295 38.8439 29.4455 38.8439C28.6615 38.8439 28.0255 39.1559 27.5375 39.7799C27.0495 40.4039 26.8055 41.2519 26.8055 42.3239C26.8055 43.3959 27.0495 44.2439 27.5375 44.8679Z" fill="#7B91B0"/>
<path d="M23.6726 84.0911C23.1446 84.5551 22.4766 84.7871 21.6686 84.7871C20.8606 84.7871 20.1886 84.5551 19.6526 84.0911C19.1246 83.6271 18.8606 83.0271 18.8606 82.2911C18.8606 81.3231 19.3246 80.5991 20.2526 80.1191C19.9006 79.9271 19.6246 79.6671 19.4246 79.3391C19.2246 79.0031 19.1246 78.6311 19.1246 78.2231C19.1246 77.5831 19.3686 77.0631 19.8566 76.6631C20.3446 76.2551 20.9486 76.0511 21.6686 76.0511C22.3886 76.0511 22.9926 76.2551 23.4806 76.6631C23.9686 77.0631 24.2126 77.5831 24.2126 78.2231C24.2126 78.6311 24.1126 79.0031 23.9126 79.3391C23.7126 79.6671 23.4366 79.9271 23.0846 80.1191C24.0126 80.5991 24.4766 81.3231 24.4766 82.2911C24.4766 83.0271 24.2086 83.6271 23.6726 84.0911ZM20.3366 83.5031C20.6726 83.8151 21.1166 83.9711 21.6686 83.9711C22.2206 83.9711 22.6606 83.8151 22.9886 83.5031C23.3246 83.1911 23.4926 82.7751 23.4926 82.2551C23.4926 81.7511 23.3166 81.3391 22.9646 81.0191C22.6126 80.6991 22.1806 80.5391 21.6686 80.5391C21.1566 80.5391 20.7246 80.6991 20.3726 81.0191C20.0206 81.3391 19.8446 81.7511 19.8446 82.2551C19.8446 82.7751 20.0086 83.1911 20.3366 83.5031ZM20.0606 78.3071C20.0606 78.7471 20.2086 79.1031 20.5046 79.3751C20.8086 79.6391 21.1966 79.7711 21.6686 79.7711C22.1326 79.7711 22.5166 79.6391 22.8206 79.3751C23.1246 79.1031 23.2766 78.7471 23.2766 78.3071C23.2766 77.8351 23.1206 77.4711 22.8086 77.2151C22.4966 76.9511 22.1166 76.8191 21.6686 76.8191C21.2206 76.8191 20.8406 76.9511 20.5286 77.2151C20.2166 77.4711 20.0606 77.8351 20.0606 78.3071ZM32.0735 77.2631C32.7535 78.0631 33.0935 79.1151 33.0935 80.4191C33.0935 81.7231 32.7535 82.7791 32.0735 83.5871C31.3935 84.3871 30.5175 84.7871 29.4455 84.7871C28.3735 84.7871 27.4975 84.3871 26.8175 83.5871C26.1375 82.7791 25.7975 81.7231 25.7975 80.4191C25.7975 79.1151 26.1375 78.0631 26.8175 77.2631C27.4975 76.4551 28.3735 76.0511 29.4455 76.0511C30.5175 76.0511 31.3935 76.4551 32.0735 77.2631ZM27.5375 82.9631C28.0255 83.5871 28.6615 83.8991 29.4455 83.8991C30.2295 83.8991 30.8655 83.5871 31.3535 82.9631C31.8415 82.3391 32.0855 81.4911 32.0855 80.4191C32.0855 79.3471 31.8415 78.4991 31.3535 77.8751C30.8655 77.2511 30.2295 76.9391 29.4455 76.9391C28.6615 76.9391 28.0255 77.2511 27.5375 77.8751C27.0495 78.4991 26.8055 79.3471 26.8055 80.4191C26.8055 81.4911 27.0495 82.3391 27.5375 82.9631Z" fill="#7B91B0"/>
<path d="M18.4953 159.13V158.242L22.6353 152.41H23.6433V158.242H24.5913V159.13H23.6433V160.81H22.6353V159.13H18.4953ZM22.6353 153.874L19.5633 158.242H22.6353V153.874ZM32.0735 153.454C32.7535 154.254 33.0935 155.306 33.0935 156.61C33.0935 157.914 32.7535 158.97 32.0735 159.778C31.3935 160.578 30.5175 160.978 29.4455 160.978C28.3735 160.978 27.4975 160.578 26.8175 159.778C26.1375 158.97 25.7975 157.914 25.7975 156.61C25.7975 155.306 26.1375 154.254 26.8175 153.454C27.4975 152.646 28.3735 152.242 29.4455 152.242C30.5175 152.242 31.3935 152.646 32.0735 153.454ZM27.5375 159.154C28.0255 159.778 28.6615 160.09 29.4455 160.09C30.2295 160.09 30.8655 159.778 31.3535 159.154C31.8415 158.53 32.0855 157.682 32.0855 156.61C32.0855 155.538 31.8415 154.69 31.3535 154.066C30.8655 153.442 30.2295 153.13 29.4455 153.13C28.6615 153.13 28.0255 153.442 27.5375 154.066C27.0495 154.69 26.8055 155.538 26.8055 156.61C26.8055 157.682 27.0495 158.53 27.5375 159.154Z" fill="#7B91B0"/>
<path d="M24.1004 116.762L23.1524 116.57C23.2164 116.426 23.2484 116.282 23.2484 116.138C23.2484 115.81 23.1164 115.546 22.8524 115.346C22.5884 115.138 22.2284 115.034 21.7724 115.034C21.1244 115.034 20.5964 115.358 20.1884 116.006C19.7804 116.654 19.5604 117.498 19.5284 118.538C19.7604 118.122 20.0804 117.798 20.4884 117.566C20.9044 117.334 21.3444 117.218 21.8084 117.218C22.5844 117.218 23.2324 117.482 23.7524 118.01C24.2804 118.538 24.5444 119.206 24.5444 120.014C24.5444 120.806 24.2604 121.482 23.6924 122.042C23.1324 122.602 22.4324 122.882 21.5924 122.882C20.6484 122.882 19.8964 122.542 19.3364 121.862C18.7844 121.174 18.5084 120.222 18.5084 119.006C18.5084 117.998 18.6724 117.078 19.0004 116.246C19.2644 115.582 19.6364 115.066 20.1164 114.698C20.6044 114.33 21.1524 114.146 21.7604 114.146C22.5044 114.146 23.0964 114.33 23.5364 114.698C23.9844 115.066 24.2084 115.55 24.2084 116.15C24.2084 116.382 24.1724 116.586 24.1004 116.762ZM21.5924 118.106C21.0564 118.106 20.5964 118.286 20.2124 118.646C19.8284 118.998 19.6364 119.466 19.6364 120.05C19.6364 120.634 19.8284 121.106 20.2124 121.466C20.5964 121.818 21.0564 121.994 21.5924 121.994C22.1204 121.994 22.5764 121.818 22.9604 121.466C23.3444 121.106 23.5364 120.634 23.5364 120.05C23.5364 119.466 23.3444 118.998 22.9604 118.646C22.5764 118.286 22.1204 118.106 21.5924 118.106ZM32.0735 115.358C32.7535 116.158 33.0935 117.21 33.0935 118.514C33.0935 119.818 32.7535 120.874 32.0735 121.682C31.3935 122.482 30.5175 122.882 29.4455 122.882C28.3735 122.882 27.4975 122.482 26.8175 121.682C26.1375 120.874 25.7975 119.818 25.7975 118.514C25.7975 117.21 26.1375 116.158 26.8175 115.358C27.4975 114.55 28.3735 114.146 29.4455 114.146C30.5175 114.146 31.3935 114.55 32.0735 115.358ZM27.5375 121.058C28.0255 121.682 28.6615 121.994 29.4455 121.994C30.2295 121.994 30.8655 121.682 31.3535 121.058C31.8415 120.434 32.0855 119.586 32.0855 118.514C32.0855 117.442 31.8415 116.594 31.3535 115.97C30.8655 115.346 30.2295 115.034 29.4455 115.034C28.6615 115.034 28.0255 115.346 27.5375 115.97C27.0495 116.594 26.8055 117.442 26.8055 118.514C26.8055 119.586 27.0495 120.434 27.5375 121.058Z" fill="#7B91B0"/>
<path d="M19.2476 198.245L22.4876 194.993C22.9276 194.553 23.2316 194.173 23.3996 193.853C23.5676 193.533 23.6516 193.181 23.6516 192.797C23.6516 192.317 23.4876 191.929 23.1596 191.633C22.8396 191.329 22.4276 191.177 21.9236 191.177C21.4436 191.177 21.0436 191.333 20.7236 191.645C20.4036 191.957 20.2436 192.361 20.2436 192.857C20.2436 193.041 20.2756 193.221 20.3396 193.397L19.4516 193.541C19.3556 193.293 19.3076 193.029 19.3076 192.749C19.3076 192.109 19.5556 191.549 20.0516 191.069C20.5556 190.581 21.1916 190.337 21.9596 190.337C22.7596 190.337 23.4036 190.557 23.8916 190.997C24.3876 191.429 24.6356 191.985 24.6356 192.665C24.6356 193.177 24.5236 193.657 24.2996 194.105C24.0836 194.553 23.6996 195.053 23.1476 195.605L20.7476 198.017H24.6716V198.905H19.2476V198.245ZM32.0735 191.549C32.7535 192.349 33.0935 193.401 33.0935 194.705C33.0935 196.009 32.7535 197.065 32.0735 197.873C31.3935 198.673 30.5175 199.073 29.4455 199.073C28.3735 199.073 27.4975 198.673 26.8175 197.873C26.1375 197.065 25.7975 196.009 25.7975 194.705C25.7975 193.401 26.1375 192.349 26.8175 191.549C27.4975 190.741 28.3735 190.337 29.4455 190.337C30.5175 190.337 31.3935 190.741 32.0735 191.549ZM27.5375 197.249C28.0255 197.873 28.6615 198.185 29.4455 198.185C30.2295 198.185 30.8655 197.873 31.3535 197.249C31.8415 196.625 32.0855 195.777 32.0855 194.705C32.0855 193.633 31.8415 192.785 31.3535 192.161C30.8655 191.537 30.2295 191.225 29.4455 191.225C28.6615 191.225 28.0255 191.537 27.5375 192.161C27.0495 192.785 26.8055 193.633 26.8055 194.705C26.8055 195.777 27.0495 196.625 27.5375 197.249Z" fill="#7B91B0"/>
<path d="M32.0735 229.644C32.7535 230.444 33.0935 231.496 33.0935 232.8C33.0935 234.104 32.7535 235.16 32.0735 235.968C31.3935 236.768 30.5175 237.168 29.4455 237.168C28.3735 237.168 27.4975 236.768 26.8175 235.968C26.1375 235.16 25.7975 234.104 25.7975 232.8C25.7975 231.496 26.1375 230.444 26.8175 229.644C27.4975 228.836 28.3735 228.432 29.4455 228.432C30.5175 228.432 31.3935 228.836 32.0735 229.644ZM27.5375 235.344C28.0255 235.968 28.6615 236.28 29.4455 236.28C30.2295 236.28 30.8655 235.968 31.3535 235.344C31.8415 234.72 32.0855 233.872 32.0855 232.8C32.0855 231.728 31.8415 230.88 31.3535 230.256C30.8655 229.632 30.2295 229.32 29.4455 229.32C28.6615 229.32 28.0255 229.632 27.5375 230.256C27.0495 230.88 26.8055 231.728 26.8055 232.8C26.8055 233.872 27.0495 234.72 27.5375 235.344Z" fill="#7B91B0"/>
<path fill-rule="evenodd" clip-rule="evenodd" d="M55.5306 31.3624C97.5471 42.3512 131.552 70.6916 178.882 70.6916C226.212 70.6916 241.445 49.4363 271.843 49.4363C302.241 49.4363 322.668 91.9469 364.804 91.9469C406.939 91.9469 436.905 42.3512 479.217 42.3512C521.528 42.3512 580.017 120.287 620.445 120.287C660.874 120.287 713.406 0 713.406 0V249H55.5306C55.5306 249 55.2502 43.2727 55.5306 31.3624Z" fill="url(#paint0_linear_2_3)"/>
<circle cx="712.906" cy="5.5" r="5.5" fill="#06498B"/>
<circle cx="620.906" cy="120.5" r="6.5" fill="#06498B"/>
<ellipse cx="480.406" cy="44.5" rx="7" ry="6.5" fill="#06498B"/>
<circle cx="364.906" cy="92.5" r="6.5" fill="#06498B"/>
<circle cx="272.406" cy="51" r="7" fill="#06498B"/>
<circle cx="180.406" cy="70" r="7" fill="#06498B"/>
<circle cx="58.406" cy="33" r="7" fill="#06498B"/>
<path d="M55.406 162.873C82.786 162.873 142.272 148.071 170.103 126.77C197.934 105.469 244.92 214 277.255 214C309.589 214 333.053 214 362.523 214C391.993 214 459.903 184.792 496.085 184.792C532.267 184.792 570.089 190.525 604.745 190.525C639.402 190.525 680.983 131.928 713.406 131.928" stroke="#F9633B" stroke-width="2" stroke-linecap="round"/>
<circle cx="707.906" cy="130.5" r="6.5" fill="#F9633B"/>
<circle cx="620.906" cy="185.5" r="6.5" fill="#F9633B"/>
<ellipse cx="480.406" cy="185.5" rx="7" ry="6.5" fill="#F9633B"/>
<circle cx="364.906" cy="213.5" r="6.5" fill="#F9633B"/>
<ellipse cx="272.406" cy="213.5" rx="7" ry="6.5" fill="#F9633B"/>
<circle cx="179.906" cy="123.5" r="6.5" fill="#F9633B"/>
<circle cx="56.406" cy="162" r="4" fill="#F9633B"/>
<defs>
<linearGradient id="paint0_linear_2_3" x1="55.3921" y1="0" x2="55.3921" y2="249" gradientUnits="userSpaceOnUse">
<stop stop-color="#06498B" stop-opacity="0.3"/>
<stop offset="1" stop-color="white" stop-opacity="0.01"/>
</linearGradient>
</defs>
</svg>
