<svg width="23" height="9" viewBox="0 0 23 9" fill="none" xmlns="http://www.w3.org/2000/svg">
<path d="M21.1369 0.220703C21.5829 0.220703 21.9878 0.402117 22.2805 0.694742C22.5731 0.98738 22.7545 1.39231 22.7545 1.83829C22.7545 2.28427 22.5731 2.6892 22.2805 2.98183C21.9878 3.27447 21.5829 3.45587 21.1369 3.45587C20.8929 3.45587 20.6607 3.40188 20.4534 3.30362L18.7558 5.00112C18.853 5.20953 18.9081 5.4406 18.9081 5.68467C18.9081 6.13065 18.7267 6.53558 18.4341 6.82822C18.1414 7.12086 17.7365 7.30225 17.2905 7.30225C16.8445 7.30225 16.4396 7.12084 16.147 6.82822C15.8543 6.53558 15.6729 6.13065 15.6729 5.68467C15.6729 5.44063 15.7269 5.20845 15.8252 5.00112L14.3555 3.53146C14.1471 3.62864 13.916 3.68371 13.6709 3.68371C13.4269 3.68371 13.1947 3.62972 12.9874 3.53146L10.4983 6.02049C10.5955 6.2289 10.6506 6.45997 10.6506 6.70404C10.6506 7.15002 10.4692 7.55495 10.1765 7.84759C9.88391 8.14022 9.47897 8.32162 9.03299 8.32162C8.58701 8.32162 8.18208 8.14021 7.88944 7.84759C7.59681 7.55495 7.41541 7.15002 7.41541 6.70404C7.41541 6.60793 7.42405 6.51291 7.44024 6.42113L6.63251 5.95464C6.35068 6.19113 5.98786 6.33474 5.59156 6.33474C5.19525 6.33474 4.83135 6.19221 4.54952 5.95464L3.2494 6.70512C3.26559 6.7969 3.27423 6.89193 3.27423 6.9891C3.27423 7.43508 3.09282 7.84001 2.80019 8.13265C2.50756 8.42529 2.10263 8.60669 1.65665 8.60669C1.21067 8.60669 0.80574 8.42527 0.513101 8.13265C0.220462 7.84002 0.0390625 7.43508 0.0390625 6.9891C0.0390625 6.54313 0.220476 6.1382 0.513101 5.84556C0.80574 5.55292 1.21067 5.37152 1.65665 5.37152C2.05187 5.37152 2.4147 5.51514 2.69653 5.7527L3.99773 5.00112C3.98153 4.90933 3.97289 4.81431 3.97289 4.71821C3.97289 4.27223 4.15431 3.8673 4.44693 3.57466C4.73956 3.28203 5.1445 3.10063 5.59048 3.10063C6.03538 3.10063 6.43923 3.28204 6.73294 3.57577C7.02666 3.86733 7.20809 4.27226 7.20809 4.71824C7.20809 4.81434 7.19945 4.90937 7.18325 5.00115L7.99098 5.46764C8.27281 5.23115 8.63564 5.08753 9.03194 5.08753C9.27598 5.08753 9.50816 5.14152 9.71549 5.23979L12.2045 2.75076C12.1073 2.54235 12.0523 2.31128 12.0523 2.06721C12.0523 1.62123 12.2337 1.2163 12.5263 0.923661C12.8189 0.631022 13.2239 0.449623 13.6699 0.449623C14.1158 0.449623 14.5208 0.631036 14.8134 0.923661C15.106 1.21629 15.2874 1.62123 15.2874 2.06721C15.2874 2.31125 15.2334 2.54343 15.1352 2.75076L16.6048 4.22042C16.8133 4.12323 17.0443 4.06816 17.2884 4.06816C17.5324 4.06816 17.7646 4.12215 17.973 4.22042L19.6705 2.52292C19.5733 2.31451 19.5183 2.08233 19.5183 1.83829C19.5183 1.39231 19.6997 0.98738 19.9923 0.694742C20.2849 0.402103 20.6899 0.220703 21.1359 0.220703H21.1369ZM21.4987 1.47657C21.4069 1.38478 21.2784 1.32755 21.1369 1.32755C20.9954 1.32755 20.8669 1.38478 20.7752 1.47657C20.6834 1.56835 20.6261 1.69686 20.6261 1.83832C20.6261 1.97977 20.6834 2.10828 20.7752 2.20006C20.8669 2.29185 20.9954 2.34908 21.1369 2.34908C21.2784 2.34908 21.4069 2.29185 21.4987 2.20006C21.5904 2.10828 21.6477 1.97977 21.6477 1.83832C21.6477 1.69686 21.5904 1.56836 21.4987 1.47657ZM17.6523 5.32405C17.5605 5.23226 17.432 5.17503 17.2905 5.17503C17.1491 5.17503 17.0206 5.23226 16.9288 5.32405C16.837 5.41583 16.7798 5.54434 16.7798 5.6858C16.7798 5.82726 16.837 5.95576 16.9288 6.04755C17.0206 6.13933 17.1491 6.19656 17.2905 6.19656C17.432 6.19656 17.5605 6.13933 17.6523 6.04755C17.7441 5.95576 17.8013 5.82726 17.8013 5.6858C17.8013 5.54434 17.7441 5.41584 17.6523 5.32405ZM14.0326 1.70435C13.9408 1.61257 13.8123 1.55534 13.6708 1.55534C13.5294 1.55534 13.4009 1.61257 13.3091 1.70435C13.2173 1.79614 13.1601 1.92464 13.1601 2.0661C13.1601 2.20756 13.2173 2.33606 13.3091 2.42785C13.4009 2.51964 13.5294 2.57687 13.6708 2.57687C13.8123 2.57687 13.9408 2.51964 14.0326 2.42785C14.1244 2.33606 14.1816 2.20756 14.1816 2.0661C14.1816 1.92464 14.1244 1.79614 14.0326 1.70435ZM9.39365 6.34328C9.30186 6.2515 9.17336 6.19426 9.0319 6.19426C8.89044 6.19426 8.76194 6.2515 8.67015 6.34328C8.57837 6.43507 8.52114 6.56357 8.52114 6.70503C8.52114 6.84649 8.57837 6.97499 8.67015 7.06678C8.76194 7.15856 8.89044 7.2158 9.0319 7.2158C9.17336 7.2158 9.30186 7.15856 9.39365 7.06678C9.48544 6.97499 9.54267 6.84649 9.54267 6.70503C9.54267 6.56357 9.48544 6.43507 9.39365 6.34328ZM5.95226 4.35637C5.86155 4.26459 5.73305 4.20736 5.59051 4.20736C5.44905 4.20736 5.32055 4.26459 5.22876 4.35637C5.13697 4.44816 5.07974 4.57666 5.07974 4.71812C5.07974 4.85958 5.13697 4.98808 5.22876 5.07987C5.32055 5.17166 5.44905 5.22889 5.59051 5.22889C5.73197 5.22889 5.86047 5.17166 5.95226 5.07987C6.04404 4.98808 6.10127 4.85958 6.10127 4.71812C6.10127 4.57666 6.04404 4.44816 5.95226 4.35529V4.35637ZM2.01853 6.62727C1.92782 6.53548 1.79932 6.47825 1.65678 6.47825C1.51532 6.47825 1.38682 6.53548 1.29503 6.62727C1.20324 6.71905 1.14601 6.84756 1.14601 6.98902C1.14601 7.13048 1.20324 7.25898 1.29503 7.35076C1.38682 7.44255 1.51532 7.49978 1.65678 7.49978C1.79824 7.49978 1.92674 7.44255 2.01853 7.35076C2.11031 7.25898 2.16754 7.13048 2.16754 6.98902C2.16754 6.84756 2.11031 6.71906 2.01853 6.62619V6.62727Z" fill="white"/>
</svg>
