<svg width="22" height="22" viewBox="0 0 22 22" fill="none" xmlns="http://www.w3.org/2000/svg">
<path d="M6.8553 4.9362C6.7216 4.7031 6.8019 4.405 7.035 4.2712C7.2681 4.1375 7.5663 4.2178 7.7 4.4509L7.9502 4.8842L9.007 3.0541C9.1419 2.821 9.4409 2.7416 9.674 2.8765C9.9071 3.0114 9.9866 3.3104 9.8517 3.5435L8.3731 6.1042C8.331 6.1756 8.2706 6.2377 8.1935 6.2819C7.9603 6.4156 7.6622 6.3353 7.5284 6.1022L6.8553 4.9362ZM5.3109 19.3445C5.3109 19.9798 5.087 20.5639 4.7144 21.0212H18.5553C19.0184 21.0212 19.4381 20.8335 19.7412 20.5304C20.0442 20.2274 20.232 19.8076 20.232 19.3445V0.9788H5.3109V11.6075V19.3445ZM2.6555 22C1.9226 22 1.2584 21.7024 0.778 21.222C0.2976 20.7416 0 20.0772 0 19.3445V11.6075C0 11.3374 0.2193 11.1182 0.4894 11.1182H4.3322V0.4894C4.3322 0.2193 4.5514 0 4.8215 0H20.7214C20.9915 0 21.2108 0.2193 21.2108 0.4894V19.3445C21.2108 20.0772 20.9132 20.7416 20.4328 21.222C19.9524 21.7024 19.2879 22 18.5553 22H2.6555ZM4.3322 12.0969H0.9788V19.3445C0.9788 19.8076 1.1665 20.2274 1.4696 20.5304C1.7726 20.8335 2.1921 21.0212 2.6555 21.0212H2.6771C3.1315 21.0155 3.5429 20.8288 3.8413 20.5304C4.1444 20.2274 4.3322 19.8076 4.3322 19.3445V12.0969ZM11.7046 17.9099C11.4345 17.9099 11.2152 17.6907 11.2152 17.4205C11.2152 17.1504 11.4345 16.9312 11.7046 16.9312H18.2653C18.5354 16.9312 18.7546 17.1504 18.7546 17.4205C18.7546 17.6907 18.5354 17.9099 18.2653 17.9099H11.7046ZM6.8553 17.7776C6.7216 17.5445 6.8019 17.2463 7.035 17.1126C7.2681 16.9788 7.5663 17.0591 7.7 17.2923L7.9502 17.7256L9.007 15.8955C9.1419 15.6624 9.4409 15.5829 9.674 15.7178C9.9071 15.8527 9.9866 16.1517 9.8517 16.3849L8.3731 18.9456C8.331 19.0169 8.2706 19.0791 8.1935 19.1233C7.9603 19.257 7.6622 19.1767 7.5284 18.9436L6.8553 17.7776ZM11.7046 13.6295C11.4345 13.6295 11.2152 13.4102 11.2152 13.1401C11.2152 12.87 11.4345 12.6507 11.7046 12.6507H18.2653C18.5354 12.6507 18.7546 12.87 18.7546 13.1401C18.7546 13.4102 18.5354 13.6295 18.2653 13.6295H11.7046ZM6.8553 13.4972C6.7216 13.264 6.8019 12.9659 7.035 12.8321C7.2681 12.6984 7.5663 12.7787 7.7 13.0118L7.9502 13.4452L9.007 11.615C9.1419 11.3819 9.4409 11.3025 9.674 11.4374C9.9071 11.5723 9.9866 11.8713 9.8517 12.1044L8.3731 14.6651C8.331 14.7365 8.2706 14.7986 8.1935 14.8428C7.9603 14.9765 7.6622 14.8962 7.5284 14.6631L6.8553 13.4972ZM11.7046 9.349C11.4345 9.349 11.2152 9.1297 11.2152 8.8596C11.2152 8.5895 11.4345 8.3702 11.7046 8.3702H18.2653C18.5354 8.3702 18.7546 8.5895 18.7546 8.8596C18.7546 9.1297 18.5354 9.349 18.2653 9.349H11.7046ZM6.8553 9.2167C6.7216 8.9836 6.8019 8.6854 7.035 8.5517C7.2681 8.4179 7.5663 8.4982 7.7 8.7314L7.9502 9.1647L9.007 7.3346C9.1419 7.1015 9.4409 7.022 9.674 7.1569C9.9071 7.2918 9.9866 7.5908 9.8517 7.824L8.3731 10.3847C8.331 10.456 8.2706 10.5181 8.1935 10.5623C7.9603 10.6961 7.6622 10.6158 7.5284 10.3826L6.8553 9.2167ZM11.7046 5.0685C11.4345 5.0685 11.2152 4.8493 11.2152 4.5792C11.2152 4.3091 11.4345 4.0898 11.7046 4.0898H18.2653C18.5354 4.0898 18.7546 4.3091 18.7546 4.5792C18.7546 4.8493 18.5354 5.0685 18.2653 5.0685H11.7046Z" fill="#012555"/>
</svg>
