<svg width="91" height="91" viewBox="0 0 91 91" fill="none" xmlns="http://www.w3.org/2000/svg">
<circle cx="45.0391" cy="45.5" r="45" fill="#F9633B"/>
<path fill-rule="evenodd" clip-rule="evenodd" d="M55.0091 27.6986C54.3199 27.6515 53.316 27.8527 51.9184 28.6147C49.1145 30.1429 47.6912 32.0243 46.9634 33.4776C46.698 34.0084 46.5225 34.4857 46.4048 34.8752C46.6017 34.8902 46.8157 34.9031 47.0491 34.9159C47.2117 34.9245 47.3808 34.9309 47.5585 34.9395V41.0139H43.175V34.9203L43.2478 34.916C43.4811 34.9032 43.6951 34.8903 43.892 34.8753C43.7743 34.4858 43.5988 34.0085 43.3334 33.4777C42.6057 32.0244 41.1823 30.143 38.3784 28.6147C36.9808 27.8528 35.9769 27.6516 35.2878 27.6987C34.6328 27.7436 34.1833 28.0154 33.8494 28.4093C33.4941 28.8288 33.2458 29.4217 33.1239 30.0916C33.0018 30.7572 33.0211 31.4208 33.126 31.9152C33.3036 32.7585 33.9265 33.4199 35.0352 33.9314C36.1546 34.4472 37.6186 34.7319 39.1404 34.8667C39.9623 34.9374 40.7778 34.963 41.5312 34.963V41.0139H27.5589C26.3475 41.0139 25.3672 40.0314 25.3672 38.8221V37.9596C25.3672 36.7482 26.3475 35.7678 27.5589 35.7678H33.8026C32.4735 35.0829 31.3305 34.0128 30.9817 32.3732C30.8126 31.5792 30.7976 30.6267 30.9667 29.6978C31.1358 28.771 31.5039 27.7843 32.176 26.9924C32.8694 26.1747 33.8583 25.599 35.1382 25.5112C36.3839 25.4278 37.8115 25.8087 39.4275 26.6906C42.4882 28.3601 44.2005 30.4469 45.1485 32.217C46.0967 30.4469 47.809 28.3601 50.8694 26.6906C52.4854 25.8087 53.9131 25.4277 55.1587 25.5112C56.4387 25.599 57.4275 26.1747 58.121 26.9924C58.7931 27.7843 59.1612 28.771 59.3303 29.6978C59.4993 30.6267 59.4844 31.5792 59.3153 32.3732C58.9664 34.0128 57.8234 35.0829 56.4943 35.7678H62.5194C63.7287 35.7678 64.7111 36.7482 64.7111 37.9596V38.8221C64.7111 40.0314 63.7287 41.0139 62.5194 41.0139H49.2018V34.9609C49.829 34.9523 50.4904 34.9245 51.156 34.8667C52.6778 34.7318 54.1418 34.4472 55.2612 33.9313C56.3699 33.4198 56.9928 32.7584 57.1704 31.9151C57.2753 31.4207 57.2946 30.7572 57.1726 30.0915C57.0506 29.4216 56.8023 28.8287 56.447 28.4092C56.1131 28.0154 55.664 27.7436 55.0091 27.6986ZM30.3991 43.2057H41.531V65.5H30.3991C29.7934 65.5 29.3033 65.0099 29.3033 64.4041V44.3015C29.3033 43.6958 29.7934 43.2057 30.3991 43.2057ZM43.1748 65.5H47.5582V43.2057H43.1748V65.5ZM59.6813 65.5H49.202V43.2057H59.6813C60.287 43.2057 60.7772 43.6958 60.7772 44.3015V64.4041C60.7772 65.0099 60.287 65.5 59.6813 65.5Z" fill="white"/>
</svg>
