<svg width="22" height="22" viewBox="0 0 22 22" fill="none" xmlns="http://www.w3.org/2000/svg">
<path d="M20.309 8.9523V2.5385C20.309 2.0646 19.9367 1.6923 19.4628 1.6923H15.2321C14.7582 1.6923 14.3859 2.0646 14.3859 2.5385V3.0292L11.5936 0.2538C11.2552 -0.0846 10.7305 -0.0846 10.3921 0.2538L0.238211 10.4077C0.00131102 10.6446 -0.0663889 11 0.0690111 11.3215C0.204411 11.6431 0.509011 11.8462 0.847511 11.8462H3.38591V21.1538C3.38591 21.6277 3.75821 22 4.23211 22H8.46281H13.5398H17.7705C18.2444 22 18.6167 21.6277 18.6167 21.1538V11.8462H21.1552C21.4936 11.8462 21.7982 11.6431 21.9336 11.3215C22.069 11 21.9844 10.6446 21.7475 10.4077L20.309 8.9523ZM16.0782 3.3846H18.6167V7.26L16.0782 4.7215V3.3846ZM12.6936 20.3077H9.30901V16.9231H12.6936V20.3077ZM17.7705 10.1538C17.2967 10.1538 16.9244 10.5262 16.9244 11V20.3077H14.3859V16.0769C14.3859 15.6031 14.0136 15.2308 13.5398 15.2308H8.46281C7.98901 15.2308 7.61671 15.6031 7.61671 16.0769V20.3077H5.07821V11C5.07821 10.5262 4.70591 10.1538 4.23211 10.1538H2.89521L11.0013 2.0477L14.6398 5.6862L18.8705 9.9169L19.1244 10.1708H17.7705V10.1538Z" fill="#012555"/>
</svg>
