<svg width="21" height="20" viewBox="0 0 21 20" fill="none" xmlns="http://www.w3.org/2000/svg">
<path d="M19.9616 7.51083C19.7946 7.0001 19.3553 6.6251 18.8241 6.54206L13.64 5.7483L11.3186 0.823229C11.0892 0.322334 10.5892 0 10.0374 0C9.48645 0 8.98556 0.322334 8.75699 0.823229L6.44085 5.75173L1.25247 6.5419C0.72122 6.62583 0.282816 6.99994 0.115844 7.51066C-0.0618354 8.03478 0.0703073 8.61513 0.457812 9.01068L4.22218 12.8857L3.33468 18.3017C3.23914 18.8562 3.4704 19.416 3.92934 19.741C4.36596 20.0535 4.94274 20.0857 5.4115 19.8241L10.0241 17.2686L14.6669 19.8241H14.666C15.1347 20.0848 15.7115 20.0526 16.1473 19.741C16.6071 19.416 16.8383 18.8562 16.7428 18.3017L15.8651 12.8464L19.6215 9.01251C20.0081 8.61607 20.1401 8.03584 19.9616 7.51083ZM14.8436 11.8485C14.5168 12.1851 14.3695 12.6565 14.4454 13.1199L15.3543 18.5718L10.7115 16.0155C10.2919 15.7833 9.78296 15.7833 9.36421 16.0155L4.74452 18.5334L5.63113 13.1199C5.70792 12.6565 5.5597 12.1842 5.23291 11.8476L1.46671 7.95565L6.65784 7.16547C7.1266 7.09137 7.52838 6.78869 7.72928 6.35834L10.0203 1.4207L10.0265 1.42873L12.3479 6.35723C12.5488 6.78759 12.9506 7.09026 13.4193 7.16437L18.5988 8.01258L14.8436 11.8485Z" fill="white"/>
</svg>
