<svg width="23" height="22" viewBox="0 0 23 22" fill="none" xmlns="http://www.w3.org/2000/svg">
<path fill-rule="evenodd" clip-rule="evenodd" d="M17.1046 21.1039H2.67424C2.48704 21.1039 2.33984 20.9568 2.33984 20.7696V2.64802C2.33984 2.46082 2.48704 2.31372 2.67424 2.31372H13.7076C13.8949 2.31372 14.042 2.46082 14.042 2.64802C14.042 2.83532 13.8949 2.98242 13.7076 2.98242H2.98184V20.4754H16.7836V17.9343C16.7836 17.7471 16.9307 17.6 17.118 17.6C17.3052 17.6 17.4523 17.7471 17.4523 17.9343V20.7963C17.4256 20.9568 17.2784 21.1039 17.1046 21.1039ZM17.1046 10.3246C16.9174 10.3246 16.7702 10.1775 16.7702 9.99032V6.05842C16.7702 5.88452 16.9174 5.73742 17.1046 5.73742C17.2784 5.73742 17.4256 5.88452 17.4256 6.05842V10.017C17.4256 10.1775 17.2784 10.3246 17.1046 10.3246Z" fill="#012555"/>
<path fill-rule="evenodd" clip-rule="evenodd" d="M17.1044 6.3793H13.7074C13.5202 6.3793 13.373 6.2322 13.373 6.045V2.648C13.373 2.5277 13.4399 2.4073 13.5737 2.3538C13.7074 2.3003 13.8278 2.3404 13.9214 2.434L17.3451 5.8444C17.4253 5.938 17.4654 6.0851 17.412 6.1921C17.3585 6.3125 17.2515 6.3793 17.1044 6.3793ZM14.015 5.7374H16.3153L14.015 3.4371V5.7374Z" fill="#012555"/>
<path fill-rule="evenodd" clip-rule="evenodd" d="M2.6748 17.8407H0.3343C0.1471 17.8407 0 17.6936 0 17.5064V0.3343C0 0.1471 0.1471 0 0.3343 0H12.5179C12.7052 0 12.8523 0.1471 12.8523 0.3343V2.648C12.8523 2.8353 12.7052 2.9824 12.5179 2.9824C12.3307 2.9824 12.1836 2.8353 12.1836 2.648V0.6553H0.6687V17.172H2.6748C2.862 17.172 3.0091 17.3191 3.0091 17.5064C3.0091 17.6936 2.8353 17.8407 2.6748 17.8407Z" fill="#012555"/>
<path fill-rule="evenodd" clip-rule="evenodd" d="M13.2529 17.279C11.9556 17.279 10.7386 16.7842 9.81577 15.8614C8.87957 14.9252 8.38477 13.7082 8.38477 12.4109C8.38477 11.1137 8.87957 9.88332 9.81577 8.96052C11.7015 7.06142 14.8042 7.06142 16.6899 8.96052C18.6024 10.8729 18.6024 13.9623 16.6899 15.8614C15.7805 16.7842 14.5635 17.279 13.2529 17.279ZM13.2529 8.19822C12.1829 8.19822 11.113 8.59942 10.2705 9.41522C8.62547 11.0735 8.62547 13.7483 10.2705 15.3933C11.0729 16.1957 12.1294 16.6371 13.2529 16.6371C14.3896 16.6371 15.4462 16.1957 16.2486 15.3933C17.8936 13.7483 17.8936 11.0735 16.2486 9.41522C15.406 8.59942 14.3361 8.19822 13.2529 8.19822Z" fill="#012555"/>
<path fill-rule="evenodd" clip-rule="evenodd" d="M21.0509 22C20.8235 22 20.6229 21.9064 20.4758 21.7593L16.8247 18.0948C16.6776 17.9477 16.584 17.7471 16.584 17.5198C16.584 17.3058 16.6776 17.1052 16.8247 16.9447L17.801 15.9684C18.122 15.6474 18.6436 15.6474 18.9378 15.9684L22.5888 19.6195C22.9098 19.9404 22.9098 20.462 22.5888 20.7562L21.5992 21.7325C21.4788 21.9198 21.2782 22 21.0509 22ZM18.3761 16.3964C18.336 16.3964 18.3092 16.4097 18.2691 16.4365L17.2794 17.4128C17.2259 17.4663 17.2259 17.5866 17.2794 17.6401L20.9439 21.2912C20.9974 21.3447 21.1043 21.3447 21.1578 21.2912L22.1475 20.3015C22.201 20.248 22.201 20.141 22.1475 20.0875L18.4964 16.4365C18.4563 16.4097 18.4162 16.3964 18.3761 16.3964Z" fill="#012555"/>
<path fill-rule="evenodd" clip-rule="evenodd" d="M17.546 17.0249C17.4658 17.0249 17.3721 16.9848 17.3187 16.9313L16.2487 15.8614C16.115 15.7276 16.115 15.527 16.2487 15.3933C16.3691 15.2596 16.5831 15.2596 16.7035 15.3933L17.7867 16.4632C17.9205 16.597 17.9205 16.7976 17.7867 16.9313C17.6931 16.9848 17.6129 17.0249 17.546 17.0249Z" fill="#012555"/>
<path fill-rule="evenodd" clip-rule="evenodd" d="M13.6817 18.9106H4.64104C4.45384 18.9106 4.30664 18.7635 4.30664 18.5763C4.30664 18.4024 4.45384 18.2553 4.64104 18.2553H13.6817C13.869 18.2553 14.0161 18.4024 14.0161 18.5763C14.0161 18.7635 13.869 18.9106 13.6817 18.9106Z" fill="#012555"/>
<path fill-rule="evenodd" clip-rule="evenodd" d="M7.67694 16.4499H4.64104C4.45384 16.4499 4.30664 16.3027 4.30664 16.1155C4.30664 15.9283 4.45384 15.7812 4.64104 15.7812H7.66354C7.85074 15.7812 7.99784 15.9283 7.99784 16.1155C7.99784 16.3027 7.85074 16.4499 7.67694 16.4499Z" fill="#012555"/>
<path fill-rule="evenodd" clip-rule="evenodd" d="M7.67694 13.9891H4.64104C4.45384 13.9891 4.30664 13.8286 4.30664 13.6547C4.30664 13.4675 4.45384 13.3204 4.64104 13.3204H7.66354C7.85074 13.3204 7.99784 13.4675 7.99784 13.6547C7.99784 13.8286 7.85074 13.9891 7.67694 13.9891Z" fill="#012555"/>
<path fill-rule="evenodd" clip-rule="evenodd" d="M7.67694 11.5149H4.64104C4.45384 11.5149 4.30664 11.3678 4.30664 11.1805C4.30664 10.9933 4.45384 10.8462 4.64104 10.8462H7.66354C7.85074 10.8462 7.99784 10.9933 7.99784 11.1805C7.99784 11.3678 7.85074 11.5149 7.67694 11.5149Z" fill="#012555"/>
<path fill-rule="evenodd" clip-rule="evenodd" d="M7.67694 9.0274H4.64104C4.45384 9.0274 4.30664 8.8803 4.30664 8.693C4.30664 8.5192 4.45384 8.3587 4.64104 8.3587H7.66354C7.85074 8.3587 7.99784 8.5192 7.99784 8.693C7.99784 8.8803 7.85074 9.0274 7.67694 9.0274Z" fill="#012555"/>
<path fill-rule="evenodd" clip-rule="evenodd" d="M11.9297 6.52649H4.64104C4.45384 6.52649 4.30664 6.37929 4.30664 6.19209C4.30664 6.00489 4.45384 5.85779 4.64104 5.85779H11.9297C12.117 5.85779 12.2641 6.00489 12.2641 6.19209C12.2641 6.37929 12.117 6.52649 11.9297 6.52649Z" fill="#012555"/>
<path fill-rule="evenodd" clip-rule="evenodd" d="M11.6894 14.4839C11.6493 14.4839 11.6092 14.4839 11.5958 14.4705H11.5557C11.5156 14.4705 11.4754 14.4705 11.4487 14.4438C11.4086 14.4438 11.3818 14.4304 11.3551 14.4036C11.315 14.3903 11.2748 14.3769 11.2615 14.3501C11.2615 14.3501 11.2347 14.3501 11.2347 14.3368C11.208 14.3234 11.1812 14.2966 11.1411 14.2833C11.1277 14.2565 11.1144 14.2565 11.0876 14.2431L11.0742 14.2298L10.994 14.1897C10.9806 14.1629 10.9672 14.1495 10.9405 14.1362C10.9004 14.096 10.887 14.0559 10.8736 14.0158L9.99093 12.5045C9.75023 12.0766 9.89733 11.555 10.3119 11.3009C10.3119 11.3009 10.3119 11.3009 10.3253 11.3009C10.7533 11.0468 11.2882 11.2207 11.5423 11.6219L11.997 12.4243L15.3405 10.4985C15.7417 10.2577 16.29 10.3915 16.5441 10.8061C16.7849 11.234 16.6378 11.7824 16.2098 12.0231L12.1174 14.3501C12.0773 14.3769 12.0505 14.3903 12.0238 14.4036C11.997 14.4304 11.9569 14.4304 11.9435 14.4438C11.9302 14.4438 11.9302 14.4705 11.9034 14.4705C11.8633 14.4839 11.8365 14.4839 11.783 14.4839H11.7563C11.7429 14.4839 11.7028 14.4839 11.6894 14.4839ZM11.6092 13.8152C11.6226 13.8152 11.6493 13.8152 11.6493 13.8152C11.6627 13.8152 11.6627 13.8152 11.6894 13.8152H11.7028C11.7028 13.8152 11.7028 13.8152 11.7162 13.8152C11.7429 13.8152 11.7429 13.8152 11.7563 13.8018C11.783 13.8018 11.783 13.7751 11.7964 13.7751C11.7964 13.7751 11.8098 13.7751 11.8365 13.7617L15.8754 11.4213C15.9824 11.3544 16.0226 11.2207 15.9691 11.1137C15.9156 10.9933 15.7685 10.9666 15.6481 11.0334L12.0238 13.1331C11.8633 13.2267 11.6627 13.1732 11.5691 13.0128L10.9405 11.9428C10.887 11.8359 10.7399 11.7957 10.6329 11.8492C10.5125 11.9295 10.4724 12.0498 10.5527 12.1702L11.4621 13.7216C11.4754 13.7483 11.4754 13.7483 11.5022 13.7617C11.5022 13.7617 11.5022 13.7617 11.5156 13.7751C11.5423 13.7751 11.5423 13.8018 11.5557 13.8152C11.5557 13.8152 11.5691 13.8152 11.5691 13.8286C11.5958 13.8286 11.5958 13.8553 11.6092 13.8553C11.5958 13.8152 11.6092 13.8152 11.6092 13.8152Z" fill="#012555"/>
</svg>
