<svg width="91" height="91" viewBox="0 0 91 91" fill="none" xmlns="http://www.w3.org/2000/svg">
<circle cx="45.0391" cy="45.5" r="45" fill="#F9633B"/>
<path d="M58.3721 25.5H31.7054C31.3518 25.5 31.0126 25.6405 30.7626 25.8905C30.5125 26.1406 30.3721 26.4797 30.3721 26.8333V64.1667C30.3721 64.5203 30.5125 64.8594 30.7626 65.1095C31.0126 65.3595 31.3518 65.5 31.7054 65.5H31.8827C32.2363 65.4999 32.5754 65.3594 32.8254 65.1093L45.1267 52.8067L57.4294 65.1093C57.6159 65.2957 57.8534 65.4227 58.112 65.4741C58.3706 65.5255 58.6387 65.4991 58.8823 65.3982C59.1259 65.2973 59.3341 65.1265 59.4806 64.9073C59.6271 64.6881 59.7053 64.4303 59.7054 64.1667V26.8333C59.7054 26.4797 59.5649 26.1406 59.3149 25.8905C59.0648 25.6405 58.7257 25.5 58.3721 25.5Z" fill="white"/>
</svg>
