<svg width="16" height="16" viewBox="0 0 16 16" fill="none" xmlns="http://www.w3.org/2000/svg">
<path d="M7.32448 1.36064C7.62384 0.439332 8.92725 0.439333 9.2266 1.36064L10.3493 4.81584C10.4831 5.22787 10.8671 5.50683 11.3003 5.50683H14.9333C15.9021 5.50683 16.3048 6.74644 15.5211 7.31584L12.5819 9.45127C12.2315 9.70592 12.0848 10.1573 12.2187 10.5693L13.3413 14.0245C13.6407 14.9458 12.5862 15.7119 11.8025 15.1425L8.86333 13.0071C8.51284 12.7525 8.03824 12.7525 7.68776 13.0071L4.74859 15.1425C3.96487 15.7119 2.91039 14.9458 3.20975 14.0245L4.33241 10.5693C4.46628 10.1573 4.31962 9.70592 3.96914 9.45127L1.02997 7.31584C0.246255 6.74644 0.649031 5.50683 1.61775 5.50683H5.25077C5.68399 5.50683 6.06795 5.22787 6.20182 4.81584L7.32448 1.36064Z" fill="#FF9D28"/>
</svg>
