<svg width="33" height="22" viewBox="0 0 33 22" fill="none" xmlns="http://www.w3.org/2000/svg">
<path d="M30.6686 13.2802H30.1981V13.1955C30.1981 12.4616 29.6477 11.8595 28.9374 11.767C28.5235 9.3945 27.4728 7.2429 25.9628 5.4883C26.0913 4.7215 25.8185 3.939 25.2117 3.4121C22.6667 1.2121 19.4147 0 16.0587 0C12.7028 0 9.4509 1.2121 6.9058 3.4121C6.299 3.9374 6.0261 4.7215 6.1547 5.4883C4.6447 7.2429 3.594 9.3943 3.1801 11.767C2.4697 11.8595 1.91934 12.4616 1.91934 13.1955V13.2802H1.44891C0.65075 13.2802 0 13.9309 0 14.7291V17.307C0 18.1051 0.65075 18.7559 1.44891 18.7559H1.91934V18.8406C1.91934 19.6387 2.5701 20.2895 3.3682 20.2895H5.1668C5.965 20.2895 6.6157 19.6387 6.6157 18.8406V13.1969C6.6157 12.6512 6.31 12.1808 5.8615 11.9331C6.2112 10.227 6.978 8.6699 8.0537 7.3761C8.1666 7.3918 8.2779 7.3996 8.3955 7.3996C8.9412 7.3996 9.4586 7.2114 9.8601 6.8618C11.5786 5.3642 13.7787 4.541 16.0585 4.541C18.3385 4.541 20.5384 5.3643 22.2569 6.8618C22.6583 7.2114 23.1758 7.3996 23.7215 7.3996C23.8375 7.3996 23.9504 7.3918 24.0633 7.3761C25.139 8.6682 25.9058 10.2268 26.2555 11.9331C25.8054 12.1824 25.5012 12.6513 25.5012 13.1969V18.8406C25.5012 19.6387 26.152 20.2895 26.9501 20.2895H28.7487C29.5469 20.2895 30.1976 19.6387 30.1976 18.8406V18.7559H30.668C31.4662 18.7559 32.117 18.1051 32.117 17.307V14.7291C32.117 13.9309 31.4668 13.2802 30.6686 13.2802ZM1.92283 17.9532H1.4524C1.09488 17.9532 0.80635 17.6646 0.80635 17.3071V14.7292C0.80635 14.3717 1.09487 14.0831 1.4524 14.0831H1.92283V17.9532ZM5.8163 18.8407C5.8163 19.1935 5.5278 19.4867 5.1703 19.4867H3.3717C3.0189 19.4867 2.7256 19.1935 2.7256 18.8407V13.197C2.7256 12.8395 3.0189 12.551 3.3717 12.551H5.1703C5.5278 12.551 5.8163 12.8395 5.8163 13.197V18.8407ZM5.0856 11.7467H4.0021C4.38 9.7317 5.2503 7.8892 6.4875 6.3479C6.6835 6.6615 6.9485 6.914 7.259 7.0912C6.2037 8.4319 5.4447 10.0172 5.0872 11.7485L5.0856 11.7467ZM23.7238 6.5972C23.3742 6.5972 23.0417 6.4764 22.7846 6.2553C20.9217 4.6339 18.5335 3.7386 16.0607 3.7386C13.5879 3.7386 11.1998 4.634 9.3368 6.2553C9.0797 6.4764 8.7472 6.5972 8.3976 6.5972C7.6433 6.5972 7.1933 6.1032 7.0208 5.6422C6.8483 5.1812 6.8687 4.5101 7.4347 4.0208C9.8355 1.9494 12.8977 0.8047 16.0606 0.8047C19.2234 0.8047 22.2875 1.9494 24.6864 4.0208C25.2525 4.5101 25.2729 5.1812 25.1004 5.6422C24.9279 6.1032 24.475 6.5972 23.7238 6.5972ZM24.8638 7.0911C25.1727 6.9139 25.4377 6.6615 25.6353 6.3478C26.8709 7.8892 27.7428 9.7318 28.1207 11.7466H27.0372C26.6797 10.017 25.9207 8.4302 24.8654 7.0893L24.8638 7.0911ZM29.3955 18.8409C29.3955 19.1937 29.1023 19.4869 28.7495 19.4869H26.9509C26.5934 19.4869 26.3048 19.1937 26.3048 18.8409V13.1972C26.3048 12.8397 26.5933 12.5512 26.9509 12.5512H28.7495C29.1023 12.5512 29.3955 12.8397 29.3955 13.1972V18.8409ZM31.3148 17.3073C31.3148 17.6648 31.0263 17.9534 30.6688 17.9534H30.1983V14.0834H30.6688C31.0263 14.0834 31.3148 14.3719 31.3148 14.7294V17.3073Z" fill="#012555"/>
<path d="M8.08878 21.8024C8.18908 21.9028 8.33808 21.9435 8.47448 21.9075L12.0638 20.9447C13.2885 21.6347 14.6653 22 16.0624 22C20.566 22 24.2322 18.3354 24.2322 13.8302C24.2322 9.32658 20.5677 5.66028 16.0624 5.66028C11.5588 5.66028 7.89258 9.32178 7.89258 13.8302C7.89258 15.2226 8.25788 16.5994 8.94478 17.824L7.98508 21.4133C7.94428 21.5545 7.98508 21.7019 8.09018 21.8022L8.08878 21.8024ZM9.76188 17.8728C9.79008 17.7677 9.77448 17.6595 9.72118 17.5639C9.04688 16.4286 8.69408 15.1349 8.69408 13.8303C8.69408 9.76748 11.998 6.46328 16.061 6.46328C20.1241 6.46328 23.428 9.76728 23.428 13.8303C23.428 17.8931 20.1241 21.1973 16.061 21.1973C14.7517 21.1973 13.4596 20.8398 12.3243 20.1702C12.2647 20.1341 12.1926 20.1137 12.1189 20.1137C12.0875 20.1137 12.0499 20.1184 12.0138 20.1263L8.93878 20.9527L9.76188 17.8728Z" fill="#012555"/>
<path d="M13.3376 13.8305C13.3376 13.3083 12.9127 12.8834 12.3905 12.8834C11.8683 12.8834 11.4434 13.3083 11.4434 13.8305C11.4434 14.3527 11.8683 14.7745 12.3905 14.7745C12.9127 14.7745 13.3376 14.3527 13.3376 13.8305Z" fill="#012555"/>
<path d="M16.0604 14.7726C16.5826 14.7726 17.0075 14.3508 17.0075 13.8286C17.0075 13.3064 16.5826 12.8815 16.0604 12.8815C15.5382 12.8815 15.1133 13.3064 15.1133 13.8286C15.1133 14.3508 15.5382 14.7726 16.0604 14.7726Z" fill="#012555"/>
<path d="M19.7303 14.7726C20.2525 14.7726 20.6775 14.3508 20.6775 13.8286C20.6775 13.3064 20.2525 12.8815 19.7303 12.8815C19.2082 12.8815 18.7832 13.3064 18.7832 13.8286C18.7832 14.3508 19.2082 14.7726 19.7303 14.7726Z" fill="#012555"/>
</svg>
